<?xml version="1.0" standalone="no"?>
<!DOCTYPE svg PUBLIC "-//W3C//DTD SVG 1.1//EN" "http://www.w3.org/Graphics/SVG/1.1/DTD/svg11.dtd" >
<svg>
<metadata>
Created by FontForge 20120731 at Mon Oct 28 14:06:52 2019
 By www
Copyright Matthew Desmond, 2010. All rights reserved.
</metadata>
<defs>
<font id="CasinoHand" horiz-adv-x="481" >
  <font-face 
    font-family="CasinoHand"
    font-weight="400"
    font-stretch="normal"
    units-per-em="1000"
    panose-1="0 0 5 6 4 0 0 2 0 3"
    ascent="755"
    descent="-245"
    x-height="395"
    cap-height="642"
    bbox="-107.376 -314 983 911.571"
    underline-thickness="50"
    underline-position="-50"
    unicode-range="U+0020-FB04"
  />
<missing-glyph horiz-adv-x="260" 
 />
    <glyph glyph-name="AE" unicode="AE" horiz-adv-x="723" 
d="M696 184q0 -37 -34 -50q-23 -7 -104 -48.5t-120 -41.5q-30 0 -51 9q-35 20 -58.5 55t-31.5 67.5t-8 64.5q-33 -6 -71 -6q-39 0 -60 8q-83 -179 -118 -216q-16 -14 -41 -11q-14 3 -22 18.5t1 33.5q159 303 283 584q6 16 22 18.5t28 -1.5q32 -6 37 -43q0 -4 0.5 -8.5
t0.5 -6.5q36 -6 180 -15q102 -8 123 -13q19 -5 19 -21q0 -22 -28 -28q-70 -9 -130 -9q-12 0 -81.5 1.5t-76.5 -0.5q4 -60 4 -152q16 2 97 9.5t123 16.5q38 3 38 -21q0 -21 -41 -42q-19 -8 -111.5 -23t-103.5 -22q0 -30 2 -52.5t9.5 -53t26.5 -47t48 -16.5l232 86
q17 0 17 -24zM189 312q30 -4 46 -4q30 0 54 6v23q-2 37 -2 89.5t-1.5 77.5t-5.5 26q-5 1 -16.5 -26.5t-34.5 -89t-40 -102.5z" />
    <glyph glyph-name="ae" unicode="ae" horiz-adv-x="830" 
d="M816 111q0 -30 -47 -59.5t-91 -29.5q-53 0 -92 24.5t-61 58.5q-48 -30 -125 -30q-40 0 -76 22t-57 61q-5 -4 -20.5 -14.5t-21 -14.5t-18.5 -12.5t-21 -12t-20 -8t-23 -6t-23 -1.5q-39 0 -66.5 33.5t-27.5 75.5q0 40 16 84.5t53 84.5t87 50q31 6 58.5 2t45.5 -11l19 -8
q2 2 5.5 4.5t14.5 9.5t18.5 9.5t18 4.5t13.5 -5q10 -25 3 -57t-20.5 -82.5t-13.5 -69.5q0 -29 23.5 -48.5t47.5 -19.5q15 0 33.5 6t29.5 12l11 7q-13 57 -13 106q0 71 51 118.5t110 47.5q51 0 84.5 -31.5t33.5 -82.5q0 -99 -147 -181q46 -59 88 -59q25 0 51 22.5t41 22.5
q9 0 18.5 -6t9.5 -17zM677 332q0 16 -12 31t-33 15q-35 0 -54.5 -33.5t-19.5 -73.5q0 -44 12 -60q38 19 72.5 52.5t34.5 68.5zM274 332q-30 20 -64 20q-51 0 -77 -40.5t-26 -84.5q0 -20 14.5 -34t28.5 -14q41 0 78 39.5t46 113.5z" />
    <glyph glyph-name="OE" unicode="OE" horiz-adv-x="750" 
d="M343 603l5 10t13.5 15.5t20.5 9.5q8 0 18.5 -9t17.5 -17l6 -9q15 0 66.5 0.5t81.5 0.5q148 0 150 -28q1 -22 -26 -27q-87 -16 -281 -20q-8 -34 -12 -84t-5 -83v-34q45 0 104.5 11t102.5 29q19 7 41 4.5t23 -17.5q3 -21 -24 -40.5t-67 -31.5t-80.5 -21t-69.5 -13l-29 -4
q0 -7 0.5 -17.5t4 -38.5t9.5 -49.5t19 -39t30 -17.5q88 0 196 67q25 13 41 4.5t16 -25.5q0 -18 -16 -31q-55 -41 -131 -76.5t-136 -35.5q-63 0 -94 94q-29 -31 -70 -48.5t-83 -16.5q-48 1 -81.5 27t-49 69t-21.5 84t-6 87q6 243 89 367q14 21 45 21q35 -1 31 -47
q0 -13 -8 -22l7 1q6 0 15 -5.5t10 -11.5q87 -117 107 -150q11 125 20 168zM314 228q0 50 -25 104.5t-68.5 120t-58.5 95.5q-31 -77 -40 -138.5t-11 -160.5q-1 -56 23 -101t73 -46q50 -1 77.5 36.5t29.5 89.5z" />
    <glyph glyph-name="oe" unicode="oe" horiz-adv-x="689" 
d="M654 251q0 -52 -28 -80.5t-78 -28.5q-6 0 -41 5q36 -71 95 -85q3 -1 13.5 -3t16.5 -4t14.5 -5.5t12.5 -9.5t4 -13q0 -13 -20 -20.5t-38 -7.5q-58 0 -115 58.5t-75 114.5q-55 25 -98 60q-8 -93 -60 -155.5t-124 -62.5q-50 0 -78.5 39.5t-28.5 93.5t21 108t64 93t96 39
q31 0 57.5 -19.5t61.5 -50.5t75 -49q0 7 0.5 18t7 40t18.5 51t40 40t66 18q44 0 82.5 -56.5t38.5 -127.5zM579 265q0 34 -14 65t-28 31q-24 0 -39.5 -16.5t-19 -38t-5 -42.5t2.5 -29q25 -20 55 -20q48 0 48 50zM239 222q0 34 -15.5 65t-38.5 31q-24 0 -43.5 -29.5
t-28.5 -62.5t-9 -55q0 -91 31 -91q44 0 74 41t30 101z" />
    <glyph glyph-name="fj" unicode="fj" horiz-adv-x="558" 
d="M414 597q-1 -24 -12 -39t-28 -15q-35 0 -37 43q-2 52 -22.5 96t-46.5 44q-31 0 -50.5 -90.5t-19.5 -194.5q0 -29 3 -43q83 5 114 12q17 2 30.5 -5.5t9.5 -20.5q-3 -11 -27.5 -20t-63 -19.5t-57.5 -18.5q19 -275 20 -335q0 -15 -11 -26.5t-24 -9.5q-15 0 -27.5 13.5
t-14.5 29.5q-5 71 -19 316q-54 -13 -105 -13q-18 0 -29 11t-11 28q0 36 99 44l44 8q-4 21 -4 71q0 59 7 118t22 114t42 89t62 32q59 -1 108.5 -79t47.5 -140zM522 82q0 -9 -4.5 -17t-10.5 -12.5t-12 -8.5t-11 -6l-4 -2q3 -16 10.5 -49.5t12 -61.5t5.5 -55q2 -55 -24.5 -101
t-79.5 -47q-59 1 -100 55t-41 115q1 32 10.5 59t30.5 49t37 35t45 34q-1 10 -2.5 27.5t-4 64.5t-1.5 86q0 4 0.5 20.5t1 26t2.5 26t5.5 26.5t9 20.5t14.5 15.5t21 4q13 0 26 -8t12 -22q1 -21 -4.5 -70.5t-7.5 -75.5q-3 -85 7 -119l15 1q14 2 28 0t14 -10zM432 -133
q-4 47 -28 133q-73 -54 -73 -107q1 -36 24 -69t55 -29q25 2 22 72z" />
    <glyph glyph-name="f_f_j" unicode="ffj" horiz-adv-x="867" 
d="M784 520q-1 -22 -13.5 -36.5t-33.5 -13.5q-16 1 -30 15t-12 28q0 128 -19 176t-62 48q-33 0 -59.5 -51.5t-38.5 -119t-12 -130.5q32 4 85 4q26 0 26 -23q0 -18 -33 -33l-83 -23q-1 -68 3 -121q3 -53 17.5 -138.5t14.5 -98.5q1 -16 -11 -29.5t-29 -13.5q-6 0 -18 5
q-20 35 -32.5 93.5t-15.5 98.5t-6 104q-1 29 1 87q-100 -16 -215 -30q18 -256 19 -327q0 -15 -11 -26.5t-24 -9.5q-15 0 -27.5 13.5t-14.5 29.5q-6 80 -19 313q-41 -10 -105 -10q-18 0 -29 11t-11 28q0 36 99 44q4 1 16 2l28 4q-4 21 -4 71q0 58 7 117.5t22 115t42 90
t62 32.5q40 -1 74.5 -41t51.5 -89.5t16 -88.5q-1 -24 -12 -39t-28 -15q-33 0 -36 43q-9 140 -56 140q-31 0 -50.5 -90.5t-19.5 -194.5q0 -29 3 -43l225 25q-1 70 22.5 162.5t65 164t83.5 71.5q55 0 94 -31t56.5 -75.5t26.5 -88.5t10 -75v-31zM832 82q0 -14 -11 -25t-21 -16
l-11 -5q2 -12 10.5 -48.5t12.5 -63.5t5 -54q3 -54 -23.5 -100.5t-78.5 -47.5q-60 1 -102 55t-42 115q1 32 10.5 59t31 49t37 35t45.5 34q-1 10 -2.5 27.5t-3 64.5t-0.5 86v20.5t0.5 26t2 25.5t5.5 27t9 20.5t14 15.5t21 4q14 0 27.5 -8t11.5 -22q2 -21 -4.5 -71.5
t-7.5 -74.5q-8 -78 7 -119l15 1q14 2 28 0t14 -10zM741 -133q-2 37 -26 133q-29 -20 -51.5 -49t-22.5 -58q1 -35 24 -68.5t53 -29.5q26 2 23 72z" />
    <glyph glyph-name="fi" unicode="fi" horiz-adv-x="538" 
d="M414 597q-1 -24 -12 -39t-28 -15q-35 0 -37 43q-2 52 -22.5 96t-46.5 44q-31 0 -50.5 -90.5t-19.5 -194.5q0 -29 3 -43q83 5 114 12q17 2 30.5 -5.5t9.5 -20.5q-3 -11 -27.5 -20t-63 -19.5t-57.5 -18.5q19 -275 20 -335q0 -15 -11 -26.5t-24 -9.5q-15 0 -27.5 13.5
t-14.5 29.5q-5 71 -19 316q-54 -13 -105 -13q-18 0 -29 11t-11 28q0 36 99 44l44 8q-4 21 -4 71q0 59 7 118t22 114t42 89t62 32q59 -1 108.5 -79t47.5 -140zM497 48q10 -28 -20 -36q-12 -6 -23.5 -3t-16.5 14q-21 38 -33 93.5t-9 98.5q2 88 9 154q7 16 32 14q13 0 22 -8.5
t9 -22.5q-3 -39 -3 -82q0 -128 33 -222z" />
    <glyph glyph-name="fl" unicode="fl" horiz-adv-x="681" 
d="M454 257q0 111 3 169q-19 -36 -51.5 -63t-68.5 -41.5t-68.5 -21.5t-61.5 -7q3 -39 8 -98t8 -105.5t4 -98.5q0 -15 -11 -26.5t-24 -9.5q-15 0 -27.5 13.5t-14.5 29.5q-10 137 -19 295q-63 0 -105 6q-34 4 -34 39q0 24 22.5 31.5t70.5 5.5l44 -2q-4 19 -4 90q0 359 113 353
q39 -1 72.5 -37t49.5 -82.5t15 -85.5q-1 -25 -12 -40.5t-28 -15.5q-33 0 -36 44q-10 127 -52 127q-49 0 -49 -311q0 -35 3 -47q25 -3 63.5 5t81.5 26.5t73.5 58.5t30.5 92v8q0 85 -1 119q0 12 10 21.5t24 9.5q48 0 67.5 -46t-8.5 -113q-14 -171 -14 -218q0 -96 5 -153.5
t17.5 -82t25 -30.5t34.5 -4q11 1 23.5 14.5t19.5 13.5q9 1 12 -6.5t3 -17.5q0 -24 -26.5 -54t-62.5 -30q-32 0 -55 15t-36.5 39t-21 62t-10 74.5t-2.5 85.5z" />
    <glyph glyph-name="f_f_i" unicode="ffi" horiz-adv-x="838" 
d="M784 520q-1 -22 -13.5 -36.5t-33.5 -13.5q-16 1 -30 15t-12 28q0 128 -19 176t-62 48q-33 0 -59.5 -51.5t-38.5 -119t-12 -130.5q32 4 85 4q26 0 26 -23q0 -18 -33 -33l-83 -23q-1 -68 3 -121q3 -53 17.5 -138.5t14.5 -98.5q1 -16 -11 -29.5t-29 -13.5q-6 0 -18 5
q-20 35 -32.5 93.5t-15.5 98.5t-6 104q-1 29 1 87q-100 -16 -215 -30q18 -256 19 -327q0 -15 -11 -26.5t-24 -9.5q-15 0 -27.5 13.5t-14.5 29.5q-6 80 -19 313q-41 -10 -105 -10q-18 0 -29 11t-11 28q0 36 99 44q4 1 16 2l28 4q-4 21 -4 71q0 58 7 117.5t22 115t42 90
t62 32.5q40 -1 74.5 -41t51.5 -89.5t16 -88.5q-1 -24 -12 -39t-28 -15q-33 0 -36 43q-9 140 -56 140q-31 0 -50.5 -90.5t-19.5 -194.5q0 -29 3 -43l225 25q-1 70 22.5 162.5t65 164t83.5 71.5q55 0 94 -31t56.5 -75.5t26.5 -88.5t10 -75v-31zM796 48q7 -29 -21 -36
q-12 -6 -23.5 -3t-16.5 14q-21 38 -33 93t-10 99q2 84 12 145q1 9 11 16.5t19 6.5q13 0 22 -8.5t9 -22.5q-2 -52 -2 -82q0 -120 33 -222z" />
    <glyph glyph-name="f_f_l" unicode="ffl" horiz-adv-x="995" 
d="M441 412q-2 20 -2 98q0 66 3.5 119t14 112t34.5 91.5t59 31.5q40 -1 73.5 -37t50 -82.5t15.5 -86.5q-1 -24 -12.5 -39.5t-27.5 -15.5q-34 0 -36 44q-8 127 -53 127q-49 0 -49 -311q0 -36 2 -48q20 -1 49 3t65 17t66 33t50.5 54t20.5 77v6q0 86 -1 120q0 13 9.5 22t24.5 9
q47 0 66.5 -46t-9.5 -113q-14 -171 -14 -219q0 -94 5.5 -152t18.5 -82.5t25 -30.5t34 -5q11 1 23.5 14.5t19.5 14.5q9 1 13 -7t4 -17q0 -24 -27 -54.5t-62 -30.5q-40 0 -66 21.5t-38.5 63.5t-17 86.5t-4.5 106.5q0 109 3 170q-36 -69 -109.5 -101t-140.5 -33
q3 -41 7.5 -98.5t8 -105t5.5 -99.5q0 -15 -11.5 -27t-24.5 -10q-16 0 -28.5 13.5t-13.5 29.5q-16 224 -20 287q-121 0 -236 -14q18 -256 19 -327q0 -15 -11 -26.5t-24 -9.5q-15 0 -27.5 13.5t-14.5 29.5q-6 80 -19 313q-41 -10 -105 -10q-18 0 -29 11t-11 28q0 36 99 44
q4 1 16 2l28 4q-4 21 -4 71q0 58 7 117.5t22 115t42 90t62 32.5q40 -1 74.5 -41t51.5 -89.5t16 -88.5q-1 -24 -12 -39t-28 -15q-33 0 -36 43q-9 140 -56 140q-31 0 -50.5 -90.5t-19.5 -194.5q0 -29 3 -43q52 6 112 9.5t94 4.5h34z" />
    <glyph glyph-name=".notdef" horiz-adv-x="260" 
 />
    <glyph glyph-name=".null" horiz-adv-x="0" 
 />
    <glyph glyph-name="nonmarkingreturn" horiz-adv-x="333" 
 />
    <glyph glyph-name="space" unicode=" " horiz-adv-x="260" 
 />
    <glyph glyph-name="exclam" unicode="!" horiz-adv-x="264" 
d="M161 590q0 -16 2.5 -81t2.5 -101q0 -214 -32 -214q-25 0 -39 154t-14 294q0 19 9.5 30t19.5 11q25 0 38 -27t13 -66zM183 41q0 -16 -16 -28.5t-33 -12.5q-13 0 -32 21.5t-19 35.5q0 34 37 34q63 0 63 -50z" />
    <glyph glyph-name="quotedbl" unicode="&#x22;" horiz-adv-x="273" 
d="M111 385v-8v-9t-0.5 -9t-1 -10t-2 -8.5t-3.5 -8t-4.5 -5.5t-6.5 -4.5t-9 -1.5q-33 0 -33 69l-1 131q0 15 25 15q34 0 34 -50zM187 524q35 0 35 -105q0 -47 -6 -72q-4 -29 -27 -31q-9 -1 -14 8t-5 17l-1 161q0 22 18 22z" />
    <glyph glyph-name="numbersign" unicode="#" horiz-adv-x="655" 
d="M627 433q-1 -16 -11.5 -25t-26.5 -8q-106 0 -144 -10l-10 -120q15 1 64 1q34 0 47 -1q9 0 14 -7.5t5 -17.5q0 -52 -141 -56q0 -23 -9 -136q-1 -14 -1 -18t-2.5 -12.5t-9 -11t-16.5 -2.5q-55 5 -55 88q0 20 3 42t6 34l3 12l-100 -11q-3 -12 -3 -40q0 -35 -2 -91
q-1 -18 -8.5 -31t-24.5 -12q-59 1 -57 69q1 17 6.5 53.5t6.5 48.5q-8 0 -32 -1t-38 0q-18 1 -30.5 3.5t-23 13t-10.5 28.5q1 39 51 39q5 0 24 -1t32 -1q15 0 45 3l18 96q-45 -14 -69 -9q-17 1 -26.5 7t-8.5 20q1 16 7.5 26t19.5 15t24.5 7t32.5 4t34 4q6 24 16 95.5
t23 109.5q6 17 26 17q27 -1 34.5 -13t6.5 -39q-1 -59 -15 -150q16 4 36 7t32 4l13 2q5 23 12.5 85.5t8.5 70.5q13 41 43 40q35 -2 33 -50q-1 -21 -8.5 -68t-9.5 -68l80 2q41 0 66 -8q22 -7 19 -29zM371 386q-12 -1 -33.5 -5.5t-36.5 -8.5l-15 -4q-10 -13 -25 -111l95 8z" />
    <glyph glyph-name="dollar" unicode="$" horiz-adv-x="416" 
d="M375 221q-1 -31 -28 -50t-54 -23l-27 -4l11 -165q0 -7 -10 -13t-17 -6q-53 3 -53 65q10 92 13 112q-13 0 -35.5 -3t-33.5 -3q-21 0 -35.5 12.5t-14.5 33.5q0 12 8 26t20 14q6 0 13.5 -6t13.5 -8q14 -7 71 -7q91 0 91 29q0 13 -42 29t-92.5 31.5t-92 47t-40.5 71.5
q2 44 51.5 73t96.5 30q-4 33 -4 97q0 22 9.5 41.5t28.5 19.5q34 -1 34 -50l4 -105q6 -1 15 -4t24.5 -15t15.5 -28q0 -14 -5 -20q-28 -33 -82 -33q-16 0 -36 7.5t-21 7.5q-10 2 -25.5 -7.5t-15.5 -20.5q0 -22 38.5 -40t84.5 -31t84 -40.5t37 -64.5z" />
    <glyph glyph-name="percent" unicode="%" horiz-adv-x="592" 
d="M264 494q0 -45 -41.5 -82.5t-87.5 -37.5q-38 0 -66.5 30t-28.5 67q0 47 39.5 100.5t82.5 53.5q102 0 102 -131zM448 603q-137 -319 -302 -651q-4 -10 -18 -10q-31 0 -21 35q25 92 137 332.5t158 316.5q4 8 19 8q13 0 23 -9t4 -22zM552 137q0 -53 -46 -99t-98 -46
q-38 0 -65.5 32t-27.5 71q0 67 40.5 139t82.5 72q56 0 85 -51t29 -118zM214 525q0 35 -31 35q-27 0 -50 -29.5t-23 -55.5q0 -12 8 -21t20 -9q30 0 53 25.5t23 54.5zM499 166q0 27 -9 50t-28 24q-24 1 -42 -28.5t-25.5 -59.5t-7.5 -46q0 -15 10.5 -28.5t24.5 -13.5
q29 0 53 36t24 66z" />
    <glyph glyph-name="ampersand" unicode="&#x26;" horiz-adv-x="552" 
d="M511 57q0 -24 -12 -38.5t-34 -14.5q-30 0 -57.5 11t-43 22.5t-36.5 30.5q-74 -60 -127 -60q-55 0 -94.5 33.5t-39.5 86.5q0 79 66 152q-1 1 -6.5 10.5t-7.5 12t-7 12t-7 13.5t-6 13t-6 14.5t-5 14t-4 16t-2 16t-1 17.5q0 74 93.5 147t173.5 73q87 0 87 -67
q0 -44 -43 -108q-34 -50 -72 -97.5t-60 -70.5l-21 -22q35 -55 78 -90q10 7 40 35t58 49t47 21q21 0 21 -10q0 -19 -32.5 -64.5t-64.5 -76.5q35 -29 73 -37q3 -1 12 -3.5t13 -4t10.5 -5t9 -7t5 -10t2.5 -14.5zM331 507q9 18 1 29t-27 11q-52 0 -98.5 -39.5t-46.5 -92.5
q0 -14 8.5 -34t17.5 -33l8 -13q9 7 24 21t51.5 58.5t61.5 92.5zM261 123q-56 50 -80 93q-31 -26 -31 -72q0 -21 13.5 -36t32.5 -15q14 0 30.5 7.5t25.5 15.5z" />
    <glyph glyph-name="quotesingle" unicode="'" horiz-adv-x="195" 
d="M142 552q0 -30 -11.5 -74.5t-32.5 -44.5q-16 0 -25 12t-9 25l5 104q0 22 -8 51t-8 40q0 13 8 26.5t21 13.5q21 0 36 -32.5t19.5 -65t4.5 -55.5z" />
    <glyph glyph-name="parenleft" unicode="(" horiz-adv-x="349" 
d="M322 -87q0 -24 -23 -24q-65 0 -114.5 29t-77 78t-41 106t-13.5 120q0 50 4.5 102t17.5 116.5t34.5 116t58.5 93t86 56.5q24 3 32 -1q6 -5 8 -11.5t-3 -12.5q-163 -110 -163 -424q0 -256 171 -319q11 -4 17 -12t6 -13z" />
    <glyph glyph-name="parenright" unicode=")" horiz-adv-x="349" 
d="M26 684q0 11 7 18.5t16 7.5q66 0 115 -29t76.5 -78.5t40.5 -106t13 -120.5q0 -66 -8 -132.5t-27.5 -143.5t-61.5 -133.5t-102 -74.5q-23 -3 -32 1q-8 4 -9.5 11.5t4.5 11.5q164 109 164 424q0 256 -173 318q-23 11 -23 26z" />
    <glyph glyph-name="asterisk" unicode="*" horiz-adv-x="469" 
d="M428 390q0 -23 -18 -29q-21 -7 -46 -7q-46 0 -101 33q-3 -20 8.5 -49.5t10.5 -47.5q0 -11 -7.5 -17.5t-19.5 -5.5q-26 0 -42 56q-16 35 -17 50q-12 -7 -27.5 -32.5t-31 -44.5t-33.5 -16q-12 1 -20 13.5t-6 24.5q4 25 19.5 48t40.5 48t33 36q-12 11 -37.5 31t-32.5 26
q-5 3 -15 10.5t-14.5 11t-12 10t-11 11t-6 10.5t-2.5 12q1 13 10 21t20 8q20 0 40 -16t40 -38.5t32 -29.5q3 19 3 56q0 10 -1 41t0 50q0 5 6.5 11t13.5 5q28 0 33 -50q2 -13 3.5 -43t4.5 -43q3 3 21.5 28t34 39t30.5 14q9 0 16 -9.5t7 -21.5q-1 -26 -43 -71.5t-47 -66.5
q14 -16 35 -25.5t32.5 -12t46 -5.5t39.5 -3q11 -3 11 -20z" />
    <glyph glyph-name="plus" unicode="+" horiz-adv-x="445" 
d="M417 307q-2 -18 -33 -26t-71.5 -10.5t-48.5 -5.5l5 -155q-2 -24 -9.5 -33.5t-33.5 -9.5q-15 1 -25 11.5t-12 25.5q-4 25 -5.5 48t-2.5 53.5t-2 51.5q-17 -6 -59.5 -9t-57.5 -1q-36 6 -36 37q0 19 16 30.5t36 15.5l105 5q-1 88 2 122q7 46 42 41q43 -4 39 -66l-8 -94
q14 -2 63.5 0t64.5 -1q13 -1 22.5 -8.5t8.5 -21.5z" />
    <glyph glyph-name="comma" unicode="," horiz-adv-x="256" 
d="M203 4q0 -44 -23.5 -96.5t-63.5 -52.5q-12 0 -23.5 10t-11.5 22q0 4 6 18q54 54 54 95q0 25 -13.5 38.5t-30.5 16t-30.5 12.5t-13.5 28q0 36 49 36q47 0 74 -38.5t27 -88.5z" />
    <glyph glyph-name="hyphen" unicode="-" horiz-adv-x="362" 
d="M295 298q0 -32 -38 -35q-23 1 -65 -8.5t-62 -9.5q-26 0 -44.5 13.5t-18.5 35.5q0 36 30 36l135 12q63 0 63 -44z" />
    <glyph glyph-name="period" unicode="." horiz-adv-x="218" 
d="M166 56q0 -24 -14 -40t-36 -16q-27 0 -45 21t-18 48q0 24 13 44t36 20q27 0 45.5 -25t18.5 -52z" />
    <glyph glyph-name="slash" unicode="/" horiz-adv-x="377" 
d="M337 651q0 -14 -7.5 -41.5t-16 -51t-20 -54t-14.5 -37.5q-26 -62 -88 -233t-102 -259q-7 -16 -25 -16q-27 0 -23 40q21 117 106 355q69 193 132 324q7 12 16 12q16 0 29 -12.5t13 -26.5z" />
    <glyph glyph-name="zero" unicode="0" horiz-adv-x="461" 
d="M433 318q3 -71 -18.5 -144t-73 -128.5t-120.5 -57.5q-82 -2 -136 68t-58 161q-5 140 121 321q78 115 126 116q22 1 34.5 -12t9.5 -34q0 -8 -2.5 -18t-5.5 -16l-2 -5q48 -18 84 -90t41 -161zM359 305q-3 72 -30.5 129.5t-85.5 76.5q-55 -52 -95.5 -132t-39.5 -153
q2 -63 30 -115.5t80 -51.5q40 1 69.5 26.5t44.5 64t21.5 78t5.5 77.5z" />
    <glyph glyph-name="one" unicode="1" horiz-adv-x="261" 
d="M179 50q2 -27 -11.5 -42.5t-32.5 -15.5q-37 0 -46 33q-8 45 -8 193q0 268 36 391q4 17 27 17q11 0 19 -7t7 -17q-9 -98 -9 -189q0 -119 18 -363z" />
    <glyph glyph-name="two" unicode="2" horiz-adv-x="476" 
d="M516 85q-4 -55 -113 -73q-46 -12 -153 -12q-102 0 -146 9q-30 6 -30 34q1 22 33 66q4 7 24.5 39t28 44t26.5 42.5t28 47l24 44t22.5 46t16 40.5t12 40.5t3.5 34.5q0 36 -20 60t-55 24q-18 0 -38 -9t-33 -18t-38.5 -30t-36.5 -29q-9 -5 -20 -5q-10 0 -20 12t-10 27
q0 11 6 23q37 46 93.5 78t108.5 31q142 -6 142 -149q0 -75 -72 -211q-19 -37 -59 -105.5t-58 -101.5q35 -4 79 -4q37 0 73.5 3.5t88 11t66.5 9.5q10 1 18.5 -5t8.5 -14z" />
    <glyph glyph-name="three" unicode="3" horiz-adv-x="484" 
d="M443 176q0 -27 -12.5 -50.5t-35 -41t-47 -30.5t-58.5 -24t-58.5 -17.5t-57.5 -13.5q-38 -12 -63 -11q-10 0 -19 10t-10 26q-2 36 38 45q2 0 24 5t37.5 9t41.5 11t44.5 15t37 18t28.5 22.5t10 26.5q0 24 -29 43t-64 29.5t-64 28t-28 39.5q0 21 23 50t49.5 54.5t49.5 60.5
t23 67q0 22 -29 25q-28 0 -57 -13t-64 -35.5t-51 -30.5q-12 -9 -27 -3q-35 14 -34 55q0 20 17 28q112 91 211 90q48 -1 83 -23.5t34 -72.5q-1 -55 -43 -118t-100 -114q14 -6 52 -21t57 -24.5t44 -26t36 -38.5t11 -50z" />
    <glyph glyph-name="four" unicode="4" horiz-adv-x="462" 
d="M414 582q-43 -242 -43 -457q0 -90 7 -163q3 -13 -9 -22.5t-29 -9.5q-31 0 -38 27q-21 68 -21 162q0 49 3 98q-22 -3 -42 -3q-99 0 -157.5 70.5t-58.5 177.5q0 43 10 99t27 86q8 18 29 18q50 0 40 -57q-14 -76 -14 -141q0 -77 29.5 -121.5t92.5 -44.5q21 0 51 6
q27 224 45 301q2 8 10 15t19 7q22 0 37.5 -12.5t11.5 -35.5z" />
    <glyph glyph-name="five" unicode="5" horiz-adv-x="436" 
d="M462 594q0 -22 -36 -34q-51 -14 -119.5 -23.5t-123.5 -28.5q-60 -18 -60 -98q0 -24 15.5 -44.5t38 -33.5t49.5 -29t49.5 -31.5t38 -41.5t15.5 -59q0 -67 -60.5 -117t-139.5 -69q-21 -5 -36 13.5t-15 46.5q0 32 24 22q19 -8 26 -8q36 0 79.5 38.5t43.5 76.5q0 19 -21.5 37
t-52.5 34.5t-62.5 36t-53 50t-21.5 68.5q0 95 49 139.5t145 56.5q90 13 203 22q13 0 19 -7.5t6 -16.5z" />
    <glyph glyph-name="six" unicode="6" horiz-adv-x="462" 
d="M436 149q0 -76 -43.5 -125t-113.5 -49q-107 0 -171.5 75.5t-66.5 189.5q-3 283 197 416q9 9 27 7q16 -4 29 -15t13 -25q0 -15 -17 -26q-80 -53 -119.5 -141t-37.5 -176q54 27 110 27q75 0 134 -44t59 -114zM364 133q0 53 -33.5 75t-83.5 22q-29 0 -56.5 -8t-40.5 -16
l-13 -9q7 -69 49 -109t84 -40t68 21.5t26 63.5z" />
    <glyph glyph-name="seven" unicode="7" horiz-adv-x="435" 
d="M395 538q0 -33 -49 -180t-60 -198q-4 -18 -9 -57.5t-10 -61.5q-8 -44 -60 -32q-32 7 -24 79q10 82 56 220.5t55 211.5q-50 7 -85.5 10t-92 5t-79.5 3q-37 7 -36 57q1 16 10.5 26.5t24.5 9.5q184 -7 311 -39q48 -11 48 -54z" />
    <glyph glyph-name="eight" unicode="8" horiz-adv-x="444" 
d="M244 632q79 0 129 -28.5t43 -72.5q-8 -48 -46 -117.5t-72 -114.5l-33 -45q5 -5 13.5 -13t30.5 -32t39 -46t30.5 -48.5t13.5 -45.5q0 -51 -46.5 -88.5t-101.5 -37.5q-60 0 -95.5 41t-35.5 101q0 71 41 155q-128 105 -128 196q0 72 67 134t151 62zM316 516q0 16 -17.5 27
t-47.5 11q-60 0 -97 -38t-37 -93q0 -14 4.5 -27.5t15 -27.5t18.5 -22.5t22.5 -23.5t19.5 -20q117 145 119 214zM307 80q0 8 -5 18t-17.5 25t-19.5 23t-24 26t-19 20q-32 -37 -32 -104q0 -20 18 -44.5t42 -24.5q23 0 40 19.5t17 41.5z" />
    <glyph glyph-name="nine" unicode="9" horiz-adv-x="424" 
d="M210 634q30 -1 57 -6t53.5 -15.5t40.5 -31t10 -49.5q-24 -154 -24 -322l1 -175v-49q0 -9 -17 -15.5t-28 -5.5q-16 0 -26.5 17t-11.5 35q-1 20 -1 71t-1.5 97t-5.5 86q-47 -29 -93 -29q-60 1 -101.5 62t-40.5 131q1 81 56.5 140.5t131.5 58.5zM279 507q0 22 -13.5 36.5
t-39.5 15.5q-48 0 -81 -29t-34 -94q-1 -53 17.5 -83.5t41.5 -32.5q58 -1 82.5 45.5t26.5 141.5z" />
    <glyph glyph-name="colon" unicode=":" horiz-adv-x="222" 
d="M158 351q0 -27 -17 -41.5t-45 -14.5q-17 0 -30 9t-13 26q0 10 8 24q5 13 7.5 18.5t8 12.5t13.5 9t20 2q19 0 33.5 -13.5t14.5 -31.5zM169 57q0 -24 -16.5 -40.5t-41.5 -16.5q-49 0 -49 58q0 22 19.5 36.5t42.5 14.5q45 0 45 -52z" />
    <glyph glyph-name="semicolon" unicode=";" horiz-adv-x="245" 
d="M168 360q0 -22 -20 -41.5t-41 -19.5q-26 0 -40 21t-14 48q0 51 51 51q24 0 44 -17t20 -42zM192 14q0 -40 -23.5 -96t-58.5 -56q-40 0 -40 40q0 14 23.5 54t23.5 69q0 20 -25 39t-25 38q0 15 10.5 24t26.5 9q37 0 62.5 -41t25.5 -80z" />
    <glyph glyph-name="less" unicode="&#x3c;" horiz-adv-x="373" 
d="M323 571q0 -18 -29 -54t-76 -94.5t-77 -111.5q139 -187 183 -241q9 -9 7 -25q-3 -22 -30 -22q-18 0 -82.5 57.5t-121.5 124.5t-57 90q0 27 47.5 105t107.5 146.5t89 68.5q18 0 28.5 -12.5t10.5 -31.5z" />
    <glyph glyph-name="equal" unicode="=" horiz-adv-x="401" 
d="M348 399q1 -15 -4 -22.5t-20 -14.5q-40 -15 -116 -28.5t-101 -13.5q-21 0 -37.5 9.5t-16.5 28.5q0 26 28 34q43 14 116.5 23t110.5 9q34 0 40 -25zM336 252q0 -21 -29 -30q-74 -27 -178 -48q-19 -3 -38.5 9t-19.5 31q0 23 30 31q36 12 99 18.5t99 6.5q37 0 37 -18z" />
    <glyph glyph-name="greater" unicode="&#x3e;" horiz-adv-x="373" 
d="M49 67q0 18 29 54t76.5 94.5t77.5 112.5l-184 240q-9 8 -7 24q4 23 30 23q30 0 145.5 -118.5t115.5 -154.5q0 -26 -47.5 -103.5t-107.5 -146.5t-89 -69q-18 0 -28.5 12.5t-10.5 31.5z" />
    <glyph glyph-name="question" unicode="?" horiz-adv-x="315" 
d="M263 594q0 -45 -45 -152t-45 -143q0 -7 5.5 -14t11.5 -7t15 10t17 10q17 0 15 -24q-5 -29 -29.5 -53t-47.5 -24q-29 0 -44 24t-15 56q0 55 46.5 164t46.5 148q0 20 -23 20q-20 0 -43.5 -18.5t-44 -37.5t-32.5 -19q-10 0 -17.5 10.5t-7.5 23.5q0 40 54 81t97 41
q86 0 86 -96zM197 39q0 -16 -13.5 -27.5t-29.5 -11.5q-20 0 -32 17t-12 39q0 19 11 36.5t29 17.5q47 0 47 -71z" />
    <glyph glyph-name="at" unicode="@" horiz-adv-x="617" 
d="M578 342q0 -66 -46 -122t-110 -56q-12 0 -25 7t-21 13l-7 7q-31 -22 -64 -22q-46 0 -70 31.5t-24 73.5q0 43 37 80t81 37q32 0 53 -5.5t29.5 -15t11 -18t0.5 -17.5q-1 -6 -6.5 -23.5t-8 -28.5t-2.5 -25.5t6 -23.5q10 -18 39 -3q43 22 55 85q4 18 4 38q0 58 -57.5 118
t-124.5 60q-62 0 -111.5 -49t-74 -118t-24.5 -140q0 -81 39.5 -146.5t110.5 -65.5q29 0 72.5 19.5t59.5 11.5q15 -6 15 -22q0 -28 -33.5 -47.5t-68.5 -26t-64 -6.5q-88 0 -148.5 89.5t-60.5 193.5q0 94 35 177t104 136.5t157 53.5q91 0 166.5 -79t75.5 -171zM360 342
q-40 9 -66.5 -17.5t-26.5 -70.5q0 -14 7.5 -23.5t20.5 -9.5q65 0 65 121z" />
    <glyph glyph-name="A" unicode="A" horiz-adv-x="476" 
d="M439 -2q6 -17 -6 -30t-31 -13q-12 0 -26 18t-25.5 44t-23.5 59t-19.5 59.5t-14 49.5t-7.5 25l-132 -15q-30 -150 -57 -193q-4 -6 -9.5 -9t-9.5 -3t-10 0.5t-7 0.5q-15 0 -26.5 10t-6.5 27l52 161q-3 -1 -7.5 -1.5t-15.5 -1.5t-20 1t-16 9t-7 19q0 19 20.5 31.5t41.5 15.5
l20 2q54 295 76 378q9 34 43 34q28 0 42 -42q12 -32 50 -176t44 -166q31 2 61 2q44 0 47 -5q4 -7 -3 -19q-8 -10 -31 -21t-41 -17l-19 -6q43 -146 74 -228zM169 274l101 10q-17 61 -35 152t-21 113q-16 -121 -45 -275z" />
    <glyph glyph-name="B" unicode="B" horiz-adv-x="572" 
d="M552 448q0 -22 -10 -41t-22 -31t-36.5 -24t-38.5 -17.5t-43.5 -15t-37.5 -12.5q65 -2 121.5 -30t56.5 -74q0 -24 -10 -45t-31.5 -37.5t-43 -30t-56.5 -24.5t-59.5 -18.5t-64 -14.5t-58 -10.5t-54.5 -8.5t-41 -6q-12 -1 -22 7t-11 23q-3 37 -3 123q0 87 -0.5 130t-7.5 113
t-21 115q-33 9 -55.5 34.5t-15.5 47.5q4 9 17 11t24 -1l11 -3q0 9 1 22q1 10 10 17t19 6q16 -4 29.5 -20.5t18.5 -30.5l5 -15q16 -4 71 -7t112 -8.5t115 -17.5t94.5 -39t36.5 -67zM467 450q0 19 -28 31.5t-83 17.5t-98 6.5t-109 1.5q22 -99 25 -178q3 1 10 2q27 5 46 9.5
l57 13.5t65 18.5t56 21.5t44 26.5t15 29.5zM461 202q0 49 -212 49l-75 -1q-1 -130 -3 -162q41 -8 165.5 31t124.5 83z" />
    <glyph glyph-name="C" unicode="C" horiz-adv-x="422" 
d="M399 130q7 -12 -1.5 -31.5t-29.5 -40t-49 -39t-64.5 -30.5t-72.5 -13q-71 -2 -109 52t-41 130q-2 44 5.5 121t24.5 164.5t52.5 152t81.5 66.5q38 1 77 -57t61.5 -127t24.5 -113q2 -45 -37 -45q-30 -4 -40 22q-33 217 -85 216q-33 -1 -54.5 -80.5t-27.5 -154t-4 -112.5
q1 -23 2 -36t6 -39t13 -40.5t24 -26.5t38 -11q30 1 61 12.5t51.5 25t42 26t31 15.5t19.5 -7z" />
    <glyph glyph-name="D" unicode="D" horiz-adv-x="626" 
d="M597 306q-1 -57 -33 -101.5t-86.5 -74t-107.5 -49t-117 -41t-95 -36.5q-20 -7 -33 -4q-14 5 -17 27q-34 236 -34 392q0 43 1 63q0 20 7 73q-11 1 -20.5 1.5t-18 1.5t-22.5 5q-15 4 -23 20t-1 34q8 41 60 26q42 -10 78.5 -19.5t94.5 -27.5t105 -37t98 -47t85.5 -57.5
t57 -68.5t21.5 -80zM506 311q1 39 -27 74.5t-68 59.5t-93.5 44.5t-90.5 30.5t-71 17q-6 -31 -8 -66q-1 -15 -1 -52q0 -145 30 -303q14 4 54.5 13.5t71 17.5t71 23.5t67 33t46 45.5t19.5 62z" />
    <glyph glyph-name="E" unicode="E" horiz-adv-x="510" 
d="M483 576q1 -21 -25 -27q-88 -16 -282 -20q-8 -34 -12 -84t-4 -83l-1 -34q44 0 104 11t105 29q18 7 39.5 4.5t24.5 -17.5q2 -21 -25 -40.5t-67.5 -31.5t-81 -21t-69.5 -13l-29 -4q0 -7 0.5 -17.5t4 -38.5t9.5 -49.5t19 -39t30 -17.5q86 0 198 67q24 13 40 4.5t16 -25.5
q0 -15 -16 -31q-58 -42 -133.5 -77t-135.5 -35q-33 0 -57.5 28t-36 71t-17 83t-5.5 76q0 173 19 280q-5 0 -17 -1.5t-22.5 -2t-17.5 -0.5q-19 0 -32 11.5t-13 29.5q0 43 54 43l58 -1l5 10t13 15.5t21 9.5q8 0 18 -9t16 -17l7 -9q15 0 67 0.5t82 0.5q148 0 149 -28z" />
    <glyph glyph-name="F" unicode="F" horiz-adv-x="439" 
d="M477 594q8 -29 -42 -46q-4 -1 -42 -12t-77.5 -22t-86.5 -22.5t-74 -16.5l9 -158q68 6 118 23q36 9 54 9q32 0 35 -23q1 -13 -19 -28.5t-49.5 -28.5t-59.5 -24t-51 -17l-21 -6q1 -17 2.5 -40t4 -80.5t-0.5 -64.5q0 -20 -7.5 -29.5t-28.5 -9.5q-33 4 -43 39q-2 14 -7 122.5
t-9 209.5l-4 101q-6 2 -14.5 5.5t-23 17t-14.5 29.5q2 10 12.5 20.5t20.5 15.5l10 5l-1 59q0 44 40 44q42 0 42 -37l4 -63q132 11 272 38q50 9 51 -10z" />
    <glyph glyph-name="G" unicode="G" horiz-adv-x="559" 
d="M267 312q213 41 275 39q31 0 36 -20q4 -17 -28 -28q-13 -7 -37 -15.5t-41 -13.5l-18 -6q2 -33 14 -138t12 -152q0 -36 -36 -40q-15 -1 -23.5 4t-16.5 21q-18 53 -22 95q-46 -46 -116 -46q-65 0 -118.5 44t-80.5 106t-27 124q0 56 14 116.5t41 118t76 94.5t111 37
q69 0 105 -46.5t36 -120.5q0 -46 -32 -46q-35 0 -44 39q-3 10 -7.5 32.5t-8 34.5t-14.5 23t-29 11q-54 0 -95 -52t-58 -113t-17 -111q0 -48 14 -92t49 -77t85 -33q33 0 69 20.5t36 47.5l-6 78q-85 -19 -109 -19q-51 0 -51 30q0 22 13 35t49 19z" />
    <glyph glyph-name="H" unicode="H" horiz-adv-x="449" 
d="M463 289q0 -18 -26 -34.5t-52 -24.5l-26 -7q17 -149 17 -191q0 -16 -0.5 -22.5t-3 -16.5t-8.5 -13.5t-17 -3.5q-28 0 -46.5 60t-22.5 120l-4 60l-129 -6q15 -175 15 -225q0 -21 -1 -30t-10 -17.5t-27 -8.5q-23 0 -30 14q-36 65 -36 307v65q0 229 26 339q5 24 34 24
q20 0 32.5 -10t11.5 -30q-16 -243 -16 -291q0 -42 1 -63q95 0 125 6q-1 18 -1 75q0 139 11 284q1 20 40 20q22 0 31.5 -7.5t8.5 -29.5q-9 -144 -9 -250q0 -48 3 -84q10 0 40 4.5t44 4.5q25 0 25 -18z" />
    <glyph glyph-name="I" unicode="I" horiz-adv-x="218" 
d="M161 59q1 -23 -13.5 -36t-28.5 -10q-18 1 -28 15t-11 34q-14 209 -22 535q-1 43 40 45q36 2 39 -26q8 -112 24 -557z" />
    <glyph glyph-name="J" unicode="J" horiz-adv-x="416" 
d="M65 12q64 0 102 62.5t38 163.5q0 67 -9 133.5t-15.5 92.5t-24.5 91q-3 11 -4 16q-25 -1 -38 -3.5t-34.5 -9.5t-35.5 -11h-9q-16 1 -25.5 16t-8.5 31q0 15 7 16q112 35 257 35q75 0 112 -10q7 -2 10.5 -12.5t-0.5 -14.5q-6 -8 -13.5 -12.5t-22.5 -6.5t-26.5 -3t-38 -2.5
t-44.5 -2.5q18 -67 25 -97.5t16 -104.5t7 -152q-6 -137 -66 -219.5t-136 -82.5q-20 0 -48 10q-27 11 -34.5 51.5t10.5 53.5q5 4 12 -2.5t17 -16t20 -9.5z" />
    <glyph glyph-name="K" unicode="K" horiz-adv-x="550" 
d="M616 176q6 -32 -63.5 -55t-138.5 -23q-62 0 -95.5 1.5t-84 13t-88.5 33.5q0 -48 23 -139.5t26 -108.5q5 -24 -3 -40t-28 -16q-15 0 -24 5t-11.5 9t-6.5 14q-21 52 -44 166t-29 209q-1 21 -1 66q0 195 30 356q2 11 14 17.5t21 6.5q12 0 23 -9t10 -20q-17 -130 -17 -249
q0 -69 4 -124q37 28 81.5 74t108 119t68.5 79q10 12 32 9q18 -4 25 -20.5t-4 -29.5q-117 -146 -243 -275q18 -32 70.5 -48.5t89.5 -18.5t95 -2q18 0 61.5 6.5t70 6.5t28.5 -13z" />
    <glyph glyph-name="L" unicode="L" horiz-adv-x="459" 
d="M470 161q10 -25 -35 -44q-148 -64 -316 -85q-24 -3 -36.5 7.5t-13.5 27.5q-13 179 -13 316q0 125 8 240q1 15 14 23t29 8q25 0 33.5 -11t7.5 -35q-6 -168 -6 -257q0 -125 10 -222q103 10 264 48q46 12 54 -16z" />
    <glyph glyph-name="M" unicode="M" horiz-adv-x="730" 
d="M695 48q8 -35 -32 -35q-49 -1 -61 54q-18 75 -28 175.5t-14.5 157.5t-11.5 57q-12 0 -50 -142.5t-60 -255.5q-1 -9 -4.5 -15t-6.5 -9.5t-9 -5t-8 -1.5h-9.5h-8.5q-16 0 -30 11.5t-15 28.5q-2 33 -4.5 96.5t-5 116t-6 104.5t-9 81.5t-12.5 28.5q-8 0 -29 -85.5t-51 -206.5
t-53 -179q-7 -16 -15 -21.5t-25 -5.5q-31 0 -41 26q-38 127 -40 326q-2 23 3.5 131t10.5 121q8 14 35 16q19 0 32 -12.5t12 -31.5q-1 -17 -8 -99.5t-6 -114.5q0 -106 15 -168q18 59 56 201t63 213q20 61 60 62q17 0 32 -13t17 -32q36 -197 38 -366q21 52 54.5 176t66.5 183
q9 19 35 19q17 0 32 -13t17 -31q11 -271 74 -542z" />
    <glyph glyph-name="N" unicode="N" horiz-adv-x="524" 
d="M468 356q-2 -45 -6 -89.5t-15 -109.5t-33.5 -105t-53.5 -40q-32 0 -85.5 90t-90.5 176t-52 130q-2 -44 -2 -68q0 -71 10 -185t8 -131q-4 -31 -40 -36q-13 0 -26.5 9t-14.5 22q-10 140 -10 346q0 178 14 203q17 17 33 17q22 2 28 -13q11 -18 26 -48.5t30.5 -64.5
t33.5 -73.5t34 -76t32 -70.5l28 -59.5t21 -40.5t13 -15q16 1 26.5 68.5t10.5 161.5q0 136 -23 235q-3 25 5.5 43t26.5 19q21 1 33 -14t19 -38q9 -38 14.5 -119.5t5.5 -123.5z" />
    <glyph glyph-name="O" unicode="O" horiz-adv-x="438" 
d="M411 191q-2 -78 -69.5 -134.5t-146.5 -54.5q-48 2 -81 29t-48 70.5t-20.5 85t-4.5 87.5q13 247 93 364q15 24 48 24q33 -6 31 -51q0 -10 -10 -22l3 1h4q6 0 15 -5.5t10 -12.5q53 -69 85 -117t62.5 -124t28.5 -140zM328 215q1 50 -24 105.5t-66.5 120.5t-55.5 96
q-34 -77 -43.5 -136.5t-13.5 -162.5q-2 -55 21 -101t71 -48q51 -1 79.5 36t31.5 90z" />
    <glyph glyph-name="P" unicode="P" horiz-adv-x="530" 
d="M516 476q1 -31 -10 -59.5t-29 -49.5t-46 -40.5t-54 -32.5t-60 -25.5t-57 -19.5t-51.5 -15.5t-38.5 -11.5q0 -6 24 -221q3 -30 -8 -46t-37 -14q-19 0 -32 13.5t-13 36.5q-1 28 -10.5 116t-10.5 103q-4 1 -13.5 3t-13 3t-9 3.5t-8 6t-3.5 9.5q-5 18 44 49q-10 130 -23 339
q-1 25 8.5 38t30.5 10q37 -1 100.5 -14t137 -35.5t127 -61.5t55.5 -84zM433 464q1 20 -29.5 40.5t-77.5 36t-93 27t-86 17.5q0 -39 2 -84.5t6 -105.5t6 -92q21 5 44.5 11t67 21t75.5 32t58 43t27 54z" />
    <glyph glyph-name="Q" unicode="Q" horiz-adv-x="504" 
d="M544 -63q0 -22 -35 -33.5t-65 -11.5q-50 0 -96 32.5t-62 78.5q-51 -18 -78 -18q-85 0 -126.5 66t-41.5 154q0 108 38 208t107 209q1 2 6.5 10.5t8 12t9 11.5t10.5 12t10.5 10t12 9t12 5.5t13.5 2.5q14 0 27 -8t13 -22q0 -7 -35 -59.5t-45 -62.5q47 15 67 15
q45 0 77.5 -23t48.5 -61.5t23 -76.5t7 -79q0 -90 -17 -152t-73 -102q2 -13 6 -24t12 -20t14 -15.5t18.5 -12.5t19 -9.5t22.5 -7.5l22 -5.5t24 -5.5t22 -5q24 -6 24 -22zM387 336q0 28 -8.5 62.5t-30 65t-49.5 30.5q-18 0 -37.5 -15.5t-33.5 -28.5t-21 -10l-22 10
q-62 -134 -62 -220q0 -54 23 -105t70 -51q20 0 29.5 7.5t10.5 16.5t5.5 17t15.5 10q46 11 71.5 46t32 72.5t6.5 92.5z" />
    <glyph glyph-name="R" unicode="R" horiz-adv-x="529" 
d="M529 37q-2 -7 -6 -12.5t-11.5 -8.5t-13.5 -5t-16.5 -2.5t-15.5 -0.5h-15.5h-11.5q-136 9 -284 171q-2 -13 0.5 -66.5t-1.5 -65.5q-13 -43 -41 -43q-24 4 -33.5 13.5t-11.5 35.5q-7 101 -8 305t-4 276q-3 16 19 21.5t38 0.5q69 -9 168 -53t159 -96q49 -41 43 -104
q-1 -44 -51 -75t-127.5 -56.5t-94.5 -34.5q41 -38 63 -57t62 -48.5t81 -46t86 -23.5q27 0 27 -25zM400 422q0 40 -86.5 87.5t-167.5 63.5q-4 -96 -4 -124q0 -29 4 -159q24 12 94.5 32.5t115 43.5t44.5 56z" />
    <glyph glyph-name="S" unicode="S" horiz-adv-x="402" 
d="M376 182q0 -98 -46.5 -151t-128.5 -53q-80 0 -127 54t-47 126q0 26 12 60q5 26 31 26q15 0 23.5 -14t8.5 -33q0 -50 27 -93t75 -43q40 0 65.5 32.5t25.5 88.5q0 33 -26.5 66t-63.5 62t-74.5 59.5t-64 70t-26.5 81.5q0 58 28 102t86 44q76 0 132 -62q20 -23 20 -60
q0 -48 -27 -63l-6 -2q-6 -2 -10 -2.5t-9.5 -0.5t-10.5 2.5t-9 7.5q-5 9 -4 15t4 13l4 7q0 31 -19 53t-53 22q-25 0 -39 -22.5t-14 -44.5q0 -31 27 -63t65.5 -61.5t77.5 -61.5t66 -74t27 -88z" />
    <glyph glyph-name="T" unicode="T" horiz-adv-x="499" 
d="M550 590q6 -28 -96 -60t-193 -42q0 -45 1.5 -90.5t5.5 -101t6.5 -86t9 -100t8.5 -89.5q2 -38 -26 -38q-37 0 -41 29q-16 74 -26 156t-13.5 140t-9.5 170l-133 -9q-15 0 -24.5 0.5t-22 3.5t-19.5 8.5t-12 16.5t-5 26q0 45 53 45l168 -1q0 11 1 40q1 18 1.5 27.5t4 25.5
t12.5 24t22 8q7 0 13 -2t10 -5t6.5 -8.5t4 -9.5t2 -12t0.5 -11v-11.5v-10.5l3 -55q118 0 241 36q43 15 48 -14z" />
    <glyph glyph-name="U" unicode="U" horiz-adv-x="550" 
d="M585 39q-1 -34 -24.5 -54.5t-58.5 -19.5q-57 2 -87.5 42.5t-38.5 103.5q-58 -119 -151 -119q-68 0 -111 41.5t-55 112.5q-11 59 -11 161q0 89 16 284q2 17 13.5 23.5t20.5 6.5q16 0 29.5 -11.5t10.5 -27.5q-8 -78 -8 -234q0 -138 12 -186q7 -31 27.5 -55t55.5 -24
q43 0 75 41t45.5 93t13.5 103q0 56 3 248q2 31 9 45t28 14q22 0 35.5 -18.5t12.5 -49.5q-3 -107 -3 -194q0 -163 14.5 -242t54.5 -79q13 0 29 9t28 9q15 0 15 -23z" />
    <glyph glyph-name="V" unicode="V" horiz-adv-x="454" 
d="M439 616q-21 -109 -50 -220t-50.5 -182.5t-67.5 -214.5q-5 -27 -32 -27q-39 -4 -50 27q-57 126 -113 300t-68 290q-2 41 32 48q40 0 45 -46q17 -121 60.5 -251t81.5 -208q76 215 145 502q8 34 38 34q19 2 26 -17t3 -35z" />
    <glyph glyph-name="W" unicode="W" horiz-adv-x="605" 
d="M565 386q-1 -6 -4 -61.5t-8 -104t-15.5 -105t-30.5 -89t-48 -30.5q-56 5 -98 126q-3 14 -17 70.5t-22 89.5q-35 -131 -48 -171q-48 -148 -98 -146q-69 5 -112 338q-23 172 -19 257q0 26 30 26q31 -2 35 -36q26 -184 35 -232q9 -65 23 -131t24 -67q11 -1 36 93.5t46 203.5
t25 157q3 21 31 21q20 0 25 -23q9 -99 40 -274.5t54 -179.5q14 0 28 92t20 167q2 42 2 124q0 90 -2 154q0 20 24 23q7 1 15 -4t9 -11q23 -66 23 -186q0 -10 -3 -91z" />
    <glyph glyph-name="X" unicode="X" horiz-adv-x="508" 
d="M425 70q18 -16 18 -42q0 -25 -32 -25q-28 0 -51.5 15.5t-41.5 42.5t-31.5 54t-29.5 60.5t-28 51.5q-10 -19 -34 -56.5t-39.5 -69t-22.5 -62.5q0 -71 -42 -71q-51 0 -51 53q0 32 20.5 75.5t66 114t52.5 83.5q-8 20 -45 88.5t-65 129t-28 82.5q0 33 21 43q16 7 30 -1
t21 -22q21 -38 57 -114.5t59 -117.5q3 5 25 40.5t41 63.5t44 62t47.5 53.5t38.5 19.5q43 0 43 -27q0 -8 -41 -66t-89.5 -126.5t-61.5 -93.5q119 -201 149 -238z" />
    <glyph glyph-name="Y" unicode="Y" horiz-adv-x="390" 
d="M417 690q-78 -119 -118 -207t-54 -177q-7 -56 -7 -125q0 -40 3.5 -143t3.5 -169q0 -43 -34 -43q-39 0 -43 44q-15 124 -20 218q-5 110 -11 144q-8 54 -37.5 111t-68 119t-55.5 104q-5 14 2 28t25 14q26 0 44 -25q17 -24 61.5 -101.5t68.5 -109.5q17 70 52.5 152.5
t86.5 150t96 67.5q16 0 17 -18t-12 -34z" />
    <glyph glyph-name="Z" unicode="Z" horiz-adv-x="494" 
d="M481 78q0 -11 -9.5 -20.5t-14.5 -11.5t-21 -9q-140 -53 -339 -53q-34 0 -52 10t-15 36q0 4 24 41.5t72 110t79 121.5q46 73 83 144t47 99q-11 1 -71.5 2.5t-124 5t-99.5 9.5q-33 7 -33 46q8 35 38 30q92 -13 239 -13h68h9h13.5t13.5 -0.5t14.5 -2.5t11.5 -4.5t9 -7
t3 -10.5q0 -70 -111 -270q-57 -103 -161 -250q125 0 221 15q3 0 27.5 3t35.5 3q43 0 43 -24z" />
    <glyph glyph-name="bracketleft" unicode="[" horiz-adv-x="326" 
d="M298 -93q-6 -23 -19 -26q-53 -13 -174 -13q-28 0 -40.5 8t-8.5 31q9 162 9 563v205q0 8 8 14.5t22 6.5h78q57 0 82 -1q34 -3 26 -31q-5 -33 -125 -33q-11 0 -11 -13l3 -363q0 -193 -15 -319q20 -4 43 -4l85 4q20 0 29 -6.5t8 -22.5z" />
    <glyph glyph-name="backslash" unicode="\" horiz-adv-x="377" 
d="M40 651q0 14 13 26.5t29 12.5q8 0 16 -12q71 -148 132 -324q90 -252 106 -355q4 -40 -22 -40q-19 0 -25 16q-40 86 -101 255t-90 237q-3 7 -14.5 37.5t-20 54t-16 51t-7.5 41.5z" />
    <glyph glyph-name="bracketright" unicode="]" horiz-adv-x="326" 
d="M27 658q2 19 20 26q54 14 175 14q27 0 39 -8.5t9 -31.5q-9 -186 -9 -563v-203q0 -23 -31 -23h-78q-59 0 -82 1q-32 2 -26 33q6 32 126 32q12 0 12 12l-5 364q0 170 15 319q-30 4 -43 4l-84 -4q-19 0 -29 6.5t-9 21.5z" />
    <glyph glyph-name="asciicircum" unicode="^" horiz-adv-x="463" 
d="M415 146q4 -15 -4.5 -22.5t-20.5 -7.5q-24 0 -49 37t-49.5 86.5t-36.5 62.5q-30 -26 -78 -86t-73 -85q-18 -15 -33 -13q-24 7 -15 38q4 21 176 243q10 16 32 16q12 0 25.5 -9t18.5 -22q3 -6 18 -34.5t21.5 -42l19.5 -40.5t20.5 -44t15.5 -38.5t12 -38.5z" />
    <glyph glyph-name="underscore" unicode="_" horiz-adv-x="549" 
d="M576 -205q0 -45 -27 -45q-21 0 -161.5 -1t-219.5 -1q-97 0 -165 2q-29 1 -29 42q0 37 26 37q34 0 161.5 -2.5t202.5 -2.5q98 0 185 5q7 1 12 -1t10 -10t5 -23z" />
    <glyph glyph-name="grave" unicode="`" horiz-adv-x="389" 
d="M298 502q0 -15 -16 -15q-15 0 -95 50t-83 67q-8 24 7.5 36t36.5 9q22 -4 86 -63.5t64 -83.5z" />
    <glyph glyph-name="a" unicode="a" horiz-adv-x="373" 
d="M343 45q-9 -6 -23.5 -6.5t-20.5 4.5q-22 18 -42 50.5t-23 55.5l-40 -78q-38 -58 -85 -55q-25 3 -43.5 26t-26.5 54t-11 60t-1 51q4 28 12 60t22.5 71t37.5 64.5t50 25.5q72 0 112 -66q3 -5 17 -1.5t21 -0.5q16 -11 16 -34q0 -8 -2.5 -22t-2.5 -16q-4 -55 6 -99t34 -102
q4 -13 1 -26t-8 -16zM122 98q25 0 52.5 67.5t27.5 125.5v31q-1 12 -11.5 24.5t-21.5 13.5q-35 0 -65 -118q-11 -29 -11 -80q0 -28 7 -46.5t22 -17.5z" />
    <glyph glyph-name="b" unicode="b" horiz-adv-x="424" 
d="M398 217q0 -74 -45 -124t-115 -50q-17 0 -34 3.5t-27.5 7.5t-19 6t-12 -0.5t-3.5 -11.5l3 -36q0 -47 -47 -47t-47 49v30q0 32 1 98t1 109q0 283 -12 438q-1 13 10 22t32 9q19 0 30.5 -14.5t11.5 -35.5q0 -10 3.5 -100t3.5 -169q41 24 75 24q83 0 137 -62t54 -146z
M316 217q0 59 -31.5 103.5t-76.5 44.5q-41 0 -62 -46.5t-21 -101.5q0 -48 27 -77.5t76 -29.5q42 0 65 29t23 78z" />
    <glyph glyph-name="c" unicode="c" horiz-adv-x="380" 
d="M365 64q-3 -18 -40.5 -27.5t-74.5 -9.5q-224 0 -224 195q0 74 63 135.5t136 61.5q46 0 79.5 -28t33.5 -73q0 -5 -5 -10.5t-13 -5.5q-18 0 -43 21t-52 21q-47 0 -85 -41.5t-38 -88.5q0 -45 29 -75t67.5 -41t82.5 -11q31 0 56 5q14 2 23 -5.5t5 -22.5z" />
    <glyph glyph-name="d" unicode="d" horiz-adv-x="427" 
d="M481 50q-10 -24 -34 -35.5t-50 -11.5q-110 7 -119 99q-26 -35 -62.5 -57t-74.5 -21q-45 1 -72.5 30t-35 64.5t-6.5 78.5q4 82 44 140t105 58q33 0 78 -21q3 38 3 76q0 51 -15 234q0 47 47 47q17 -1 29.5 -16.5t11.5 -33.5q4 -69 6 -271q0 -8 -2 -57t-2 -83
q0 -200 64 -201q14 0 34.5 7t30.5 6q10 0 16 -10t4 -22zM255 238q1 41 -18.5 62.5t-53.5 21.5q-38 1 -61.5 -35.5t-25.5 -90.5q-2 -39 12 -67.5t44 -31.5q39 0 70 42t33 99z" />
    <glyph glyph-name="e" unicode="e" horiz-adv-x="349" 
d="M315 288q0 -124 -163 -124q-17 0 -51 4q0 -41 23.5 -66.5t65.5 -32.5q7 -1 25 -2.5t30 -3.5t25.5 -6t20.5 -13t7 -22q0 -26 -68 -26q-89 0 -146.5 42.5t-57.5 129.5q0 94 53 182.5t118 88.5q54 0 86 -49t32 -102zM237 263q15 13 4.5 52.5t-37.5 39.5q-63 0 -96 -113
q25 -5 51 -5q59 0 78 26z" />
    <glyph glyph-name="f" unicode="f" horiz-adv-x="355" 
d="M400 597q-1 -24 -12 -39t-28 -15q-33 0 -36 43q-9 140 -56 140q-31 0 -50.5 -90.5t-19.5 -194.5q0 -29 3 -43q83 5 114 12q17 2 30.5 -5.5t9.5 -20.5q-3 -11 -27.5 -20t-63 -19.5t-57.5 -18.5q19 -275 20 -335q0 -15 -11 -26.5t-24 -9.5q-15 0 -27.5 13.5t-14.5 29.5
q-5 71 -19 316q-54 -13 -105 -13q-18 0 -29 11t-11 28q0 36 99 44l44 8q-4 21 -4 71q0 59 7 118t22 114t42 89t62 32q40 -1 74.5 -41t51.5 -89.5t16 -88.5z" />
    <glyph glyph-name="g" unicode="g" horiz-adv-x="362" 
d="M314 290q6 -186 6 -215l-2 -68q-1 -43 -13.5 -89t-35.5 -89t-63 -69.5t-89 -24.5q-17 1 -26 13t-9 26q-1 14 10.5 27.5t30.5 14.5q61 2 94 70t33 158q0 33 -7 75q-17 -35 -50.5 -64t-64.5 -31q-45 -3 -72.5 39t-30.5 95q-7 91 45 175t115 89q38 5 60 -22q21 24 32 24
q24 2 31 -33q4 -16 6 -101zM232 290q-1 31 -17 48t-31 16q-41 -3 -65 -59.5t-23 -105.5q8 -57 20 -69q8 -8 19 -7q50 4 76 59t21 118z" />
    <glyph glyph-name="h" unicode="h" horiz-adv-x="467" 
d="M507 64q0 -29 -23.5 -48.5t-55.5 -19.5q-38 1 -68.5 41.5t-45.5 88.5l-27.5 88t-19.5 40q-12 0 -31.5 -48.5t-44.5 -113t-46 -89.5q-6 -4 -21 -4q-19 0 -29.5 10.5t-10.5 27.5q-1 22 -8 69t-9 70q-2 37 -10.5 145.5t-12.5 188.5t-3 145q3 22 14.5 39t32.5 16q47 0 40 -59
q-4 -37 -4 -114q0 -185 32 -379q13 17 34.5 77t47 102t57.5 40q16 -1 27.5 -19.5t16.5 -38t10 -47t6 -32.5q0 -1 4.5 -20t8 -30t9.5 -31.5t12.5 -33.5t14.5 -27.5t18 -22t21 -7.5q7 0 21.5 8t27.5 7q4 0 9.5 -7t5.5 -12z" />
    <glyph glyph-name="i" unicode="i" horiz-adv-x="186" 
d="M132 511q-1 -20 -19 -36.5t-39 -15.5q-32 3 -30 48q0 16 12.5 29.5t28.5 12.5q23 0 35 -7.5t12 -30.5zM145 48q7 -29 -21 -36q-12 -6 -23.5 -3t-16.5 14q-20 38 -32.5 93.5t-10.5 98.5q4 98 12 154q5 16 30 14q14 0 23.5 -8.5t9.5 -22.5q-5 -43 -5 -82q0 -121 34 -222z
" />
    <glyph glyph-name="j" unicode="j" horiz-adv-x="210" 
d="M53 -189q19 0 29 24t10 47q0 94 -12 205t-12 164l-1 44q0 37 9.5 59t34.5 21q15 -1 27.5 -10t11.5 -22q0 -15 -2 -55.5t-2 -76.5q0 -50 12 -159.5t12 -169.5q0 -55 -36 -99t-87 -44q-47 0 -76.5 23.5t-29.5 48.5q0 16 6.5 21.5t19 2.5t25.5 -8t30.5 -10.5t30.5 -5.5z
M161 532q0 -16 -17 -32t-34 -16q-15 0 -29 14t-14 27q0 24 14.5 35.5t35.5 11.5q14 0 29 -11t15 -29z" />
    <glyph glyph-name="k" unicode="k" horiz-adv-x="402" 
d="M423 135q0 -20 -32.5 -26.5t-64.5 -2.5q-127 17 -198 54q17 -96 17 -133q0 -11 -11 -20t-25 -9q-22 0 -38 28q-31 90 -31 260q0 55 12.5 169t12.5 171q0 39 27 39q39 0 39 -79l-21 -257q0 -36 3 -52q7 4 35 23t42 27.5t37 21.5t40.5 18.5t31.5 5.5q29 0 33 -22t-25 -40
q-16 -11 -72.5 -42t-78.5 -48q48 -22 119 -31.5t109.5 -19t38.5 -35.5z" />
    <glyph glyph-name="l" unicode="l" horiz-adv-x="191" 
d="M150 36q0 -36 -28 -36q-29 0 -37 16q-44 102 -44 380v123q0 97 -1 132q0 12 9.5 21t24.5 9q25 0 35.5 -21.5t10.5 -48.5l-2 -269q0 -88 16 -191t16 -115z" />
    <glyph glyph-name="m" unicode="m" horiz-adv-x="602" 
d="M615 28q0 -11 -13 -17t-24 -4q-25 0 -48.5 42.5t-38.5 92.5t-28 92t-19 42q-8 0 -18 -61.5t-28 -137.5t-44 -103q-8 -9 -19 -9q-12 0 -21 7t-12.5 12.5t-10.5 19.5q-19 48 -26 129.5t-10.5 135.5t-14.5 54q-18 0 -27 -122q-23 -184 -57 -244q-9 -17 -31 -15q-31 0 -47 82
q-37 189 -42 306q-3 108 33 108q33 0 33 -46q0 -164 39 -274q7 26 19 103.5t28.5 129.5t46.5 77q8 9 22 9q21 0 29 -18q15 -29 25.5 -110.5t19 -144.5t20.5 -63q6 0 15.5 72.5t31.5 145.5t59 73q26 0 31 -16q9 -27 27 -83.5t29.5 -91.5t30 -81t36.5 -80q4 -3 4 -12z" />
    <glyph glyph-name="n" unicode="n" horiz-adv-x="437" 
d="M437 59q0 -15 -12 -24t-27 -9q-23 0 -48 17t-40 38q-26 37 -38.5 95.5t-16 96.5t-11.5 38q-15 0 -31.5 -45t-37.5 -109.5t-40 -94.5q-5 -12 -18 -22t-25 -10t-23 14t-12 26q-6 28 -6 60l2 60q0 98 -12 207q-1 11 8.5 20t19.5 9q34 0 39 -31q24 -125 23 -188q8 13 25.5 68
t42 90.5t64.5 35.5q31 0 43 -33q7 -26 19.5 -93.5t27.5 -105t45 -62.5q3 -3 10 -9t9.5 -8.5l7.5 -7.5t7 -8t3.5 -7t1.5 -8z" />
    <glyph glyph-name="o" unicode="o" horiz-adv-x="335" 
d="M308 207q0 -69 -51 -127t-120 -58q-27 0 -46.5 6.5t-31.5 22t-19 28.5t-9.5 39.5t-3 40t-0.5 43.5v16q0 32 5.5 63.5t18.5 65.5t41.5 55t68.5 21q64 0 105.5 -74.5t41.5 -141.5zM244 226q0 42 -25 87t-63 45q-33 0 -48.5 -49.5t-15.5 -118.5q0 -18 1 -29t4.5 -26t13 -23
t24.5 -8q48 0 78.5 37t30.5 85z" />
    <glyph glyph-name="p" unicode="p" horiz-adv-x="467" 
d="M439 240q-10 -77 -62 -126.5t-122 -51.5q-57 -4 -110 21q-1 -20 -1 -62q0 -32 1 -89.5t1 -79.5q0 -60 -8 -78q-3 -9 -13.5 -16.5t-20.5 -8.5q-15 -4 -25 4.5t-10 23.5q-1 21 -1 68v68q-8 260 -27 411q-1 16 7 28t23 12q14 2 22.5 -5.5t11 -16t5.5 -27.5q0 -2 2 -16
t3.5 -26t0.5 -17q26 87 81 134.5t104 47.5q43 2 74 -19.5t44 -55.5t18 -65.5t2 -57.5zM286 360q-82 -3 -137 -210q57 -19 96 -19q112 0 115 120q1 18 -1 33t-8.5 34.5t-23 31t-41.5 10.5z" />
    <glyph glyph-name="q" unicode="q" horiz-adv-x="350" 
d="M414 -201q6 -24 -8 -39.5t-31 -19.5l-17 -3q-51 -4 -83.5 15t-40.5 54q-23 93 -23 226q0 38 2 57q-12 -7 -45 -19q-45 -13 -83.5 5.5t-49.5 61.5q-9 23 -9 55q0 75 34.5 142.5t94.5 81.5q51 9 77 -13q2 8 12 14.5t21 7.5q29 9 37 -29q6 -36 -7 -149q-11 -202 -11 -234
q0 -39 8 -121q2 -22 6.5 -39.5t18 -32t33.5 -12.5q6 1 19 4.5t20.5 5.5t15 -2.5t9.5 -16.5zM218 364q-51 9 -82.5 -41t-31.5 -118q0 -28 4 -49q1 -11 17 -17t29 -1q55 12 64 91q5 20 5 60q0 49 -5 75z" />
    <glyph glyph-name="r" unicode="r" horiz-adv-x="360" 
d="M364 380q6 -17 -4 -31t-31 -17q-48 -7 -82.5 -34t-63.5 -84q-42 -87 -67 -176q-10 -24 -33 -24q-21 0 -26 16q-17 58 -17 168q0 140 10 170q1 6 9.5 14t18.5 8q11 0 18 -6t9.5 -19t3 -22t0.5 -26q0 -60 8 -106q18 38 27 55t29.5 49t37.5 47.5t44 28.5t57 13q45 0 52 -24z
" />
    <glyph glyph-name="s" unicode="s" horiz-adv-x="354" 
d="M326 71q-6 -48 -53 -65t-92 -9q-59 5 -108.5 35.5t-45.5 87.5q3 17 14.5 34t29.5 15q6 0 9 -6t5 -17.5t2 -12.5q0 -26 36.5 -47.5t65.5 -22.5q56 -4 56 19q1 22 -21 46t-53.5 47t-63 48t-51.5 55.5t-16 61.5q6 57 60 82.5t130 21.5q27 0 45.5 -13.5t14.5 -31.5
q-3 -23 -40 -23q-10 0 -40 4q-27 3 -57 -7.5t-30 -35.5q-5 -13 27 -45q12 -10 42.5 -33t50.5 -40.5t42.5 -41.5t33 -51t7.5 -55z" />
    <glyph glyph-name="t" unicode="t" horiz-adv-x="347" 
d="M359 384q0 -36 -142 -53q0 -2 9 -115q11 -119 32 -192q4 -9 -4 -17.5t-20 -8.5q-14 0 -25.5 8t-18 18.5t-12 28t-8 29t-5 30t-3.5 22.5l-12 195q-131 3 -172 19q-12 4 -20 15.5t-9 23.5q-2 18 7 32t25 14q9 0 16 -3t15.5 -8t14.5 -7q35 -13 120 -19q-1 14 -1 51
q0 122 8 170q2 23 27 25q15 1 22 -9.5t10 -29.5q2 -34 2 -59l-1 -95q0 -37 1 -54h5q5 0 13.5 0.5t18 0.5t20 0.5t17.5 1.5q70 6 70 -14z" />
    <glyph glyph-name="u" unicode="u" horiz-adv-x="462" 
d="M502 68q0 -31 -28 -46t-63 -15q-31 0 -53 16t-33 43t-15.5 51.5t-4.5 50.5q-22 -72 -64.5 -128.5t-103.5 -56.5q-23 0 -40.5 9.5t-27.5 28.5t-16 37t-8.5 46.5t-3 43.5t-0.5 41q0 132 20 180q3 10 11.5 18t20.5 8q14 0 22 -10t8 -23q0 -23 -3.5 -88.5t-3.5 -99.5
q0 -40 9.5 -75.5t26.5 -35.5q37 0 65 53t41 116.5t30.5 116.5t35.5 53q44 0 44 -60q0 -7 -1.5 -36.5t-1.5 -50.5q0 -187 72 -187q15 0 27.5 7.5t15.5 8.5q8 3 15 -3t7 -13z" />
    <glyph glyph-name="v" unicode="v" horiz-adv-x="372" 
d="M371 375q0 -3 -7 -13q-13 -15 -24 -31t-21 -38t-16 -34t-14.5 -41.5t-11 -36.5t-11.5 -42.5t-10 -37.5q-2 -9 -7.5 -35t-10 -41t-16 -31.5t-28.5 -21.5h-13q-28 2 -34 16q-33 59 -71 171t-61 200q-6 25 13 38q9 4 22.5 1t18.5 -15q9 -20 49.5 -132t62.5 -155
q8 17 18 58.5t20.5 81.5t26 80t40.5 63.5t57 21.5q11 -1 20 -8t8 -18z" />
    <glyph glyph-name="w" unicode="w" horiz-adv-x="520" 
d="M477 422q1 -23 1 -64q0 -100 -31 -254q-9 -41 -40 -74t-70 -34q-25 0 -45 13q-12 8 -21.5 17.5t-15 17.5t-11.5 21t-8.5 20.5t-7.5 24t-7 23.5q-3 -8 -12 -39t-15.5 -47.5t-23.5 -33t-40 -17.5h-10q-24 -1 -39.5 25t-22 73t-8.5 89t-3 92v18l-7 83q0 16 13 28.5t29 14.5
q19 0 31 -12t12 -31q0 -11 -1 -31.5t-1 -27.5q0 -9 -1.5 -32t-2 -44.5t-0.5 -39.5q0 -95 26 -96q16 0 24 57.5t17 132.5t27 104q5 15 21 16t25 -11.5t9 -31.5v-105q2 -62 22 -125.5t48 -67.5q35 -6 55 135.5t17 206.5q0 34 27 34q14 0 27 -7.5t13 -20.5z" />
    <glyph glyph-name="x" unicode="x" horiz-adv-x="326" 
d="M337 404q1 -18 -33 -54t-72 -79.5t-43 -75.5q-3 -21 21 -63.5t48 -51.5h3q2 0 7.5 3.5t9.5 3.5q10 0 14 -9q0 -4 1.5 -10.5t1.5 -10.5q4 -15 -13.5 -34t-34.5 -20q-29 -2 -49 19.5t-38 60t-26 49.5q-8 -9 -33 -51.5t-49.5 -74.5t-39.5 -33q-7 -1 -15.5 4.5t-9.5 10.5
q-3 34 26 80t58.5 87t26.5 63q-1 14 -29.5 67t-31.5 87q-3 31 22 36q21 3 36 -12q14 -18 31.5 -61t25.5 -58q13 14 44.5 55.5t58 67.5t50.5 32q11 2 21 -6t11 -22z" />
    <glyph glyph-name="y" unicode="y" horiz-adv-x="373" 
d="M355 373q-2 -29 -18 -88.5t-31 -104.5l-16 -45q-86 -238 -180 -351q-12 -18 -43 -18q-15 1 -23 12.5t-6 24.5q0 27 29 52q47 57 102 177q-56 54 -102.5 165t-65.5 192q-3 16 9 25.5t25 9.5q10 0 18 -6.5t15 -22.5t11.5 -28.5t13.5 -40.5q44 -137 104 -213q19 41 36 90
t34.5 108.5t26.5 85.5q5 14 29 14q34 -1 32 -38z" />
    <glyph glyph-name="z" unicode="z" horiz-adv-x="380" 
d="M376 104q33 10 41 -9q11 -24 -16 -44q-35 -24 -70 -35t-56 -12.5t-65 -1.5q-46 0 -94 14t-79 40q-16 9 -16 28q0 22 16 34q167 142 227 204q0 9 -43 9q-53 0 -120 -17q-14 -3 -27.5 1.5t-16.5 18.5q-5 12 1.5 24t21.5 16q59 21 143 21q43 0 81.5 -15t38.5 -44
q0 -16 -17 -41t-47.5 -54.5t-56.5 -53t-61 -53t-44 -37.5q47 -27 113 -27q27 0 44 1.5t44 9t58 23.5z" />
    <glyph glyph-name="braceleft" unicode="{" horiz-adv-x="347" 
d="M306 -117q0 -37 -68 -37q-28 0 -44 6q-47 15 -76.5 56t-28.5 96q1 37 9.5 95t8.5 96q0 22 -14 30q-4 2 -23.5 4.5t-31.5 9t-12 19.5q0 22 16 40t35.5 28.5t35.5 31.5t16 50q0 48 -16.5 88t-16.5 95q0 49 30.5 90t77.5 55q17 5 28.5 -1.5t11.5 -22.5q0 -11 -14 -22
t-30.5 -21t-30.5 -30t-14 -45q0 -18 20.5 -77.5t20.5 -118.5q0 -30 -10 -51.5t-28 -42t-21 -25.5q40 -15 40 -88l-9 -190q0 -54 60 -77q4 -2 27.5 -6t37 -12t13.5 -23z" />
    <glyph glyph-name="bar" unicode="|" horiz-adv-x="251" 
d="M171 -148q0 -34 -41 -34q-20 0 -31 18.5t-11 41.5q1 88 -2.5 287.5t-3.5 288.5q0 158 6 241q0 6 8 10.5t14 4.5q24 0 25 -19q11 -66 18 -145t10 -182.5t4.5 -166t2.5 -188.5t1 -157z" />
    <glyph glyph-name="braceright" unicode="}" horiz-adv-x="347" 
d="M40 701q0 36 68 36q30 0 44 -5q48 -15 76.5 -56t27.5 -97q0 -36 -8.5 -94t-8.5 -95q0 -25 13 -30q5 -2 24 -5t30.5 -9.5t11.5 -19.5q0 -22 -16 -39.5t-34.5 -28t-34.5 -31.5t-16 -50q0 -47 16.5 -87.5t16.5 -96.5q0 -50 -30 -90t-78 -55q-17 -5 -28.5 1.5t-11.5 21.5
q0 11 14 22.5t30.5 21.5t30.5 30t14 46q0 18 -21 77.5t-21 117.5q0 30 10.5 52t28 42t20.5 26q-39 13 -39 89l10 188q0 53 -61 79l-26 4q-27 5 -39.5 12.5t-12.5 22.5z" />
    <glyph glyph-name="asciitilde" unicode="~" horiz-adv-x="545" 
d="M191 454q43 0 73.5 -19t44.5 -41t33.5 -41t41.5 -19q51 0 59 57q0 2 1 6q6 37 19 42l4 1q15 3 26.5 -6.5t11.5 -33.5q0 -69 -33 -108.5t-97 -39.5q-37 0 -65.5 19t-43.5 41.5t-37 41.5t-46 19q-27 0 -46.5 -19t-26.5 -53q-7 -44 -30 -44q-21 0 -30.5 9t-9.5 33
q0 53 40.5 104t110.5 51z" />
    <glyph glyph-name="uni00A0" unicode="&#xa0;" horiz-adv-x="260" 
 />
    <glyph glyph-name="exclamdown" unicode="&#xa1;" horiz-adv-x="264" 
d="M161 -152q0 -38 -13 -65.5t-38 -27.5q-10 0 -19.5 11t-9.5 30q0 140 14 294t39 154q32 0 32 -214q0 -38 -2.5 -103.5t-2.5 -78.5zM183 397q0 -49 -63 -49q-37 0 -37 34q0 14 19 35t32 21q17 0 33 -12.5t16 -28.5z" />
    <glyph glyph-name="cent" unicode="&#xa2;" horiz-adv-x="439" 
d="M391 373q0 -11 -5.5 -20t-12.5 -9q-6 -1 -32.5 -1.5t-35.5 -2.5l-21 -145q75 9 90 12q1 0 4.5 0.5t5.5 0t4 -2t2 -4.5q0 -13 -4.5 -19.5t-17.5 -11.5q-14 -5 -38 -10.5t-42 -8.5l-17 -3q-2 -9 -5.5 -22.5t-9 -42t-5.5 -40.5q1 -23 -3.5 -33.5t-19.5 -11.5t-27 15.5
t-15 36.5q-1 16 0.5 28.5t4.5 31.5t5 32q-2 0 -18 -2t-26 -2q-116 0 -124 72q-2 35 38 74.5t82 64t77 38.5q4 58 4 80q-3 41 36 46q17 3 28.5 -10t13.5 -33l1 -62q81 -9 83 -35zM223 315q-37 -12 -69.5 -37.5t-29.5 -56.5q4 -37 83 -27q10 80 16 121z" />
    <glyph glyph-name="sterling" unicode="&#xa3;" horiz-adv-x="468" 
d="M403 543q0 -24 -39 -24q-13 0 -24 12t-19 26.5t-28.5 26.5t-50.5 12q-70 0 -70 -72q0 -18 1.5 -35t5.5 -35t6.5 -28.5t10 -29.5t10 -24t12 -26t10.5 -23h88q26 0 26 -25q0 -16 -18.5 -28t-40 -16.5t-39.5 -3.5q6 -37 -3 -85t-36 -77q74 0 152.5 15.5t83.5 15.5
q15 0 28 -15t13 -29q0 -26 -20 -32q-79 -24 -278 -24l-108 -19q-23 0 -29.5 7.5t-6.5 31.5q0 19 19 31.5t42.5 20t45 26t24.5 47.5q4 47 -3 86l-110 7q-18 7 -18 21q0 25 27 36t54 10l27 -1q-52 112 -52 201q0 59 41 94.5t108 35.5q56 0 107 -36t51 -75z" />
    <glyph glyph-name="yen" unicode="&#xa5;" horiz-adv-x="465" 
d="M49 195q14 7 48 7q11 0 27.5 -0.5t21.5 -0.5q14 -3 45 -5q0 6 -0.5 18.5t-1.5 17.5q-3 12 -7 36q-83 0 -133 8q-11 2 -12 14q-8 23 14 28q40 11 108 16q-20 45 -73 137t-70 134q-6 15 1.5 28.5t26.5 13.5q28 0 43 -24q18 -25 67.5 -122t73.5 -129q24 103 84.5 198.5
t113.5 95.5q16 0 18 -17.5t-9 -34.5q-110 -163 -136 -279q117 -7 141 -11q8 -2 9 -10q5 -15 1 -26.5t-13 -18.5q-15 -5 -48 -5q-10 0 -27 0.5t-22 0.5q-36 2 -54 2q-5 -32 -7 -76q18 -2 49.5 -4.5t58 -5t50.5 -5.5q11 -4 12 -15q9 -23 -14 -29q-37 -7 -77 -7l-81 3v-126
q0 -16 -8.5 -29.5t-26.5 -13.5q-38 0 -45 44q-5 60 -5 126q-111 5 -147 12q-7 1 -8 9q-5 15 -1 27.5t13 17.5z" />
    <glyph glyph-name="brokenbar" unicode="&#xa6;" horiz-adv-x="250" 
d="M166 -116q0 -21 -8 -39.5t-28 -18.5q-26 0 -33 25q-15 92 -15 274q0 85 38 85q23 0 28 -24q21 -58 21 -162zM150 656q0 -31 9.5 -155.5t9.5 -129.5q1 -19 -13 -29t-31 -10q-15 0 -26 18t-11 41q0 4 -1.5 98t-1.5 141t2 53q2 23 24 23q18 0 27 -8t10.5 -17t1.5 -25z" />
    <glyph glyph-name="section" unicode="&#xa7;" horiz-adv-x="458" 
d="M378 181q0 -58 -49 -92q73 -70 73 -145q0 -96 -46.5 -148.5t-128.5 -52.5q-79 0 -125 53t-46 124q0 31 9 63q7 25 32 25q15 0 25 -14.5t10 -32.5q0 -49 26 -90t72 -41q39 0 66 30t27 84q0 34 -26.5 67.5t-64 62.5t-75 59t-64 69.5t-26.5 81.5q0 43 15.5 80.5t47.5 54.5
q-63 68 -63 129q0 69 50.5 107t124.5 38q51 0 106 -20t55 -51q0 -30 -29 -30q-20 0 -61 9t-74 9q-31 0 -60.5 -17t-29.5 -48q0 -25 23.5 -56t57.5 -63t67.5 -68t57 -83t23.5 -94zM298 205q0 21 -18 49.5t-35 46.5t-54 54q-24 -1 -37 -21t-13 -41q0 -25 18.5 -52t38 -43.5
t59.5 -48.5q41 18 41 56z" />
    <glyph glyph-name="dieresis" unicode="&#xa8;" horiz-adv-x="396" 
d="M347 558q0 -59 -56 -59q-29 0 -46.5 17.5t-17.5 46.5t16 46.5t43 17.5t44 -21t17 -48zM164 566q0 -24 -16.5 -46t-39.5 -22q-21 0 -42 22t-21 43q0 25 19 42.5t44 17.5t40.5 -16.5t15.5 -40.5z" />
    <glyph glyph-name="copyright" unicode="&#xa9;" horiz-adv-x="853" 
d="M53 298q0 105 41.5 194.5t125 146.5t192.5 57q165 0 276 -115t111 -275q0 -101 -38.5 -182t-122 -132.5t-201.5 -52.5q-137 0 -216.5 40.5t-131.5 151.5q-36 79 -36 167zM720 334q-5 51 -26 100t-58.5 92t-98.5 69t-136 26q-82 0 -145.5 -50.5t-95 -127t-31.5 -163.5
q0 -125 90 -193.5t228 -63.5q291 7 273 311zM412 477q69 0 126 -41q21 -16 21 -37t-18.5 -33t-42.5 -1q-43 31 -81 31q-35 0 -62 -23.5t-27 -61.5q0 -24 8 -43q10 -22 30.5 -36t41.5 -14q25 0 43 11t33 28.5t22 22.5q18 9 31 0q18 -10 9 -38q-13 -36 -49.5 -61.5
t-77.5 -25.5q-75 0 -121 39t-46 105q0 76 40.5 127t119.5 51z" />
    <glyph glyph-name="ordfeminine" unicode="&#xaa;" horiz-adv-x="436" 
d="M373 264q-9 -7 -24 -8t-20 5q-23 17 -43 50t-22 57q-38 -72 -41 -78q-14 -23 -37.5 -41t-47.5 -15q-48 6 -67.5 72t-12.5 118q3 37 15.5 84.5t41.5 93t64 45.5q71 0 111 -66q0 -6 16.5 -3t22.5 0q15 -11 15 -34q0 -6 -6 -39q-3 -55 6.5 -98t33.5 -102q5 -13 2 -26t-7 -15
zM378 147q0 -11 -3 -18.5t-10 -12t-13 -7.5t-17 -4l-16.5 -1.5t-16.5 0t-13 0.5q-154 0 -192 4q-44 5 -44 37q0 37 69 37q12 0 93 2t100 2q63 0 63 -39zM150 316q25 0 52.5 67t27.5 125v30q-1 13 -11 26t-22 14q-13 0 -25 -16t-18 -33.5t-13.5 -42t-8.5 -27.5q-9 -41 -9 -79
q0 -28 6.5 -46.5t20.5 -17.5z" />
    <glyph glyph-name="guillemotleft" unicode="&#xab;" horiz-adv-x="585" 
d="M40 190q0 33 25.5 81.5t67 108.5t49.5 74q7 15 25 15q23 -1 36.5 -17t11.5 -38q0 -21 -26.5 -55t-53.5 -74t-28 -74q-1 -28 24.5 -57.5t57 -50t57 -41t24.5 -32.5q0 -14 -12 -26t-27 -11q-9 0 -19.5 3t-19 6.5t-19.5 10.5t-17 11t-17.5 12.5t-14.5 10.5q-40 28 -81.5 71
t-42.5 72zM274 216q0 33 24.5 80.5t68 111.5t48.5 73q12 16 25 16q22 -2 36 -18.5t12 -38.5q0 -20 -26.5 -54t-53.5 -74t-28 -74q-1 -28 24.5 -58t57 -50t57.5 -40.5t25 -31.5q0 -15 -12 -27.5t-26 -9.5q-14 0 -31.5 6.5t-27 12.5t-28.5 19t-21 15q-40 28 -81.5 70.5
t-42.5 71.5z" />
    <glyph glyph-name="registered" unicode="&#xae;" horiz-adv-x="853" 
d="M53 298q0 105 41.5 194.5t125 146.5t192.5 57q165 0 276 -115t111 -275q0 -75 -22.5 -140.5t-66.5 -116.5t-114 -80.5t-159 -29.5q-156 0 -270 101t-114 258zM720 334q-5 51 -26 100t-58.5 92t-98.5 69t-136 26q-82 0 -145.5 -50.5t-95 -127t-31.5 -163.5
q0 -126 90.5 -198.5t227.5 -67.5q146 5 214 86.5t59 233.5zM289 149q16 261 16 310q0 30 14 42.5t41 15.5q90 6 139 -24t49 -96q0 -37 -25 -69.5t-61 -39.5q14 -14 34 -25.5t52.5 -25.5t42.5 -19q31 -22 26 -36q-7 -32 -49 -20q-4 1 -27.5 8.5t-31 10t-27.5 9.5t-30 12.5
t-25.5 13.5t-27 17t-22.5 19l-3 4q0 -68 -5 -104q-6 -39 -41 -39q-36 0 -39 36zM378 443q0 -4 1 -18.5t1 -22.5q0 -10 -3 -58q28 -9 63 6t35 36q5 34 -16 48.5t-47 14.5q-9 0 -17.5 -1.5t-12.5 -3.5z" />
    <glyph glyph-name="macron" unicode="&#xaf;" horiz-adv-x="322" 
d="M290 502q0 -11 -7.5 -19t-19.5 -7q-20 1 -53 1q-25 0 -67 -3t-63 -3q-20 0 -36 15t-16 34q0 17 14.5 27.5t35.5 10.5q25 0 52 -1.5t67.5 -6.5t66.5 -17.5t26 -30.5z" />
    <glyph glyph-name="degree" unicode="&#xb0;" horiz-adv-x="352" 
d="M312 445q0 -53 -41.5 -80t-97.5 -27q-58 0 -95.5 29.5t-37.5 86.5q0 29 13 60t26 51t13 22l-4 21q0 10 12 16t25 6t33 -8q154 -93 154 -177zM244 465q0 22 -22.5 47.5t-44.5 25.5q-23 0 -40 -28t-17 -53q0 -16 13 -28t36 -12q28 0 51.5 11t23.5 37z" />
    <glyph glyph-name="plusminus" unicode="&#xb1;" horiz-adv-x="499" 
d="M444 202q0 -28 -45 -42q-7 -1 -139 -15t-140 -14q-20 0 -36.5 11.5t-16.5 29.5q0 19 13.5 33t36.5 18q14 2 93 4q-2 21 -3 59t-2 62q-15 -7 -57 -10.5t-60 -1.5q-35 6 -35 38q0 18 16 29.5t36 15.5l105 5q-2 87 3 122q2 21 11.5 32.5t29.5 8.5q42 -2 38 -66l-6 -94
q12 -2 62 0.5t65 -1.5q12 -1 22 -8.5t9 -20.5q-2 -18 -33.5 -26.5t-72.5 -11.5t-48 -5q-2 -31 -1.5 -44.5t4.5 -41t5 -40.5q44 1 99 1q17 0 24 -0.5t15 -7t8 -19.5z" />
    <glyph glyph-name="twosuperior" unicode="&#xb2;" horiz-adv-x="375" 
d="M349 337q0 -40 -72 -53q-31 -5 -94 -5q-61 0 -88 5q-11 2 -19 10.5t-5 17.5q5 14 67.5 118t62.5 143q0 17 -10 29.5t-25 12.5q-31 0 -61 -32q-2 -2 -6 -5.5t-6 -5t-5.5 -4t-5.5 -3.5t-5.5 -2.5t-7 -2t-7.5 -0.5q-9 0 -15.5 9t-6.5 22q0 21 47 54.5t84 33.5
q46 0 69.5 -26.5t23.5 -70.5q0 -46 -43 -126q-42 -73 -63 -114h32q80 0 127 14q13 3 22.5 -1.5t9.5 -17.5z" />
    <glyph glyph-name="threesuperior" unicode="&#xb3;" horiz-adv-x="329" 
d="M289 390q0 -36 -39.5 -63.5t-82.5 -39t-75 -11.5q-28 0 -28 23q0 28 25 32q132 24 132 59q0 12 -17.5 22t-38.5 16.5t-38.5 18.5t-17.5 28q0 15 21.5 37.5t43 48.5t22.5 50q0 12 -14 12q-20 0 -60 -26t-54 -26q-11 0 -19.5 10t-8.5 24q0 19 10 26q75 53 131 53
q28 0 50.5 -15t22.5 -46q0 -64 -83 -136q10 -5 38.5 -17t41.5 -19t25.5 -23.5t12.5 -37.5z" />
    <glyph glyph-name="acute" unicode="&#xb4;" horiz-adv-x="389" 
d="M105 502q0 24 63.5 83.5t85.5 63.5q21 3 36 -9t9 -36q-5 -17 -85 -67t-95 -50q-14 0 -14 15z" />
    <glyph glyph-name="mu" unicode="&#xb5;" horiz-adv-x="491" 
d="M511 68q0 -31 -27 -46t-63 -15q-40 0 -65.5 29.5t-32.5 62.5t-8 69q-21 -72 -63.5 -128.5t-103.5 -56.5q-18 0 -37 8q14 -93 14 -119q0 -25 -12 -42.5t-31 -13.5q-19 2 -30.5 18.5t-10.5 46.5q3 41 10 308q0 124 19 180q12 26 35 26q13 0 20.5 -10t7.5 -23
q0 -23 -4 -88.5t-4 -99.5q0 -40 10 -75.5t27 -35.5q30 0 53.5 35t38 84.5t27 99.5t26 85t28.5 35q25 0 33.5 -15t8.5 -45q0 -7 -0.5 -36.5t-0.5 -50.5q0 -187 71 -187q17 0 29 8t13 8q10 3 16 -3t6 -13z" />
    <glyph glyph-name="paragraph" unicode="&#xb6;" horiz-adv-x="537" 
d="M462 616q8 -81 8 -200q0 -110 -10.5 -324t-11.5 -244q0 -15 -23 -18q-38 -3 -45 52q-2 9 -2 50q0 106 4 142q0 1 0.5 21.5t2 53.5t2.5 72t1.5 85t0.5 84q0 153 -12 158q-5 5 -24.5 -0.5t-23.5 -14.5q-10 -22 -15.5 -184.5t-5.5 -243.5q0 -283 -40 -290q-10 -4 -19.5 3
t-10.5 22q-9 61 -9 216q0 144 5 209q-24 5 -34.5 7.5t-36.5 10t-40 14t-34.5 19t-31.5 25.5t-20 32.5t-10 41.5q-4 55 39.5 101.5t112.5 74.5t132 44.5t114 21.5q17 4 25.5 -7t11.5 -34z" />
    <glyph glyph-name="periodcentered" unicode="&#xb7;" horiz-adv-x="218" 
d="M166 328q0 -23 -14.5 -40t-35.5 -17q-27 0 -45 21.5t-18 49.5q0 24 12.5 43t36.5 19q27 0 45.5 -24.5t18.5 -51.5z" />
    <glyph glyph-name="cedilla" unicode="&#xb8;" horiz-adv-x="316" 
d="M277 -144q0 -58 -58.5 -99t-113.5 -41q-22 0 -43.5 13t-21.5 32q0 18 30 18q16 0 38 4.5t47 13.5t41.5 26.5t16.5 39.5q0 13 -11.5 22.5t-28.5 9.5q-14 0 -35 -22t-36 -22q-16 0 -28 12.5t-12 28.5q0 18 17 70.5t17 78.5q0 13 9.5 21.5t22.5 8.5q14 0 23.5 -13.5
t9.5 -30.5q0 -11 -4.5 -30.5t-9.5 -33.5l-5 -14q28 7 42 7q41 0 67 -28.5t26 -71.5z" />
    <glyph glyph-name="onesuperior" unicode="&#xb9;" horiz-adv-x="238" 
d="M169 292q1 -11 -8 -17.5t-19 -6.5q-35 3 -36 40v4t-0.5 9.5t-1 17.5t-0.5 33v51q3 141 3 176q-2 -1 -6 -3.5t-8.5 -5t-7.5 -4.5q-7 -7 -23 -6t-19 12q-4 8 2 21t18 24q48 40 70 39q18 0 26.5 -11t9.5 -20.5t1 -27.5q-1 -15 -2.5 -42t-3 -114.5t4.5 -168.5z" />
    <glyph glyph-name="ordmasculine" unicode="&#xba;" horiz-adv-x="396" 
d="M335 433q0 -70 -51 -128t-120 -58q-17 0 -31.5 3.5t-25.5 8t-19 15t-13.5 17t-9 22t-5.5 23t-3 27t-1 26.5v28.5v26.5q0 33 5 64t18 65t41 55t69 21q43 0 78 -39.5t51.5 -88t16.5 -88.5zM270 450q0 43 -24.5 88t-62.5 45q-33 0 -48.5 -48.5t-15.5 -119.5q0 -18 1 -29
t4.5 -26t13 -23t24.5 -8q47 0 77.5 37t30.5 84zM342 147q0 -11 -3.5 -18.5t-10 -12t-13 -7.5t-17.5 -4l-16.5 -1.5t-17 0t-13.5 0.5q-116 0 -154 4q-44 5 -44 37q0 37 69 37q12 0 74.5 2t81.5 2q64 0 64 -39z" />
    <glyph glyph-name="guillemotright" unicode="&#xbb;" horiz-adv-x="585" 
d="M545 299q0 -32 -24.5 -79.5t-69.5 -112.5t-49 -71q-6 -17 -25 -17q-22 2 -35 18t-12 38q0 20 26.5 54t53.5 74t28 75q1 28 -25 57.5t-57 50t-56.5 40.5t-23.5 32q0 16 10.5 27.5t25.5 9.5q11 0 23 -3t25 -10.5t20.5 -12.5t22.5 -15.5t18 -12.5q40 -27 81.5 -70t42.5 -72z
M311 271q0 -31 -25.5 -80t-66.5 -109t-49 -74q-11 -16 -25 -16q-24 3 -37.5 18.5t-11.5 37.5q0 20 26.5 54t53.5 74t28 75q1 28 -24.5 58t-56.5 50.5t-57 40.5t-25 32q0 14 12 25.5t27 10.5q7 0 15 -1.5t14 -3.5t14.5 -6.5t13.5 -7t14 -9t12 -8.5t12.5 -9t10.5 -8
q39 -25 81.5 -69.5t43.5 -74.5z" />
    <glyph glyph-name="onequarter" unicode="&#xbc;" horiz-adv-x="645" 
d="M168 292q0 -11 -8 -17.5t-19 -6.5q-35 3 -36 40q0 1 -0.5 4t-0.5 9.5t-0.5 17.5t-1 33t-0.5 51q0 17 2.5 75t1.5 101q-3 -1 -11 -6.5t-15.5 -8.5t-15.5 -3q-24 0 -24 18q0 21 23.5 40.5t44 28t24.5 8.5q18 0 26.5 -11t9.5 -20.5t1 -27.5q-7 -65 -7 -169q0 -98 6 -156z
M437 603q-146 -337 -304 -651q-3 -10 -17 -10q-24 0 -24 21q0 8 3 14q24 92 137 333t159 316q8 8 19 8q9 0 18.5 -6.5t9.5 -16.5q0 -6 -1 -8zM563 374q6 0 10 -0.5t9.5 -3.5t8 -11t0.5 -21q-26 -187 -26 -269q0 -60 5 -96q0 -10 -7.5 -17t-18.5 -7q-39 0 -39 116q0 12 2 54
q-8 -1 -23 -1q-61 0 -95.5 42.5t-34.5 107.5q0 46 9.5 86.5t32.5 40.5q27 0 27 -33q0 -9 -4 -42t-4 -49q0 -94 69 -94q17 0 26 4q0 45 17 119t36 74z" />
    <glyph glyph-name="onehalf" unicode="&#xbd;" horiz-adv-x="684" 
d="M169 292q1 -11 -8 -17.5t-19 -6.5q-35 3 -36 40v4t-0.5 9.5t-1 17.5t-0.5 33v51q3 141 3 176q-2 -1 -6 -3.5t-8.5 -5t-7.5 -4.5q-7 -7 -23 -6t-19 12q-4 8 2 21t18 24q48 40 70 39q18 0 26.5 -11t9.5 -20.5t1 -27.5q-1 -15 -2.5 -42t-3 -114.5t4.5 -168.5zM438 603
q-158 -366 -304 -651q-3 -10 -17 -10q-31 0 -21 35q24 92 136.5 331.5t159.5 317.5q8 8 19 8q12 0 22 -9t5 -22zM644 51q0 -43 -72 -52q-48 -6 -92 -6q-45 0 -89 6q-12 1 -19.5 9.5t-2.5 17.5q8 22 41.5 76t60 105.5t26.5 81.5q0 17 -10 29t-25 12q-28 0 -62 -32
q-19 -22 -42 -22q-8 0 -15 9t-7 21q0 22 47 55.5t84 33.5q46 0 69 -27t23 -73q0 -41 -42 -125l-63 -113h31q79 0 129 13q12 4 21 -1t9 -18z" />
    <glyph glyph-name="threequarters" unicode="&#xbe;" horiz-adv-x="747" 
d="M289 376q0 -35 -39.5 -62.5t-82.5 -39t-75 -11.5q-28 0 -28 23q0 27 25 31q2 0 14 2.5t22 5t25 6.5t26.5 8.5t22 10t16.5 12.5t6 14q0 13 -17.5 23.5t-38.5 17t-38.5 18t-17.5 26.5q0 13 13.5 30.5t29.5 32t29.5 35t14.5 38.5q0 13 -14 13q-20 0 -60 -26t-54 -26
q-11 0 -19.5 10t-8.5 24q0 18 10 25q72 53 131 53q29 0 51 -14.5t22 -45.5q0 -34 -24.5 -70.5t-58.5 -64.5q12 -6 32 -14.5t32.5 -15t26 -16t20.5 -22.5t7 -31zM520 603q-166 -381 -304 -651q-3 -10 -19 -10q-30 0 -20 35q25 93 138.5 334.5t159.5 314.5q4 8 16 8
q13 0 23.5 -9t5.5 -22zM651 374q9 0 14 -1t10 -9.5t3 -25.5q-26 -170 -26 -269q0 -57 4 -96q0 -10 -7.5 -17t-18.5 -7q-39 0 -39 116q0 22 3 54q-8 -1 -23 -1q-61 0 -96 42.5t-35 107.5q0 45 9.5 86t32.5 41q27 0 27 -33q0 -9 -3.5 -42t-3.5 -49q0 -94 69 -94q16 0 26 4
q0 45 17.5 119t36.5 74z" />
    <glyph glyph-name="questiondown" unicode="&#xbf;" horiz-adv-x="315" 
d="M53 -156q0 45 44.5 152t44.5 142q0 7 -5.5 14.5t-11.5 7.5q-7 0 -15.5 -9.5t-16.5 -9.5q-16 0 -13 23q3 29 27.5 52.5t47.5 23.5q29 0 44.5 -24t15.5 -55q0 -55 -46.5 -163.5t-46.5 -147.5q0 -21 23 -21q26 0 66 37t53 37q11 0 18 -10.5t7 -22.5q0 -40 -54.5 -81
t-97.5 -41q-84 0 -84 96zM118 399q0 16 13.5 27.5t29.5 11.5q20 0 31.5 -17t11.5 -38q0 -20 -10.5 -37.5t-29.5 -17.5q-46 0 -46 71z" />
    <glyph glyph-name="Agrave" unicode="&#xc0;" 
d="M439 -2q6 -17 -6 -30t-31 -13q-12 0 -26 18t-25.5 44t-23.5 59t-19.5 59.5t-14 49.5t-7.5 25l-132 -15q-30 -150 -57 -193q-4 -6 -9.5 -9t-9.5 -3t-10 0.5t-7 0.5q-15 0 -26.5 10t-6.5 27l52 161q-3 -1 -7.5 -1.5t-15.5 -1.5t-20 1t-16 9t-7 19q0 19 20.5 31.5t41.5 15.5
l20 2q54 295 76 378q9 34 43 34q28 0 42 -42q12 -32 50 -176t44 -166q31 2 61 2q44 0 47 -5q4 -7 -3 -19q-8 -10 -31 -21t-41 -17l-19 -6q43 -146 74 -228zM306 730q0 -15 -15 -15q-16 0 -95.5 50.5t-85.5 67.5q-6 23 9.5 35t36.5 9q22 -3 86 -63t64 -84zM169 274l101 10
q-17 61 -35 152t-21 113q-16 -121 -45 -275z" />
    <glyph glyph-name="Aacute" unicode="&#xc1;" 
d="M439 -2q6 -17 -6 -30t-31 -13q-12 0 -26 18t-25.5 44t-23.5 59t-19.5 59.5t-14 49.5t-7.5 25l-132 -15q-30 -150 -57 -193q-4 -6 -9.5 -9t-9.5 -3t-10 0.5t-7 0.5q-15 0 -26.5 10t-6.5 27l52 161q-3 -1 -7.5 -1.5t-15.5 -1.5t-20 1t-16 9t-7 19q0 19 20.5 31.5t41.5 15.5
l20 2q54 295 76 378q9 34 43 34q28 0 42 -42q12 -32 50 -176t44 -166q31 2 61 2q44 0 47 -5q4 -7 -3 -19q-8 -10 -31 -21t-41 -17l-19 -6q43 -146 74 -228zM132 731q0 26 64 85t85 62t37 -8.5t10 -34.5q-6 -17 -85.5 -67.5t-95.5 -50.5q-15 0 -15 14zM169 274l101 10
q-17 61 -35 152t-21 113q-16 -121 -45 -275z" />
    <glyph glyph-name="Acircumflex" unicode="&#xc2;" 
d="M439 -2q6 -17 -6 -30t-31 -13q-12 0 -26 18t-25.5 44t-23.5 59t-19.5 59.5t-14 49.5t-7.5 25l-132 -15q-30 -150 -57 -193q-4 -6 -9.5 -9t-9.5 -3t-10 0.5t-7 0.5q-15 0 -26.5 10t-6.5 27l52 161q-3 -1 -7.5 -1.5t-15.5 -1.5t-20 1t-16 9t-7 19q0 19 20.5 31.5t41.5 15.5
l20 2q54 295 76 378q9 34 43 34q28 0 42 -42q12 -32 50 -176t44 -166q31 2 61 2q44 0 47 -5q4 -7 -3 -19q-8 -10 -31 -21t-41 -17l-19 -6q43 -146 74 -228zM340 691q0 -15 -4 -20t-16 -5q-8 0 -35.5 26.5t-50.5 53.5l-23 26q-82 -102 -101 -107q-10 -5 -17.5 2.5t-7.5 21.5
q0 32 55.5 105.5t77.5 73.5q26 0 74 -78.5t48 -98.5zM169 274l101 10q-17 61 -35 152t-21 113q-16 -121 -45 -275z" />
    <glyph glyph-name="Atilde" unicode="&#xc3;" 
d="M439 -2q6 -17 -6 -30t-31 -13q-12 0 -26 18t-25.5 44t-23.5 59t-19.5 59.5t-14 49.5t-7.5 25l-132 -15q-30 -150 -57 -193q-4 -6 -9.5 -9t-9.5 -3t-10 0.5t-7 0.5q-15 0 -26.5 10t-6.5 27l52 161q-3 -1 -7.5 -1.5t-15.5 -1.5t-20 1t-16 9t-7 19q0 19 20.5 31.5t41.5 15.5
l20 2q54 295 76 378q9 34 43 34q28 0 42 -42q12 -32 50 -176t44 -166q31 2 61 2q44 0 47 -5q4 -7 -3 -19q-8 -10 -31 -21t-41 -17l-19 -6q43 -146 74 -228zM164 854q24 0 43.5 -10t27 -18t21.5 -26q1 -2 4 -5l4.5 -4.5l4 -4l4.5 -4.5t4.5 -3.5l5 -3t5 -2t5.5 -0.5
q28 0 36 37q4 30 19 34q34 2 34 -32q0 -50 -23.5 -78.5t-69.5 -28.5q-21 0 -38.5 9t-23 15t-22.5 25q-26 34 -47 34q-30 0 -41 -46q0 -1 -1 -4.5t-1.5 -4.5t-1.5 -4.5t-2 -4.5t-2 -4t-2.5 -4t-3.5 -3t-4 -3t-4.5 -1.5t-5.5 -0.5q-17 0 -24.5 7.5t-7.5 26.5q0 39 29 75.5
t78 36.5zM169 274l101 10q-17 61 -35 152t-21 113q-16 -121 -45 -275z" />
    <glyph glyph-name="Adieresis" unicode="&#xc4;" 
d="M439 -2q6 -17 -6 -30t-31 -13q-12 0 -26 18t-25.5 44t-23.5 59t-19.5 59.5t-14 49.5t-7.5 25l-132 -15q-30 -150 -57 -193q-4 -6 -9.5 -9t-9.5 -3t-10 0.5t-7 0.5q-15 0 -26.5 10t-6.5 27l52 161q-3 -1 -7.5 -1.5t-15.5 -1.5t-20 1t-16 9t-7 19q0 19 20.5 31.5t41.5 15.5
l20 2q54 295 76 378q9 34 43 34q28 0 42 -42q12 -32 50 -176t44 -166q31 2 61 2q44 0 47 -5q4 -7 -3 -19q-8 -10 -31 -21t-41 -17l-19 -6q43 -146 74 -228zM169 274l101 10q-17 61 -35 152t-21 113q-16 -121 -45 -275zM361 751q0 -59 -54 -59q-29 0 -46.5 18t-17.5 46
q0 29 16 47t43 18t43 -21t16 -49zM181 759q0 -23 -17 -45.5t-40 -22.5q-21 0 -41.5 22.5t-20.5 42.5q0 26 18.5 43t43.5 17t41 -16.5t16 -40.5z" />
    <glyph glyph-name="Aring" unicode="&#xc5;" 
d="M354 725q0 -42 -26.5 -68t-66.5 -35q12 -38 46.5 -169t43.5 -161q31 2 61 2q44 0 47 -5q4 -7 -3 -19q-8 -10 -31 -21t-41 -17l-19 -6q43 -146 74 -228q6 -17 -6 -30t-31 -13q-12 0 -26 18t-25.5 44t-23.5 59t-19.5 59.5t-14 49.5t-7.5 25l-132 -15q-30 -150 -57 -193
q-4 -6 -9.5 -9t-9.5 -3t-10 0.5t-7 0.5q-15 0 -26.5 10t-6.5 27l52 161q-3 -1 -7.5 -1.5t-15.5 -1.5t-20 1t-16 9t-7 19q0 19 20.5 31.5t41.5 15.5l20 2q48 264 71 359q-85 22 -85 109q0 29 13 60.5t25.5 51.5t12.5 21q0 4 -1.5 11t-1.5 9q0 11 12.5 17t25.5 6q16 0 30 -7
q156 -95 156 -176zM286 744q0 22 -25 50t-46 28q-24 0 -42.5 -30.5t-18.5 -56.5q0 -18 17 -36t43 -18q27 0 49.5 18t22.5 45zM169 274l101 10q-17 61 -35 152t-21 113q-16 -121 -45 -275z" />
    <glyph glyph-name="Ccedilla" unicode="&#xc7;" horiz-adv-x="422" 
d="M328 -172q0 -58 -58.5 -100t-114.5 -42q-21 0 -42.5 13.5t-21.5 32.5q0 18 31 18q23 0 53.5 7t59.5 27t29 48q0 14 -11.5 24.5t-27.5 10.5q-15 0 -36 -23t-37 -23t-28.5 13t-12.5 29q0 13 5.5 32t14.5 44t13 40q-58 12 -88 65t-30 120q0 46 10.5 122t30 164t57.5 150
t84 62q38 0 75 -59t57 -129t20 -114t-38 -44q-32 0 -38 22q-9 80 -28.5 150t-50.5 70q-33 0 -57 -79t-32 -152t-8 -112v-24t1.5 -27t4 -31t8 -27t13.5 -25t20.5 -15.5t28.5 -6.5q45 0 95 24.5t77.5 39.5t35.5 0q16 -28 -44.5 -78t-137.5 -64l-18 -63q21 8 43 8
q41 0 67 -28.5t26 -69.5z" />
    <glyph glyph-name="Egrave" unicode="&#xc8;" horiz-adv-x="510" 
d="M483 576q1 -21 -25 -27q-88 -16 -282 -20q-8 -34 -12 -84t-4 -83l-1 -34q44 0 104 11t105 29q18 7 39.5 4.5t24.5 -17.5q2 -21 -25 -40.5t-67.5 -31.5t-81 -21t-69.5 -13l-29 -4q0 -7 0.5 -17.5t4 -38.5t9.5 -49.5t19 -39t30 -17.5q86 0 198 67q24 13 40 4.5t16 -25.5
q0 -15 -16 -31q-58 -42 -133.5 -77t-135.5 -35q-33 0 -57.5 28t-36 71t-17 83t-5.5 76q0 173 19 280q-5 0 -17 -1.5t-22.5 -2t-17.5 -0.5q-19 0 -32 11.5t-13 29.5q0 43 54 43l58 -1l5 10t13 15.5t21 9.5q8 0 18 -9t16 -17l7 -9q15 0 67 0.5t82 0.5q148 0 149 -28zM338 689
q0 -14 -14 -14q-16 0 -96 49t-83 67q-8 23 7.5 35.5t37.5 9.5q21 -3 84.5 -62.5t63.5 -84.5z" />
    <glyph glyph-name="Eacute" unicode="&#xc9;" horiz-adv-x="510" 
d="M483 576q1 -21 -25 -27q-88 -16 -282 -20q-8 -34 -12 -84t-4 -83l-1 -34q44 0 104 11t105 29q18 7 39.5 4.5t24.5 -17.5q2 -21 -25 -40.5t-67.5 -31.5t-81 -21t-69.5 -13l-29 -4q0 -7 0.5 -17.5t4 -38.5t9.5 -49.5t19 -39t30 -17.5q86 0 198 67q24 13 40 4.5t16 -25.5
q0 -15 -16 -31q-58 -42 -133.5 -77t-135.5 -35q-33 0 -57.5 28t-36 71t-17 83t-5.5 76q0 173 19 280q-5 0 -17 -1.5t-22.5 -2t-17.5 -0.5q-19 0 -32 11.5t-13 29.5q0 43 54 43l58 -1l5 10t13 15.5t21 9.5q8 0 18 -9t16 -17l7 -9q15 0 67 0.5t82 0.5q148 0 149 -28zM211 686
q0 25 63.5 84t85.5 63q22 3 37 -9t7 -35q-3 -18 -82.5 -68.5t-95.5 -50.5q-15 0 -15 16z" />
    <glyph glyph-name="Ecircumflex" unicode="&#xca;" horiz-adv-x="510" 
d="M483 576q1 -21 -25 -27q-88 -16 -282 -20q-8 -34 -12 -84t-4 -83l-1 -34q44 0 104 11t105 29q18 7 39.5 4.5t24.5 -17.5q2 -21 -25 -40.5t-67.5 -31.5t-81 -21t-69.5 -13l-29 -4q0 -7 0.5 -17.5t4 -38.5t9.5 -49.5t19 -39t30 -17.5q86 0 198 67q24 13 40 4.5t16 -25.5
q0 -15 -16 -31q-58 -42 -133.5 -77t-135.5 -35q-33 0 -57.5 28t-36 71t-17 83t-5.5 76q0 173 19 280q-5 0 -17 -1.5t-22.5 -2t-17.5 -0.5q-19 0 -32 11.5t-13 29.5q0 43 54 43l58 -1l5 10t13 15.5t21 9.5q8 0 18 -9t16 -17l7 -9q15 0 67 0.5t82 0.5q148 0 149 -28zM402 708
q0 -14 -4 -19.5t-15 -5.5q-9 0 -36.5 26.5t-50.5 52.5l-22 27q-83 -100 -101 -108q-10 -3 -17.5 4.5t-7.5 20.5q0 32 55 105.5t78 73.5q26 0 73.5 -78t47.5 -99z" />
    <glyph glyph-name="Edieresis" unicode="&#xcb;" horiz-adv-x="510" 
d="M483 576q1 -21 -25 -27q-88 -16 -282 -20q-8 -34 -12 -84t-4 -83l-1 -34q44 0 104 11t105 29q18 7 39.5 4.5t24.5 -17.5q2 -21 -25 -40.5t-67.5 -31.5t-81 -21t-69.5 -13l-29 -4q0 -7 0.5 -17.5t4 -38.5t9.5 -49.5t19 -39t30 -17.5q86 0 198 67q24 13 40 4.5t16 -25.5
q0 -15 -16 -31q-58 -42 -133.5 -77t-135.5 -35q-33 0 -57.5 28t-36 71t-17 83t-5.5 76q0 173 19 280q-5 0 -17 -1.5t-22.5 -2t-17.5 -0.5q-19 0 -32 11.5t-13 29.5q0 43 54 43l58 -1l5 10t13 15.5t21 9.5q8 0 18 -9t16 -17l7 -9q15 0 67 0.5t82 0.5q148 0 149 -28zM423 737
q0 -58 -54 -58q-29 0 -46.5 18t-17.5 46t16 47t41 19q28 0 44.5 -21.5t16.5 -50.5zM242 747q0 -24 -17 -46.5t-40 -22.5q-21 0 -41.5 22.5t-20.5 42.5q0 25 19 42t43 17t40.5 -16t16.5 -39z" />
    <glyph glyph-name="Igrave" unicode="&#xcc;" horiz-adv-x="218" 
d="M161 59q1 -23 -13.5 -36t-28.5 -10q-18 1 -28 15t-11 34q-14 209 -22 535q-1 43 40 45q36 2 39 -26q8 -112 24 -557zM181 706q0 -15 -15 -15q-16 0 -96 50.5t-85 68.5q-6 22 9 34t36 9q23 -3 87 -62.5t64 -84.5z" />
    <glyph glyph-name="Iacute" unicode="&#xcd;" horiz-adv-x="218" 
d="M161 59q1 -23 -13.5 -36t-28.5 -10q-18 1 -28 15t-11 34q-14 209 -22 535q-1 43 40 45q36 2 39 -26q8 -112 24 -557zM35 722q0 25 63.5 84t84.5 62q21 4 36.5 -8t8.5 -36q-4 -17 -84 -67t-96 -50q-13 0 -13 15z" />
    <glyph glyph-name="Icircumflex" unicode="&#xce;" horiz-adv-x="218" 
d="M161 59q1 -23 -13.5 -36t-28.5 -10q-18 1 -28 15t-11 34q-14 209 -22 535q-1 43 40 45q36 2 39 -26q8 -112 24 -557zM227 705q0 -15 -4.5 -20.5t-15.5 -5.5q-9 0 -36.5 26.5t-50.5 52.5l-23 27q-82 -101 -99 -107q-10 -5 -17.5 2.5t-7.5 21.5q0 33 54.5 106.5t78.5 73.5
q26 0 73.5 -79t47.5 -98z" />
    <glyph glyph-name="Idieresis" unicode="&#xcf;" horiz-adv-x="218" 
d="M161 59q1 -23 -13.5 -36t-28.5 -10q-18 1 -28 15t-11 34q-14 209 -22 535q-1 43 40 45q36 2 39 -26q8 -112 24 -557zM256 754q0 -59 -54 -59q-30 0 -47.5 18t-17.5 46q0 29 16 46.5t43 17.5q28 0 44 -20.5t16 -48.5zM75 762q0 -24 -17 -46.5t-39 -22.5t-42.5 22.5
t-20.5 43.5q0 26 18.5 43t44.5 17q24 0 40 -16t16 -41z" />
    <glyph glyph-name="Eth" unicode="&#xd0;" horiz-adv-x="645" 
d="M617 306q-1 -57 -33 -101.5t-86.5 -74t-108 -49t-117.5 -41t-95 -36.5q-17 -8 -31 -4q-13 3 -17 27q-22 156 -31 251q-13 0 -29 -1t-26.5 -2t-12.5 -1q-33 -6 -43 38q-1 17 17 29.5t39 13.5q27 0 52 -1q-3 32 -3 65t3 63q0 31 7 73q-8 1 -25 2t-37 6q-13 4 -21.5 20
t-2.5 34q11 40 60 26q42 -10 79 -19.5t95 -27.5t105 -37t98 -47t85.5 -57.5t57 -68.5t21.5 -80zM525 311q2 39 -26 74.5t-68 59.5t-93 44.5t-90.5 30.5t-71.5 17q-5 -24 -7 -66q-3 -54 -3 -57q0 -8 0.5 -18.5t1.5 -23.5t1 -21q23 0 66 0.5t44 0.5q26 0 26 -22
q3 -25 -8.5 -33t-35.5 -11q-22 -4 -88 -6q11 -101 24 -164q14 4 55 13.5t71 17.5t70.5 23.5t66.5 33t45.5 45.5t19.5 62z" />
    <glyph glyph-name="Ntilde" unicode="&#xd1;" horiz-adv-x="524" 
d="M468 356q-2 -45 -6 -89.5t-15 -109.5t-33.5 -105t-53.5 -40q-32 0 -85.5 90t-90.5 176t-52 130q-2 -44 -2 -68q0 -71 10 -185t8 -131q-4 -31 -40 -36q-13 0 -26.5 9t-14.5 22q-10 140 -10 346q0 178 14 203q17 17 33 17q22 2 28 -13q11 -18 26 -48.5t30.5 -64.5
t33.5 -73.5t34 -76t32 -70.5l28 -59.5t21 -40.5t13 -15q16 1 26.5 68.5t10.5 161.5q0 136 -23 235q-3 25 5.5 43t26.5 19q21 1 33 -14t19 -38q9 -38 14.5 -119.5t5.5 -123.5zM201 825q8 0 15.5 -1t14 -3.5t11.5 -3.5t11 -6t8.5 -6.5t8.5 -7.5l7.5 -7.5t8.5 -9.5l6 -7
q23 -29 38 -29q27 0 34 36q1 2 2 7l1.5 7.5t1.5 6t2 5.5t2.5 4.5t4 3.5t5.5 2q34 2 34 -32q0 -107 -93 -107q-8 0 -15.5 1.5t-13 2.5t-11.5 5t-9.5 6t-9.5 8t-7.5 8t-8 9.5t-7.5 8.5t-5 5.5t-5 5.5t-4.5 5t-5 5t-4.5 3.5t-5.5 3.5t-5.5 2.5t-6.5 2t-6.5 0.5q-29 0 -42 -45
q-2 -11 -3.5 -16t-7.5 -11.5t-16 -6.5q-33 0 -33 34q0 38 29.5 74.5t79.5 36.5z" />
    <glyph glyph-name="Ograve" unicode="&#xd2;" horiz-adv-x="425" 
d="M398 205q-1 -76 -67 -133.5t-146 -56.5q-48 1 -81.5 27t-49 69t-21.5 84t-6 87q6 243 89 367q14 21 45 21q35 -1 31 -47q0 -13 -8 -22l7 1q6 0 15 -5.5t10 -11.5q39 -49 64.5 -86t56.5 -89t46.5 -104t14.5 -101zM314 228q0 50 -25 104.5t-68.5 120t-58.5 95.5
q-31 -77 -40 -138.5t-11 -160.5q-1 -56 23 -101t73 -46q50 -1 77.5 36.5t29.5 89.5zM229 719q0 -14 -14 -14q-16 0 -96 50t-83 67q-8 24 8 35t37 8t84.5 -62t63.5 -84z" />
    <glyph glyph-name="Oacute" unicode="&#xd3;" horiz-adv-x="425" 
d="M398 205q-1 -76 -67 -133.5t-146 -56.5q-48 1 -81.5 27t-49 69t-21.5 84t-6 87q6 243 89 367q14 21 45 21q35 -1 31 -47q0 -13 -8 -22l7 1q6 0 15 -5.5t10 -11.5q39 -49 64.5 -86t56.5 -89t46.5 -104t14.5 -101zM314 228q0 50 -25 104.5t-68.5 120t-58.5 95.5
q-31 -77 -40 -138.5t-11 -160.5q-1 -56 23 -101t73 -46q50 -1 77.5 36.5t29.5 89.5zM83 734q0 26 63.5 85t85.5 62q21 3 37 -9.5t9 -34.5q-6 -18 -85.5 -68t-95.5 -50q-14 0 -14 15z" />
    <glyph glyph-name="Ocircumflex" unicode="&#xd4;" horiz-adv-x="425" 
d="M398 205q-1 -76 -67 -133.5t-146 -56.5q-48 1 -81.5 27t-49 69t-21.5 84t-6 87q6 243 89 367q14 21 45 21q35 -1 31 -47q0 -13 -8 -22l7 1q6 0 15 -5.5t10 -11.5q39 -49 64.5 -86t56.5 -89t46.5 -104t14.5 -101zM314 228q0 50 -25 104.5t-68.5 120t-58.5 95.5
q-31 -77 -40 -138.5t-11 -160.5q-1 -56 23 -101t73 -46q50 -1 77.5 36.5t29.5 89.5zM293 698q0 -15 -4 -21t-15 -6q-9 0 -36.5 26.5t-50.5 52.5l-23 27q-82 -99 -100 -107q-10 -3 -17.5 4.5t-7.5 20.5q0 33 55 107t78 74q26 0 73.5 -79t47.5 -99z" />
    <glyph glyph-name="Otilde" unicode="&#xd5;" horiz-adv-x="425" 
d="M398 205q-1 -76 -67 -133.5t-146 -56.5q-48 1 -81.5 27t-49 69t-21.5 84t-6 87q6 243 89 367q14 21 45 21q35 -1 31 -47q0 -13 -8 -22l7 1q6 0 15 -5.5t10 -11.5q39 -49 64.5 -86t56.5 -89t46.5 -104t14.5 -101zM314 228q0 50 -25 104.5t-68.5 120t-58.5 95.5
q-31 -77 -40 -138.5t-11 -160.5q-1 -56 23 -101t73 -46q50 -1 77.5 36.5t29.5 89.5zM110 844q24 0 43.5 -9.5t27 -17.5t22.5 -26q22 -28 37 -28q27 0 36 36q4 33 17 37q36 2 36 -35q0 -50 -23.5 -78t-70.5 -28q-20 0 -37 8.5t-24.5 16t-21.5 24.5q-10 12 -15 17t-14 10.5
t-18 5.5q-15 0 -26 -12.5t-16 -32.5q-5 -33 -26 -33q-35 0 -35 33q0 39 29.5 75.5t78.5 36.5z" />
    <glyph glyph-name="Odieresis" unicode="&#xd6;" horiz-adv-x="425" 
d="M398 205q-1 -76 -67 -133.5t-146 -56.5q-48 1 -81.5 27t-49 69t-21.5 84t-6 87q6 243 89 367q14 21 45 21q35 -1 31 -47q0 -13 -8 -22l7 1q6 0 15 -5.5t10 -11.5q39 -49 64.5 -86t56.5 -89t46.5 -104t14.5 -101zM314 228q0 50 -25 104.5t-68.5 120t-58.5 95.5
q-31 -77 -40 -138.5t-11 -160.5q-1 -56 23 -101t73 -46q50 -1 77.5 36.5t29.5 89.5zM337 764q0 -58 -55 -58q-29 0 -46.5 18t-17.5 47t16.5 46.5t43.5 17.5t43 -21.5t16 -49.5zM156 773q0 -24 -16.5 -46t-38.5 -22q-23 0 -43 22t-20 44q0 24 19 41.5t44 17.5q23 0 39 -17
t16 -40z" />
    <glyph glyph-name="multiply" unicode="&#xd7;" horiz-adv-x="403" 
d="M351 132q0 -10 -5 -17.5t-14 -7.5q-23 0 -43 15t-43.5 43.5t-35.5 39.5q-2 -3 -10.5 -17.5t-14.5 -24t-15.5 -25t-17.5 -25.5t-17 -20.5t-17 -16t-14 -5.5q-16 0 -28.5 11t-12.5 25q0 13 16 42.5t42 71t28 44.5q-12 16 -40.5 44.5t-42 50t-13.5 44.5q0 15 10.5 24.5
t24.5 9.5q19 0 39.5 -20.5t41.5 -51t29 -38.5q64 115 95 115q15 0 26 -14.5t11 -29.5q0 -18 -12.5 -38t-36 -47t-34.5 -43q2 -2 15.5 -15t19.5 -19.5t19 -20t19.5 -23t15 -21t12 -22t3.5 -18.5z" />
    <glyph glyph-name="Oslash" unicode="&#xd8;" horiz-adv-x="425" 
d="M378 608q0 -12 -7.5 -35t-15.5 -40.5t-22.5 -47t-17.5 -37.5q84 -136 83 -243q-1 -76 -67 -133.5t-146 -56.5q-40 0 -72 21q-14 -33 -42 -80q-9 -14 -26 -14q-15 0 -18 13.5t1 27.5q19 64 36 108q-39 75 -37 191q6 243 89 367q14 21 45 21q35 -1 31 -47q0 -13 -8 -22l7 1
q6 0 15 -5.5t10 -11.5q6 -9 22 -29t25 -32q41 80 65 115q6 12 16 10q16 -2 25.5 -13.5t8.5 -27.5zM314 228q0 63 -40 136l-118 -244q21 -18 51 -18q50 -1 77.5 36.5t29.5 89.5zM111 249q0 -22 2 -33q41 96 48 115l61 118q-56 90 -60 99q-31 -77 -40 -138.5t-11 -160.5z" />
    <glyph glyph-name="Ugrave" unicode="&#xd9;" horiz-adv-x="550" 
d="M578 39q-1 -34 -24 -54.5t-59 -19.5q-57 2 -87.5 43t-36.5 103q-61 -119 -154 -119q-66 0 -109.5 41.5t-56.5 112.5q-10 69 -10 161q0 136 17 284q2 17 13 23.5t21 6.5q15 0 28 -11.5t12 -27.5q-9 -117 -9 -234q0 -137 11 -186q26 -79 83 -79q44 0 76 41t45.5 93
t13.5 103q0 28 0.5 74t2 100t1.5 74q1 22 3.5 32.5t10 18.5t22.5 8q23 0 36 -18t12 -50q-2 -142 -2 -194q0 -166 14 -243.5t55 -77.5l56 18q7 0 11 -8t4 -15zM306 689q0 -14 -15 -14q-17 0 -96 49t-85 67q-6 23 9.5 35.5t36.5 9.5q22 -3 86 -62.5t64 -84.5z" />
    <glyph glyph-name="Uacute" unicode="&#xda;" horiz-adv-x="550" 
d="M578 39q-1 -34 -24 -54.5t-59 -19.5q-57 2 -87.5 43t-36.5 103q-61 -119 -154 -119q-66 0 -109.5 41.5t-56.5 112.5q-10 69 -10 161q0 136 17 284q2 17 13 23.5t21 6.5q15 0 28 -11.5t12 -27.5q-9 -117 -9 -234q0 -137 11 -186q26 -79 83 -79q44 0 76 41t45.5 93
t13.5 103q0 28 0.5 74t2 100t1.5 74q1 22 3.5 32.5t10 18.5t22.5 8q23 0 36 -18t12 -50q-2 -142 -2 -194q0 -166 14 -243.5t55 -77.5l56 18q7 0 11 -8t4 -15zM174 692q0 26 64.5 85t85.5 62t36.5 -8.5t10.5 -34.5q-6 -17 -86 -67.5t-95 -50.5q-16 0 -16 14z" />
    <glyph glyph-name="Ucircumflex" unicode="&#xdb;" horiz-adv-x="550" 
d="M578 39q-1 -34 -24 -54.5t-59 -19.5q-57 2 -87.5 43t-36.5 103q-61 -119 -154 -119q-66 0 -109.5 41.5t-56.5 112.5q-10 69 -10 161q0 136 17 284q2 17 13 23.5t21 6.5q15 0 28 -11.5t12 -27.5q-9 -117 -9 -234q0 -137 11 -186q26 -79 83 -79q44 0 76 41t45.5 93
t13.5 103q0 28 0.5 74t2 100t1.5 74q1 22 3.5 32.5t10 18.5t22.5 8q23 0 36 -18t12 -50q-2 -142 -2 -194q0 -166 14 -243.5t55 -77.5l56 18q7 0 11 -8t4 -15zM371 702q0 -15 -5 -20t-16 -5q-9 0 -36.5 26.5t-50.5 52.5l-23 27q-82 -102 -99 -107q-10 -5 -17.5 2t-7.5 21
q0 33 54.5 107t78.5 74q26 0 74 -79.5t48 -98.5z" />
    <glyph glyph-name="Udieresis" unicode="&#xdc;" horiz-adv-x="550" 
d="M578 39q-1 -34 -24 -54.5t-59 -19.5q-57 2 -87.5 43t-36.5 103q-61 -119 -154 -119q-66 0 -109.5 41.5t-56.5 112.5q-10 69 -10 161q0 136 17 284q2 17 13 23.5t21 6.5q15 0 28 -11.5t12 -27.5q-9 -117 -9 -234q0 -137 11 -186q26 -79 83 -79q44 0 76 41t45.5 93
t13.5 103q0 28 0.5 74t2 100t1.5 74q1 22 3.5 32.5t10 18.5t22.5 8q23 0 36 -18t12 -50q-2 -142 -2 -194q0 -166 14 -243.5t55 -77.5l56 18q7 0 11 -8t4 -15zM408 744q0 -58 -56 -58q-28 0 -45.5 17.5t-17.5 46.5t16 46.5t43 17.5t43.5 -21.5t16.5 -48.5zM226 752
q0 -23 -16.5 -45.5t-39.5 -22.5q-21 0 -42 22.5t-21 43.5q0 26 19 43.5t44 17.5q24 0 40 -17t16 -42z" />
    <glyph glyph-name="Yacute" unicode="&#xdd;" horiz-adv-x="402" 
d="M417 690q-78 -119 -118 -207t-54 -177q-7 -56 -7 -125q0 -40 3.5 -143t3.5 -169q0 -43 -34 -43q-39 0 -43 44q-15 124 -20 218q-5 110 -11 144q-8 54 -37.5 111t-68 119t-55.5 104q-5 14 2 28t25 14q26 0 44 -25q17 -24 61.5 -101.5t68.5 -109.5q17 70 52.5 152.5
t86.5 150t96 67.5q16 0 17 -18t-12 -34zM83 693q0 26 64 85t85 62t37 -8.5t9 -34.5q-6 -18 -85.5 -68t-95.5 -50q-14 0 -14 14z" />
    <glyph glyph-name="Thorn" unicode="&#xde;" horiz-adv-x="530" 
d="M524 382q1 -31 -10 -59t-28.5 -49t-45.5 -40.5t-53 -32.5t-60 -26t-57 -19.5t-52.5 -15t-38.5 -11.5q2 -24 3 -35.5t2 -16t3.5 -24t6.5 -52.5q3 -30 -8 -46t-37 -14q-19 0 -32 13.5t-13 36.5q-1 26 -5.5 62.5t-6.5 63.5q-4 1 -13.5 3t-13.5 3t-9.5 3.5t-8 6.5t-3.5 9
q-3 15 44 49q-7 129 -23 339q-1 36 -4 97t-3 72q-3 61 39 65q21 4 39.5 -14t18.5 -43q0 -85 -1 -134q53 -8 110 -22.5t118 -37.5t101 -57.5t41 -73.5zM441 372q2 36 -95 70.5t-190 48.5q0 -39 2.5 -85t6.5 -104t6 -92q26 5 61.5 15t87 30t86 51t35.5 66z" />
    <glyph glyph-name="germandbls" unicode="&#xdf;" horiz-adv-x="435" 
d="M395 223q0 -64 -43.5 -139t-101.5 -75q-20 0 -40.5 16t-20.5 37q0 8 9 9q126 39 126 143q0 92 -133 92q-24 0 -37 14.5t-13 38.5q0 27 11.5 40t38.5 25q15 7 28 25.5t13 33.5q0 24 -35 24q-37 0 -60 -28t-29.5 -60t-6.5 -69l31 -228q0 -12 -10 -19.5t-25 -7.5
q-31 0 -36 36q-21 142 -21 211q0 41 8.5 82.5t27 81t52.5 64t79 24.5q49 0 80 -29t31 -71q0 -25 -15 -50t-29.5 -37.5t-36.5 -29.5q158 -29 158 -154z" />
    <glyph glyph-name="agrave" unicode="&#xe0;" horiz-adv-x="378" 
d="M343 45q-9 -6 -23.5 -6.5t-20.5 4.5q-22 18 -42 50.5t-23 55.5l-40 -78q-38 -58 -85 -55q-25 3 -43.5 26t-26.5 54t-11 60t-1 51q4 28 12 60t22.5 71t37.5 64.5t50 25.5q72 0 112 -66q3 -5 17 -1.5t21 -0.5q16 -11 16 -34q0 -8 -2.5 -22t-2.5 -16q-4 -55 6 -99t34 -102
q4 -13 1 -26t-8 -16zM122 98q25 0 52.5 67.5t27.5 125.5v31q-1 12 -11.5 24.5t-21.5 13.5q-35 0 -65 -118q-11 -29 -11 -80q0 -28 7 -46.5t22 -17.5zM239 488q0 -13 -14 -13q-17 0 -97 49.5t-84 66.5q-6 24 9 35.5t36 8.5q23 -3 86.5 -62.5t63.5 -84.5z" />
    <glyph glyph-name="aacute" unicode="&#xe1;" horiz-adv-x="378" 
d="M343 45q-9 -6 -23.5 -6.5t-20.5 4.5q-22 18 -42 50.5t-23 55.5l-40 -78q-38 -58 -85 -55q-25 3 -43.5 26t-26.5 54t-11 60t-1 51q4 28 12 60t22.5 71t37.5 64.5t50 25.5q72 0 112 -66q3 -5 17 -1.5t21 -0.5q16 -11 16 -34q0 -8 -2.5 -22t-2.5 -16q-4 -55 6 -99t34 -102
q4 -13 1 -26t-8 -16zM122 98q25 0 52.5 67.5t27.5 125.5v31q-1 12 -11.5 24.5t-21.5 13.5q-35 0 -65 -118q-11 -29 -11 -80q0 -28 7 -46.5t22 -17.5zM59 488q0 25 64 84.5t85 62.5q22 3 37.5 -8.5t8.5 -35.5q-5 -17 -85 -66.5t-95 -49.5t-15 13z" />
    <glyph glyph-name="acircumflex" unicode="&#xe2;" horiz-adv-x="378" 
d="M343 45q-9 -6 -23.5 -6.5t-20.5 4.5q-22 18 -42 50.5t-23 55.5l-40 -78q-38 -58 -85 -55q-25 3 -43.5 26t-26.5 54t-11 60t-1 51q4 28 12 60t22.5 71t37.5 64.5t50 25.5q72 0 112 -66q3 -5 17 -1.5t21 -0.5q16 -11 16 -34q0 -8 -2.5 -22t-2.5 -16q-4 -55 6 -99t34 -102
q4 -13 1 -26t-8 -16zM316 509q0 -15 -4.5 -20t-16.5 -5q-8 0 -35 26.5t-50 53.5l-24 26q-81 -101 -99 -107q-10 -4 -17.5 3.5t-7.5 20.5q0 32 55 106.5t78 74.5q26 0 73.5 -79t47.5 -100zM122 98q25 0 52.5 67.5t27.5 125.5v31q-1 12 -11.5 24.5t-21.5 13.5q-35 0 -65 -118
q-11 -29 -11 -80q0 -28 7 -46.5t22 -17.5z" />
    <glyph glyph-name="atilde" unicode="&#xe3;" horiz-adv-x="378" 
d="M343 45q-9 -6 -23.5 -6.5t-20.5 4.5q-22 18 -42 50.5t-23 55.5l-40 -78q-38 -58 -85 -55q-25 3 -43.5 26t-26.5 54t-11 60t-1 51q4 28 12 60t22.5 71t37.5 64.5t50 25.5q72 0 112 -66q3 -5 17 -1.5t21 -0.5q16 -11 16 -34q0 -8 -2.5 -22t-2.5 -16q-4 -55 6 -99t34 -102
q4 -13 1 -26t-8 -16zM125 655q24 0 43.5 -10t26.5 -17t22 -26q1 -1 5.5 -6.5t6 -7l5.5 -5.5t6.5 -5.5t6.5 -3t8 -1.5q12 0 22 10t13 27q1 12 2 16.5t5 11t11 7.5q35 4 35 -32q0 -107 -93 -107q-21 0 -38 8t-24.5 16.5t-19.5 24.5q-2 2 -8.5 9.5t-9.5 10t-8.5 7t-11 6
t-11.5 1.5q-13 0 -24.5 -13t-16.5 -32q-7 -35 -28 -35q-17 0 -25 7.5t-8 27.5q0 38 29.5 74.5t78.5 36.5zM122 98q25 0 52.5 67.5t27.5 125.5v31q-1 12 -11.5 24.5t-21.5 13.5q-35 0 -65 -118q-11 -29 -11 -80q0 -28 7 -46.5t22 -17.5z" />
    <glyph glyph-name="adieresis" unicode="&#xe4;" horiz-adv-x="380" 
d="M343 45q-9 -6 -23.5 -6.5t-20.5 4.5q-22 18 -42 50.5t-23 55.5l-40 -78q-38 -58 -85 -55q-25 3 -43.5 26t-26.5 54t-11 60t-1 51q4 28 12 60t22.5 71t37.5 64.5t50 25.5q72 0 112 -66q3 -5 17 -1.5t21 -0.5q16 -11 16 -34q0 -8 -2.5 -22t-2.5 -16q-4 -55 6 -99t34 -102
q4 -13 1 -26t-8 -16zM122 98q25 0 52.5 67.5t27.5 125.5v31q-1 12 -11.5 24.5t-21.5 13.5q-35 0 -65 -118q-11 -29 -11 -80q0 -28 7 -46.5t22 -17.5zM340 558q0 -59 -54 -59q-29 0 -46.5 17.5t-17.5 46.5t15.5 46.5t42.5 17.5t43.5 -21t16.5 -48zM159 566q0 -24 -16.5 -46
t-38.5 -22t-43 22t-21 43q0 25 19 42.5t45 17.5q23 0 39 -17t16 -40z" />
    <glyph glyph-name="aring" unicode="&#xe5;" horiz-adv-x="378" 
d="M343 45q-9 -6 -23.5 -6.5t-20.5 4.5q-22 18 -42 50.5t-23 55.5l-40 -78q-38 -58 -85 -55q-25 3 -43.5 26t-26.5 54t-11 60t-1 51q4 28 12 60t22.5 71t37.5 64.5t50 25.5q72 0 112 -66q3 -5 17 -1.5t21 -0.5q16 -11 16 -34q0 -8 -2.5 -22t-2.5 -16q-4 -55 6 -99t34 -102
q4 -13 1 -26t-8 -16zM301 579q0 -53 -42 -80.5t-98 -27.5q-58 0 -96 29.5t-38 86.5q0 29 13.5 60t27 51t13.5 22q0 4 -2.5 11t-2.5 10q0 10 12.5 16t24.5 6q11 0 33 -8q155 -94 155 -176zM122 98q25 0 52.5 67.5t27.5 125.5v31q-1 12 -11.5 24.5t-21.5 13.5q-35 0 -65 -118
q-11 -29 -11 -80q0 -28 7 -46.5t22 -17.5zM232 599q0 22 -24.5 50t-46.5 28q-23 0 -41.5 -30.5t-18.5 -56.5q0 -18 17 -36t42 -18q27 0 49.5 17.5t22.5 45.5z" />
    <glyph glyph-name="ccedilla" unicode="&#xe7;" horiz-adv-x="380" 
d="M351 -144q0 -58 -58.5 -99t-113.5 -41q-21 0 -42 13t-21 32q0 18 30 18q16 0 38 4.5t46.5 13.5t41 26.5t16.5 39.5q0 13 -11.5 22.5t-27.5 9.5l-73 -44q-16 0 -28.5 12.5t-12.5 28.5q0 18 17.5 68t18.5 76q-145 32 -145 186q0 74 63 135.5t136 61.5q46 0 79.5 -28
t33.5 -73q0 -5 -5 -10.5t-13 -5.5q-18 0 -43 21t-52 21q-47 0 -85 -41.5t-38 -88.5q0 -45 29 -75t67.5 -41t82.5 -11q31 0 56 5q14 2 23 -5.5t5 -22.5q-3 -18 -40.5 -27.5t-74.5 -9.5h-13q0 -11 -5.5 -30.5t-10.5 -33.5l-5 -14q28 7 42 7q42 0 67.5 -28.5t25.5 -71.5z" />
    <glyph glyph-name="egrave" unicode="&#xe8;" horiz-adv-x="349" 
d="M315 288q0 -124 -163 -124q-17 0 -51 4q0 -41 23.5 -66.5t65.5 -32.5q7 -1 25 -2.5t30 -3.5t25.5 -6t20.5 -13t7 -22q0 -26 -68 -26q-89 0 -146.5 42.5t-57.5 129.5q0 94 53 182.5t118 88.5q54 0 86 -49t32 -102zM237 263q15 13 4.5 52.5t-37.5 39.5q-63 0 -96 -113
q25 -5 51 -5q59 0 78 26zM301 502q0 -15 -15 -15q-16 0 -96.5 50t-83.5 67q-7 24 8 36t36 9q22 -4 86.5 -63.5t64.5 -83.5z" />
    <glyph glyph-name="eacute" unicode="&#xe9;" horiz-adv-x="349" 
d="M315 288q0 -124 -163 -124q-17 0 -51 4q0 -41 23.5 -66.5t65.5 -32.5q7 -1 25 -2.5t30 -3.5t25.5 -6t20.5 -13t7 -22q0 -26 -68 -26q-89 0 -146.5 42.5t-57.5 129.5q0 94 53 182.5t118 88.5q54 0 86 -49t32 -102zM237 263q15 13 4.5 52.5t-37.5 39.5q-63 0 -96 -113
q25 -5 51 -5q59 0 78 26zM107 502q0 24 63.5 83.5t85.5 63.5q21 3 36.5 -9t9.5 -36q-6 -17 -85 -67t-95 -50q-15 0 -15 15z" />
    <glyph glyph-name="ecircumflex" unicode="&#xea;" horiz-adv-x="358" 
d="M315 288q0 -124 -163 -124q-17 0 -51 4q0 -41 23.5 -66.5t65.5 -32.5q7 -1 25 -2.5t30 -3.5t25.5 -6t20.5 -13t7 -22q0 -26 -68 -26q-89 0 -146.5 42.5t-57.5 129.5q0 94 53 182.5t118 88.5q54 0 86 -49t32 -102zM237 263q15 13 4.5 52.5t-37.5 39.5q-63 0 -96 -113
q25 -5 51 -5q59 0 78 26zM324 509q0 -25 -19 -25q-9 0 -36.5 26.5t-50.5 53.5l-23 26q-84 -101 -100 -107q-10 -4 -18 3.5t-8 20.5q0 32 55.5 106.5t78.5 74.5q26 0 73.5 -79t47.5 -100z" />
    <glyph glyph-name="edieresis" unicode="&#xeb;" horiz-adv-x="396" 
d="M315 288q0 -124 -163 -124q-17 0 -51 4q0 -41 23.5 -66.5t65.5 -32.5q7 -1 25 -2.5t30 -3.5t25.5 -6t20.5 -13t7 -22q0 -26 -68 -26q-89 0 -146.5 42.5t-57.5 129.5q0 94 53 182.5t118 88.5q54 0 86 -49t32 -102zM237 263q15 13 4.5 52.5t-37.5 39.5q-63 0 -96 -113
q25 -5 51 -5q59 0 78 26zM349 558q0 -59 -56 -59q-29 0 -46.5 17.5t-17.5 46.5t16 46.5t44 17.5t44 -20.5t16 -48.5zM168 566q0 -24 -17 -46t-41 -22q-21 0 -41.5 22t-20.5 43q0 25 19.5 42.5t42.5 17.5q26 0 42 -16.5t16 -40.5z" />
    <glyph glyph-name="igrave" unicode="&#xec;" horiz-adv-x="211" 
d="M170 48q9 -29 -21 -36q-26 -13 -40 11q-21 38 -32.5 93.5t-9.5 98.5q2 93 13 154q1 6 10 10.5t18 3.5q14 0 23.5 -8.5t9.5 -22.5q-4 -35 -4 -82q0 -120 33 -222zM197 502q0 -15 -14 -15q-16 0 -96 50t-85 67q-6 24 9.5 36t36.5 9q22 -4 85.5 -63.5t63.5 -83.5z" />
    <glyph glyph-name="iacute" unicode="&#xed;" horiz-adv-x="211" 
d="M154 48q9 -29 -21 -36q-11 -6 -22.5 -3t-17.5 14q-21 38 -33 93t-10 99q1 63 13 154q1 6 10.5 10.5t18.5 3.5q13 0 22.5 -8.5t9.5 -22.5q-2 -52 -2 -82q0 -123 32 -222zM14 502q0 24 63 83.5t85 63.5q22 3 37 -9t9 -36q-4 -17 -84 -67t-97 -50q-13 0 -13 15z" />
    <glyph glyph-name="icircumflex" unicode="&#xee;" horiz-adv-x="242" 
d="M174 48q11 -28 -19 -36q-29 -13 -39 11q-22 37 -34.5 92.5t-10.5 99.5q6 107 13 154q1 6 10.5 10.5t18.5 3.5q14 0 23.5 -8.5t9.5 -22.5q-2 -52 -2 -82q0 -130 30 -222zM242 509q0 -15 -4.5 -20t-15.5 -5q-9 0 -36.5 26.5t-51.5 53.5l-23 26q-83 -101 -98 -107
q-11 -4 -19 3.5t-8 20.5q0 32 55.5 106.5t78.5 74.5q26 0 74 -79t48 -100z" />
    <glyph glyph-name="idieresis" unicode="&#xef;" horiz-adv-x="240" 
d="M185 48q10 -29 -19 -36q-13 -6 -24.5 -3t-16.5 14q-21 37 -32.5 92.5t-9.5 99.5q2 84 12 154q1 7 10 11t19 3q14 0 23 -8t9 -23q-2 -52 -2 -82q0 -126 31 -222zM267 558q0 -59 -54 -59q-30 0 -47.5 17.5t-17.5 46.5t16 46.5t43 17.5t43.5 -21t16.5 -48zM85 566
q0 -24 -16.5 -46t-40.5 -22q-21 0 -42 22t-21 43q0 25 20 42.5t43 17.5q26 0 41.5 -16.5t15.5 -40.5z" />
    <glyph glyph-name="eth" unicode="&#xf0;" horiz-adv-x="469" 
d="M26 149q0 70 58.5 114t133.5 44q57 0 111 -27q2 99 -43 188q-52 -33 -61 -42q-17 -9 -32 -4t-24 17q-9 15 -1 33.5t26 32.5q2 1 18.5 11t30.5 17q-27 33 -71 64q-17 10 -17 26q0 14 12.5 25t29.5 15q16 2 28 -7q52 -35 91 -83q15 9 35 20.5t32.5 18.5t15.5 9q20 11 34 -7
q13 -12 10.5 -25t-8.5 -19.5t-19 -15.5q-49 -35 -58 -41q65 -117 63 -273q-3 -115 -67 -190t-171 -75q-70 0 -113.5 49t-43.5 125zM97 133q0 -42 26 -63.5t68 -21.5q43 0 85 40t48 109q-43 33 -109 33q-50 0 -84 -22t-34 -75z" />
    <glyph glyph-name="ntilde" unicode="&#xf1;" horiz-adv-x="437" 
d="M437 59q0 -15 -12 -24t-27 -9q-23 0 -48 17t-40 38q-26 37 -38.5 95.5t-16 96.5t-11.5 38q-15 0 -31.5 -45t-37.5 -109.5t-40 -94.5q-5 -12 -18 -22t-25 -10t-23 14t-12 26q-6 28 -6 60l2 60q0 98 -12 207q-1 11 8.5 20t19.5 9q34 0 39 -31q24 -125 23 -188q8 13 25.5 68
t42 90.5t64.5 35.5q31 0 43 -33q7 -26 19.5 -93.5t27.5 -105t45 -62.5q3 -3 10 -9t9.5 -8.5l7.5 -7.5t7 -8t3.5 -7t1.5 -8zM156 655q24 0 43.5 -10t26 -16.5t23.5 -26.5q20 -29 37 -29q28 0 34 37q0 2 1 5.5t1 5.5t1 5l1.5 4.5t1.5 4t2 4t2.5 3t3.5 2.5t4 1q36 4 36 -32
q0 -107 -94 -107q-20 0 -37 8.5t-24.5 16t-21.5 24.5q-1 1 -4 5t-4 5t-4 4.5t-4.5 5t-4.5 4t-5 3.5t-4.5 3t-5 2.5t-6 1t-6.5 0.5q-27 0 -41 -45q-5 -35 -26 -35q-34 0 -34 35q0 38 29.5 74.5t78.5 36.5z" />
    <glyph glyph-name="ograve" unicode="&#xf2;" horiz-adv-x="335" 
d="M308 207q0 -69 -51 -127t-120 -58q-27 0 -46.5 6.5t-31.5 22t-19 28.5t-9.5 39.5t-3 40t-0.5 43.5v16q0 32 5.5 63.5t18.5 65.5t41.5 55t68.5 21q64 0 105.5 -74.5t41.5 -141.5zM244 226q0 42 -25 87t-63 45q-33 0 -48.5 -49.5t-15.5 -118.5q0 -18 1 -29t4.5 -26t13 -23
t24.5 -8q48 0 78.5 37t30.5 85zM249 502q0 -15 -15 -15q-16 0 -95.5 50t-85.5 67q-6 24 9.5 36t35.5 9q22 -4 86.5 -63.5t64.5 -83.5z" />
    <glyph glyph-name="oacute" unicode="&#xf3;" horiz-adv-x="335" 
d="M308 207q0 -69 -51 -127t-120 -58q-27 0 -46.5 6.5t-31.5 22t-19 28.5t-9.5 39.5t-3 40t-0.5 43.5v16q0 32 5.5 63.5t18.5 65.5t41.5 55t68.5 21q64 0 105.5 -74.5t41.5 -141.5zM244 226q0 42 -25 87t-63 45q-33 0 -48.5 -49.5t-15.5 -118.5q0 -18 1 -29t4.5 -26t13 -23
t24.5 -8q48 0 78.5 37t30.5 85zM81 502q0 24 63 83.5t85 63.5q22 3 37.5 -9t9.5 -36q-6 -17 -86 -67t-95 -50q-14 0 -14 15z" />
    <glyph glyph-name="ocircumflex" unicode="&#xf4;" horiz-adv-x="335" 
d="M308 207q0 -69 -51 -127t-120 -58q-27 0 -46.5 6.5t-31.5 22t-19 28.5t-9.5 39.5t-3 40t-0.5 43.5v16q0 32 5.5 63.5t18.5 65.5t41.5 55t68.5 21q64 0 105.5 -74.5t41.5 -141.5zM244 226q0 42 -25 87t-63 45q-33 0 -48.5 -49.5t-15.5 -118.5q0 -18 1 -29t4.5 -26t13 -23
t24.5 -8q48 0 78.5 37t30.5 85zM286 509q0 -15 -4.5 -20t-15.5 -5q-9 0 -36.5 26.5t-50.5 53.5l-23 26q-82 -101 -99 -107q-11 -4 -19 3.5t-8 20.5q0 32 55.5 106.5t78.5 74.5q26 0 74 -79t48 -100z" />
    <glyph glyph-name="otilde" unicode="&#xf5;" horiz-adv-x="335" 
d="M308 207q0 -69 -51 -127t-120 -58q-27 0 -46.5 6.5t-31.5 22t-19 28.5t-9.5 39.5t-3 40t-0.5 43.5v16q0 32 5.5 63.5t18.5 65.5t41.5 55t68.5 21q64 0 105.5 -74.5t41.5 -141.5zM244 226q0 42 -25 87t-63 45q-33 0 -48.5 -49.5t-15.5 -118.5q0 -18 1 -29t4.5 -26t13 -23
t24.5 -8q48 0 78.5 37t30.5 85zM106 655q23 0 42.5 -10t26.5 -17t22 -26q2 -2 5.5 -6.5t5.5 -7t5.5 -6t6.5 -5t7 -3t8 -1.5q13 0 22.5 10t11.5 27q4 32 20 35q34 4 34 -32q0 -107 -94 -107q-8 0 -15.5 1.5t-13 2.5t-11.5 5t-9.5 6t-9.5 8t-7.5 8t-8 9.5t-7.5 8.5
q-2 2 -5.5 6.5t-5.5 6t-5.5 5.5t-5.5 5.5t-5.5 4t-6.5 3.5t-7 2t-8 1q-13 0 -24 -13t-16 -32q-5 -35 -28 -35q-32 0 -32 35q0 38 29.5 74.5t78.5 36.5z" />
    <glyph glyph-name="odieresis" unicode="&#xf6;" horiz-adv-x="335" 
d="M308 207q0 -69 -51 -127t-120 -58q-27 0 -46.5 6.5t-31.5 22t-19 28.5t-9.5 39.5t-3 40t-0.5 43.5v16q0 32 5.5 63.5t18.5 65.5t41.5 55t68.5 21q64 0 105.5 -74.5t41.5 -141.5zM244 226q0 42 -25 87t-63 45q-33 0 -48.5 -49.5t-15.5 -118.5q0 -18 1 -29t4.5 -26t13 -23
t24.5 -8q48 0 78.5 37t30.5 85zM317 558q0 -59 -53 -59q-29 0 -47.5 18t-18.5 46t16.5 46t42.5 18q27 0 43.5 -21t16.5 -48zM135 566q0 -24 -16 -46t-38 -22q-23 0 -43.5 22t-20.5 43q0 25 19.5 42.5t44.5 17.5q24 0 39 -16.5t15 -40.5z" />
    <glyph glyph-name="divide" unicode="&#xf7;" horiz-adv-x="401" 
d="M348 323q3 -28 -24 -35q-40 -16 -116 -30t-101 -14q-21 0 -37.5 9.5t-16.5 27.5q0 27 28 35q43 14 118 23.5t109 9.5q35 0 40 -26zM237 462q0 -22 -15 -38t-37 -16q-27 0 -44 20t-17 49q0 24 12.5 44.5t35.5 20.5q28 0 46.5 -25.5t18.5 -54.5zM282 155q0 -29 -18 -54
t-46 -25q-23 0 -35 19.5t-12 45.5q0 27 17 48t44 21q22 0 36 -16t14 -39z" />
    <glyph glyph-name="oslash" unicode="&#xf8;" horiz-adv-x="335" 
d="M293 424q-4 -24 -29 -69q44 -74 44 -148q0 -69 -51 -127t-120 -58q-35 0 -55 10q-4 -5 -14.5 -22t-17.5 -26q-8 -10 -18 -9q-21 1 -11 28q0 2 24 65q-18 31 -18 106v44q0 32 5.5 63.5t18.5 65.5t41.5 55t68.5 21q32 0 62 -23q20 32 33 49q7 9 13 8q11 -2 18 -12t6 -21z
M244 226q0 29 -16 67q-20 -34 -55 -98t-50 -90q5 -1 12 -1q48 0 78.5 37t30.5 85zM92 190v-22q9 16 38 71l60 108q-20 11 -34 11q-33 0 -48.5 -49.5t-15.5 -118.5z" />
    <glyph glyph-name="ugrave" unicode="&#xf9;" 
d="M502 68q0 -31 -28 -46t-63 -15q-31 0 -53 16t-33 43t-15.5 51.5t-4.5 50.5q-22 -72 -64.5 -128.5t-103.5 -56.5q-23 0 -40.5 9.5t-27.5 28.5t-16 37t-8.5 46.5t-3 43.5t-0.5 41q0 132 20 180q3 10 11.5 18t20.5 8q14 0 22 -10t8 -23q0 -23 -3.5 -88.5t-3.5 -99.5
q0 -40 9.5 -75.5t26.5 -35.5q37 0 65 53t41 116.5t30.5 116.5t35.5 53q44 0 44 -60q0 -7 -1.5 -36.5t-1.5 -50.5q0 -187 72 -187q15 0 27.5 7.5t15.5 8.5q8 3 15 -3t7 -13zM278 502q0 -15 -14 -15q-17 0 -97 50t-84 67q-6 24 9.5 36t36.5 9q22 -4 85.5 -63.5t63.5 -83.5z
" />
    <glyph glyph-name="uacute" unicode="&#xfa;" 
d="M502 68q0 -31 -28 -46t-63 -15q-31 0 -53 16t-33 43t-15.5 51.5t-4.5 50.5q-22 -72 -64.5 -128.5t-103.5 -56.5q-23 0 -40.5 9.5t-27.5 28.5t-16 37t-8.5 46.5t-3 43.5t-0.5 41q0 132 20 180q3 10 11.5 18t20.5 8q14 0 22 -10t8 -23q0 -23 -3.5 -88.5t-3.5 -99.5
q0 -40 9.5 -75.5t26.5 -35.5q37 0 65 53t41 116.5t30.5 116.5t35.5 53q44 0 44 -60q0 -7 -1.5 -36.5t-1.5 -50.5q0 -187 72 -187q15 0 27.5 7.5t15.5 8.5q8 3 15 -3t7 -13zM118 502q0 24 63.5 83.5t85.5 63.5q21 3 36.5 -9t8.5 -36q-4 -17 -84 -67t-96 -50q-14 0 -14 15z
" />
    <glyph glyph-name="ucircumflex" unicode="&#xfb;" 
d="M502 68q0 -31 -28 -46t-63 -15q-31 0 -53 16t-33 43t-15.5 51.5t-4.5 50.5q-22 -72 -64.5 -128.5t-103.5 -56.5q-23 0 -40.5 9.5t-27.5 28.5t-16 37t-8.5 46.5t-3 43.5t-0.5 41q0 132 20 180q3 10 11.5 18t20.5 8q14 0 22 -10t8 -23q0 -23 -3.5 -88.5t-3.5 -99.5
q0 -40 9.5 -75.5t26.5 -35.5q37 0 65 53t41 116.5t30.5 116.5t35.5 53q44 0 44 -60q0 -7 -1.5 -36.5t-1.5 -50.5q0 -187 72 -187q15 0 27.5 7.5t15.5 8.5q8 3 15 -3t7 -13zM336 509q0 -15 -4.5 -20t-15.5 -5q-9 0 -36.5 26.5t-49.5 53.5l-23 26q-83 -101 -100 -107
q-10 -4 -17.5 3t-7.5 21q0 32 55 106.5t78 74.5q26 0 73.5 -79t47.5 -100z" />
    <glyph glyph-name="udieresis" unicode="&#xfc;" 
d="M502 68q0 -31 -28 -46t-63 -15q-31 0 -53 16t-33 43t-15.5 51.5t-4.5 50.5q-22 -72 -64.5 -128.5t-103.5 -56.5q-23 0 -40.5 9.5t-27.5 28.5t-16 37t-8.5 46.5t-3 43.5t-0.5 41q0 132 20 180q3 10 11.5 18t20.5 8q14 0 22 -10t8 -23q0 -23 -3.5 -88.5t-3.5 -99.5
q0 -40 9.5 -75.5t26.5 -35.5q37 0 65 53t41 116.5t30.5 116.5t35.5 53q44 0 44 -60q0 -7 -1.5 -36.5t-1.5 -50.5q0 -187 72 -187q15 0 27.5 7.5t15.5 8.5q8 3 15 -3t7 -13zM356 558q0 -59 -54 -59q-28 0 -46 17.5t-18 46.5t16 46.5t41 17.5q28 0 44.5 -20.5t16.5 -48.5z
M174 566q0 -24 -16.5 -46t-38.5 -22t-42 22t-20 43q0 25 18.5 42.5t43.5 17.5q24 0 39.5 -16.5t15.5 -40.5z" />
    <glyph glyph-name="yacute" unicode="&#xfd;" horiz-adv-x="399" 
d="M372 373q-2 -29 -17.5 -88.5t-30.5 -104.5l-14 -45q-87 -238 -186 -351q-18 -18 -43 -18q-16 1 -24.5 12.5t-6.5 24.5q0 25 31 52q22 27 40.5 56.5t29 51t31.5 69.5q-56 54 -103 165.5t-64 191.5q-4 15 8 25t24 10q21 -1 33 -19t27 -65q12 -39 45 -114t59 -113
q26 55 60.5 166t36.5 118q4 14 28 14q38 -2 36 -38zM131 502q0 24 63.5 83.5t85.5 63.5q22 3 37 -9t9 -36q-6 -17 -85.5 -67t-94.5 -50t-15 15z" />
    <glyph glyph-name="thorn" unicode="&#xfe;" horiz-adv-x="467" 
d="M439 240q-10 -77 -62 -126.5t-122 -51.5q-57 -4 -110 21q-1 -20 -1 -62q0 -32 1 -89.5t1 -79.5q0 -60 -8 -78q-3 -9 -13.5 -16.5t-20.5 -8.5q-15 -4 -25 4.5t-10 23.5q-1 21 -1 68v68q-2 76 -20.5 350t-26.5 345q-2 15 5.5 27t23.5 12q14 2 22.5 -6t10.5 -15.5t6 -28.5
q2 -9 15 -171t12 -170q26 87 81 134.5t104 47.5q43 2 74 -19.5t44 -55.5t18 -65.5t2 -57.5zM286 360q-82 -3 -137 -210q57 -19 96 -19q112 0 115 120q1 18 -1 33t-8.5 34.5t-23 31t-41.5 10.5z" />
    <glyph glyph-name="ydieresis" unicode="&#xff;" horiz-adv-x="399" 
d="M372 373q-2 -29 -17.5 -88.5t-30.5 -104.5l-14 -45q-87 -238 -186 -351q-18 -18 -43 -18q-16 1 -24.5 12.5t-6.5 24.5q0 25 31 52q22 27 40.5 56.5t29 51t31.5 69.5q-56 54 -103 165.5t-64 191.5q-4 15 8 25t24 10q21 -1 33 -19t27 -65q12 -39 45 -114t59 -113
q26 55 60.5 166t36.5 118q4 14 28 14q38 -2 36 -38zM360 558q0 -59 -54 -59q-29 0 -46.5 17.5t-17.5 46.5t16 46.5t43 17.5q26 0 42.5 -21t16.5 -48zM179 566q0 -24 -16.5 -46t-39.5 -22q-22 0 -42 22t-20 43q0 25 18.5 42.5t43.5 17.5q24 0 40 -16.5t16 -40.5z" />
    <glyph glyph-name="dotlessi" unicode="&#x131;" horiz-adv-x="185" 
d="M145 48q7 -29 -21 -36q-12 -6 -23.5 -3t-16.5 14q-20 38 -32.5 93.5t-10.5 98.5q4 98 12 154q5 16 30 14q14 0 23.5 -8.5t9.5 -22.5q-5 -43 -5 -82q0 -121 34 -222z" />
    <glyph glyph-name="Lslash" unicode="&#x141;" horiz-adv-x="487" 
d="M240 350q-16 -13 -66 -44q3 -102 11 -172q157 21 259 47q46 11 55 -17q9 -30 -37 -47q-148 -64 -315 -85q-25 -3 -37 7.5t-13 27.5q-8 96 -12 182q-31 -20 -37 -26q-17 -10 -32 -5t-24 17q-9 16 -1 34t26 32q32 20 66 37v45q0 128 9 240q1 15 15.5 23t29.5 8q47 0 45 -46
q-8 -115 -8 -219q10 5 21 11.5t18 10.5t10 5q22 12 33 -5q13 -14 10.5 -26.5t-8 -19.5t-18.5 -15z" />
    <glyph glyph-name="lslash" unicode="&#x142;" horiz-adv-x="254" 
d="M240 330q-31 -25 -80 -53q5 -64 18.5 -143.5t13.5 -97.5q0 -36 -30 -36q-29 0 -34 16q-32 73 -41 213q-35 -22 -39 -26q-18 -10 -32.5 -5t-23.5 17q-9 15 -0.5 34t25.5 31q20 15 66 38v201q0 97 -1 132q0 12 9.5 21t24.5 9q45 0 45 -70q0 -17 -1 -117t-1 -134
q42 23 64 37q22 10 33 -7q13 -13 10.5 -25.5t-8 -19.5t-18.5 -15z" />
    <glyph glyph-name="Scaron" unicode="&#x160;" horiz-adv-x="402" 
d="M376 182q0 -98 -46.5 -151t-128.5 -53q-80 0 -127 54t-47 126q0 26 12 60q5 26 31 26q15 0 23.5 -14t8.5 -33q0 -50 27 -93t75 -43q40 0 65.5 32.5t25.5 88.5q0 33 -26.5 66t-63.5 62t-74.5 59.5t-64 70t-26.5 81.5q0 58 28 102t86 44q76 0 132 -62q20 -23 20 -60
q0 -48 -27 -63l-6 -2q-6 -2 -10 -2.5t-9.5 -0.5t-10.5 2.5t-9 7.5q-5 9 -4 15t4 13l4 7q0 31 -19 53t-53 22q-25 0 -39 -22.5t-14 -44.5q0 -31 27 -63t65.5 -61.5t77.5 -61.5t66 -74t27 -88zM305 883q0 -20 -48 -98.5t-74 -78.5q-24 0 -79 73t-55 106q0 14 8 22t18 2
q8 -2 32.5 -29t45.5 -52l21 -26q91 106 110 106q12 0 16.5 -5t4.5 -20z" />
    <glyph glyph-name="scaron" unicode="&#x161;" horiz-adv-x="354" 
d="M326 71q-6 -48 -53 -65t-92 -9q-59 5 -108.5 35.5t-45.5 87.5q3 17 14.5 34t29.5 15q6 0 9 -6t5 -17.5t2 -12.5q0 -26 36.5 -47.5t65.5 -22.5q56 -4 56 19q1 22 -21 46t-53.5 47t-63 48t-51.5 55.5t-16 61.5q6 57 60 82.5t130 21.5q27 0 45.5 -13.5t14.5 -31.5
q-3 -23 -40 -23q-10 0 -40 4q-27 3 -57 -7.5t-30 -35.5q-5 -13 27 -45q12 -10 42.5 -33t50.5 -40.5t42.5 -41.5t33 -51t7.5 -55zM305 654q0 -20 -48 -98.5t-74 -78.5q-23 0 -78.5 73.5t-55.5 105.5q0 14 8 21.5t18 2.5q8 -2 32.5 -29t45.5 -53l21 -25q91 106 110 106
q12 0 16.5 -5t4.5 -20z" />
    <glyph glyph-name="Ydieresis" unicode="&#x178;" horiz-adv-x="402" 
d="M417 690q-78 -119 -118 -207t-54 -177q-7 -56 -7 -125q0 -40 3.5 -143t3.5 -169q0 -43 -34 -43q-39 0 -43 44q-15 124 -20 218q-5 110 -11 144q-8 54 -37.5 111t-68 119t-55.5 104q-5 14 2 28t25 14q26 0 44 -25q17 -24 61.5 -101.5t68.5 -109.5q17 70 52.5 152.5
t86.5 150t96 67.5q16 0 17 -18t-12 -34zM289 744q0 -58 -55 -58q-29 0 -46.5 17.5t-17.5 46.5t15.5 46.5t42.5 17.5q28 0 44.5 -21.5t16.5 -48.5zM107 752q0 -24 -17 -46t-40 -22q-21 0 -42 22.5t-21 43.5q0 25 19.5 43t43.5 18q25 0 41 -17t16 -42z" />
    <glyph glyph-name="Zcaron" unicode="&#x17d;" horiz-adv-x="528" 
d="M501 78q0 -7 -2.5 -13t-9.5 -10.5t-10 -7t-13 -6.5l-10 -4q-139 -53 -338 -53q-35 0 -53 10t-15 36q0 4 23.5 41t73 111t79.5 121q46 75 84 148t45 95q-11 1 -71.5 2.5t-123.5 5t-99 9.5q-35 8 -35 46q3 16 14 24t25 6q91 -13 240 -13h68h6.5h9.5h10.5t11 -1t10.5 -2
t10.5 -3t8 -4.5t5.5 -6t2 -8.5q0 -72 -112 -270q-54 -96 -162 -250q124 0 223 15q60 6 62 6q43 0 43 -24zM377 858q0 -20 -48 -99t-73 -79q-23 0 -78 74t-55 107q0 13 7.5 20t17.5 3q8 -3 33 -29.5t47 -52.5l21 -25q88 106 109 106q11 0 15 -5t4 -20z" />
    <glyph glyph-name="zcaron" unicode="&#x17e;" horiz-adv-x="387" 
d="M383 104q31 9 41 -9q12 -22 -14 -44q-37 -24 -72.5 -35t-56.5 -12.5t-65 -1.5q-46 0 -94 14t-79 40q-17 11 -17 28q0 20 17 34q155 128 226 204q0 9 -42 9q-53 0 -120 -17q-14 -3 -27.5 1.5t-16.5 18.5q-3 12 2.5 24t19.5 16q62 21 144 21q45 0 83 -15t38 -44
q0 -16 -16 -40t-49 -56t-55.5 -52t-62.5 -54t-44 -37q47 -27 115 -27q77 0 145 34zM322 654q0 -20 -48 -98.5t-73 -78.5q-23 0 -78.5 73.5t-55.5 105.5q0 14 8 21.5t17 2.5q8 -2 33 -29t46 -53l21 -25q89 106 110 106q11 0 15.5 -5t4.5 -20z" />
    <glyph glyph-name="florin" unicode="&#x192;" horiz-adv-x="375" 
d="M23 -158q38 0 67 107.5t40.5 219t11.5 180.5q-48 -5 -60 -5q-9 0 -26 2t-19 2q-17 1 -27.5 13.5t-8.5 29.5q3 36 104 32q46 0 43 3q1 73 19.5 156.5t61.5 152t99 68.5q58 0 92 -39.5t34 -98.5q0 -18 -9 -27t-22 -9q-34 0 -41 34q-15 71 -59 57q-39 -11 -67.5 -102.5
t-34.5 -194.5q62 -2 114 -2q19 0 31 -7.5t7 -21.5q-5 -11 -30.5 -17.5t-66 -12.5t-58.5 -11q0 -43 -2 -90.5t-8 -121.5t-20 -137.5t-34 -122.5t-54.5 -93.5t-77.5 -34.5q-59 0 -97.5 42.5t-30.5 98.5q7 47 41 47q16 0 27 -13t11 -32q0 -24 13.5 -38t36.5 -14z" />
    <glyph glyph-name="circumflex" unicode="&#x2c6;" horiz-adv-x="382" 
d="M322 509q0 -15 -4.5 -20t-15.5 -5q-9 0 -36.5 26.5t-50.5 53.5l-23 26q-83 -101 -100 -107q-9 -4 -17 3.5t-8 20.5q0 32 55.5 106.5t78.5 74.5q25 0 73 -79.5t48 -99.5z" />
    <glyph glyph-name="caron" unicode="&#x2c7;" horiz-adv-x="382" 
d="M322 654q0 -20 -48 -98.5t-73 -78.5q-23 0 -78.5 73.5t-55.5 105.5q0 14 8 21.5t17 2.5q8 -2 33 -29t46 -53l21 -25q89 106 110 106q11 0 15.5 -5t4.5 -20z" />
    <glyph glyph-name="breve" unicode="&#x2d8;" horiz-adv-x="395" 
d="M329 635q0 -61 -36.5 -106.5t-94.5 -45.5q-65 0 -109 53t-44 121q0 47 29 47q19 0 27.5 -9.5t14.5 -32.5q6 -40 29 -68t47 -28q28 0 43.5 18.5t19 41.5t9 50t15.5 38q8 6 14 6q36 0 36 -85z" />
    <glyph glyph-name="dotaccent" unicode="&#x2d9;" horiz-adv-x="192" 
d="M152 573q0 -21 -14.5 -37t-35.5 -16q-28 0 -45 20t-17 49q0 23 13 43.5t35 20.5q28 0 46 -25t18 -55z" />
    <glyph glyph-name="ring" unicode="&#x2da;" horiz-adv-x="344" 
d="M306 579q0 -53 -41.5 -80.5t-96.5 -27.5q-59 0 -96 29.5t-37 86.5q0 29 12.5 60t25 51t12.5 22q0 4 -1.5 11t-1.5 10q0 10 12.5 16t24.5 6q15 0 31 -8q156 -91 156 -176zM238 599q0 21 -24.5 49.5t-45.5 28.5q-25 0 -43.5 -30t-18.5 -57q0 -17 17.5 -35.5t42.5 -18.5
q26 0 49 18t23 45z" />
    <glyph glyph-name="ogonek" unicode="&#x2db;" horiz-adv-x="290" 
d="M255 -176q0 -28 -44 -49.5t-77 -21.5q-47 0 -73 30t-26 79q0 88 147 208q13 13 23 10q30 -5 24 -41q-2 -17 -31.5 -53.5t-57 -73t-27.5 -57.5q0 -13 11 -22t25 -9l81 21q25 0 25 -21z" />
    <glyph glyph-name="tilde" unicode="&#x2dc;" horiz-adv-x="422" 
d="M156 655q24 0 43.5 -10t26 -16.5t23.5 -26.5q20 -29 37 -29q28 0 34 37q0 2 1 5.5t1 5.5t1 5l1.5 4.5t1.5 4t2 4t2.5 3t3.5 2.5t4 1q36 4 36 -32q0 -107 -94 -107q-20 0 -37 8.5t-24.5 16t-21.5 24.5q-1 1 -4 5t-4 5t-4 4.5t-4.5 5t-4.5 4t-5 3.5t-4.5 3t-5 2.5t-6 1
t-6.5 0.5q-27 0 -41 -45q-5 -35 -26 -35q-34 0 -34 35q0 38 29.5 74.5t78.5 36.5z" />
    <glyph glyph-name="hungarumlaut" unicode="&#x2dd;" horiz-adv-x="389" 
d="M4 502q0 24 64.5 83.5t86.5 63.5q22 3 37 -9t9 -36q-5 -17 -85 -67t-95 -50q-17 0 -17 15zM196 502q0 24 64 83.5t87 63.5q21 3 35.5 -9t8.5 -36q-5 -17 -85 -67t-95 -50t-15 15z" />
    <glyph glyph-name="endash" unicode="&#x2013;" horiz-adv-x="558" 
d="M519 329q0 -48 -89 -50h-6q-50 -2 -89 -2q-129 0 -248 7q-19 2 -33 13.5t-14 28.5q0 36 70 36q63 0 173.5 5.5t166.5 5.5q30 0 49.5 -11t19.5 -33z" />
    <glyph glyph-name="emdash" unicode="&#x2014;" horiz-adv-x="683" 
d="M643 329q0 -48 -88 -50h-6q-50 -2 -114 -2q-229 0 -348 7q-19 2 -33 13.5t-14 28.5q0 36 70 36q63 0 236.5 5.5t229.5 5.5q67 0 67 -44z" />
    <glyph glyph-name="quoteleft" unicode="&#x2018;" horiz-adv-x="234" 
d="M181 416q0 -15 -10.5 -24.5t-26.5 -9.5q-39 0 -65 41.5t-26 81.5q0 39 23.5 95t57.5 56q40 0 40 -40q0 -14 -21.5 -54.5t-21.5 -70.5q0 -21 25 -38.5t25 -36.5z" />
    <glyph glyph-name="quoteright" unicode="&#x2019;" horiz-adv-x="256" 
d="M203 530q0 -45 -23.5 -96.5t-63.5 -51.5q-11 0 -23 10t-12 20q0 16 30 48t30 65q0 26 -13.5 39t-30.5 15.5t-30.5 11.5t-13.5 27q0 38 49 38q47 0 74 -38.5t27 -87.5z" />
    <glyph glyph-name="quotesinglbase" unicode="&#x201a;" horiz-adv-x="256" 
d="M203 4q0 -44 -23.5 -96.5t-63.5 -52.5q-12 0 -23.5 10t-11.5 22q0 15 15 29.5t30 35t15 48.5q0 25 -13.5 38.5t-30.5 16t-30.5 12.5t-13.5 28q0 36 49 36q47 0 74 -38.5t27 -88.5z" />
    <glyph glyph-name="quotedblleft" unicode="&#x201c;" horiz-adv-x="410" 
d="M355 423q0 -37 -48 -37t-75 38.5t-27 86.5q0 27 8.5 60.5t30 62.5t49.5 29q11 0 23 -11t12 -21q0 -17 -30 -52t-30 -60q0 -26 13.5 -39.5t30 -16t30 -12t13.5 -28.5zM181 416q0 -15 -10.5 -24.5t-26.5 -9.5q-39 0 -65 41.5t-26 81.5q0 39 23.5 95t57.5 56q40 0 40 -40
q0 -14 -21.5 -54.5t-21.5 -70.5q0 -21 25 -38.5t25 -36.5z" />
    <glyph glyph-name="quotedblright" unicode="&#x201d;" horiz-adv-x="410" 
d="M355 537q0 -35 -19.5 -82t-46.5 -65q-4 -4 -18 -4q-17 0 -28 10.5t-11 28.5q0 15 23 55.5t23 69.5q0 21 -25 40t-25 36t10.5 27t26.5 10q37 0 63.5 -42.5t26.5 -83.5zM203 530q0 -44 -17.5 -83t-52.5 -60q-8 -5 -17 -5q-11 0 -23 10t-12 20q0 17 30 52.5t30 60.5
q0 26 -13.5 39t-30.5 15.5t-30.5 11.5t-13.5 27q0 38 49 38q47 0 74 -38.5t27 -87.5z" />
    <glyph glyph-name="quotedblbase" unicode="&#x201e;" horiz-adv-x="410" 
d="M355 14q0 -40 -24.5 -96t-59.5 -56q-17 0 -28 10.5t-11 29.5q0 14 23 54t23 69q0 20 -25 39t-25 38q0 15 10.5 24t26.5 9q37 0 63.5 -41.5t26.5 -79.5zM203 4q0 -44 -23.5 -96.5t-63.5 -52.5q-12 0 -23.5 10t-11.5 22q0 4 6 18q54 54 54 95q0 25 -13.5 38.5t-30.5 16
t-30.5 12.5t-13.5 28q0 36 49 36q47 0 74 -38.5t27 -88.5z" />
    <glyph glyph-name="dagger" unicode="&#x2020;" horiz-adv-x="447" 
d="M421 440q0 -10 -10 -18t-31 -14t-35 -9t-43 -7t-33 -5q0 -25 -2 -103.5t-3 -161.5t-1 -149q0 -123 5 -195q1 -9 -7.5 -17t-17.5 -10q-24 -2 -33 112.5t-9 286.5q0 52 0.5 106t1 89t0.5 39q-18 1 -50.5 -2.5t-44.5 -3.5q-28 0 -49 9q-30 15 -32 39q-1 17 8.5 28.5
t26.5 12.5q9 0 16 -2q49 -16 123 -15q0 12 -1.5 58t-1.5 73q0 72 5 94q1 19 29 23q16 1 25 -10.5t10 -29.5q3 -30 3 -66l-2 -103q0 -26 1 -40h5q5 0 15 0.5t20.5 1t21.5 1.5t19 2q71 9 71 -14z" />
    <glyph glyph-name="daggerdbl" unicode="&#x2021;" horiz-adv-x="467" 
d="M47 2q0 7 5.5 13.5t16.5 11.5t21.5 9t28 7.5l27.5 5.5t28 4.5t23 3.5q0 38 4 73q0 55 0.5 113.5t1 97t0.5 43.5q-18 1 -50.5 -2.5t-44.5 -3.5q-28 0 -49 9q-30 15 -32 39q-1 17 8.5 28.5t26.5 12.5q9 0 16 -2q49 -16 123 -15q0 12 -1.5 58t-1.5 73q0 72 5 94q1 19 29 23
q16 1 25 -10.5t10 -29.5q3 -30 3 -66l-2 -103q0 -26 1 -40h5q5 0 15 0.5t20.5 1t21.5 1.5t19 2q71 9 71 -14q0 -10 -10 -18t-31 -14t-35 -9t-43 -7t-33 -5l-5 -257q1 -37 1 -71q16 -1 48 2t46 3q30 0 51 -7q27 -16 29 -41q1 -16 -8.5 -27.5t-26.5 -12.5q-8 0 -14 1
q-52 16 -123 15q0 -12 0.5 -57t0.5 -73q0 -51 -1 -70q0 -44 -32 -47q-15 -1 -24 10.5t-10 28.5q-5 26 -5 67l2 102q0 26 -1 40h-5q-5 0 -14.5 -0.5t-19.5 -1t-21 -1.5t-19 -2q-20 -4 -45.5 -2t-25.5 16z" />
    <glyph glyph-name="bullet" unicode="&#x2022;" horiz-adv-x="360" 
d="M320 295q0 -57 -33.5 -103.5t-89.5 -46.5q-53 0 -105 40.5t-52 93.5q0 51 45.5 106t96.5 55q63 0 100.5 -41t37.5 -104z" />
    <glyph glyph-name="ellipsis" unicode="&#x2026;" horiz-adv-x="596" 
d="M544 56q0 -24 -14.5 -40t-37.5 -16q-26 0 -43 21t-17 48q0 25 12 44.5t36 19.5q27 0 45.5 -25t18.5 -52zM365 56q0 -24 -14 -40t-36 -16q-27 0 -44 21t-17 48q0 24 12.5 44t35.5 20q27 0 45 -25t18 -52zM166 56q0 -24 -14 -40t-36 -16q-27 0 -45 21t-18 48q0 24 13 44
t36 20q27 0 45.5 -25t18.5 -52z" />
    <glyph glyph-name="perthousand" unicode="&#x2030;" horiz-adv-x="827" 
d="M264 494q0 -45 -41.5 -82.5t-87.5 -37.5q-38 0 -66.5 30t-28.5 67q0 47 39.5 100.5t82.5 53.5q102 0 102 -131zM448 603q-137 -319 -302 -651q-4 -10 -18 -10q-31 0 -21 35q25 92 137 332.5t158 316.5q4 8 19 8q13 0 23 -9t4 -22zM552 137q0 -53 -46 -99t-98 -46
q-38 0 -65.5 32t-27.5 71q0 67 40.5 139t82.5 72q56 0 85 -51t29 -118zM214 525q0 35 -31 35q-27 0 -50 -29.5t-23 -55.5q0 -12 8 -21t20 -9q30 0 53 25.5t23 54.5zM499 166q0 27 -9 50t-28 24q-24 1 -42 -28.5t-25.5 -59.5t-7.5 -46q0 -15 10.5 -28.5t24.5 -13.5
q29 0 53 36t24 66zM578 155q0 45 40.5 83t86.5 38q39 0 67 -30.5t28 -69.5q0 -46 -39 -99t-83 -53q-100 0 -100 131zM627 123q0 -35 30 -35q29 0 51 29.5t22 56.5q0 12 -8 20.5t-20 8.5q-29 0 -52 -25.5t-23 -54.5z" />
    <glyph glyph-name="guilsinglleft" unicode="&#x2039;" horiz-adv-x="351" 
d="M40 184q0 32 25 80.5t67.5 110.5t49.5 73q6 16 25 16q23 -1 36.5 -17t11.5 -37q0 -21 -26.5 -55t-53.5 -74.5t-28 -75.5q-1 -28 24.5 -57.5t57 -49.5t57 -40.5t24.5 -32.5q0 -16 -11.5 -27.5t-27.5 -10.5q-14 0 -30 6.5t-27 13.5t-28 19t-22 15q-40 27 -81.5 70.5
t-42.5 72.5z" />
    <glyph glyph-name="guilsinglright" unicode="&#x203a;" horiz-adv-x="351" 
d="M311 271q0 -31 -25.5 -80t-66.5 -109t-49 -74q-11 -16 -25 -16q-24 3 -37.5 18.5t-11.5 37.5q0 20 26.5 54t53.5 74t28 75q1 28 -24.5 58t-56.5 50.5t-57 40.5t-25 32q0 14 12 25.5t27 10.5q7 0 15 -1.5t14 -3.5t14.5 -6.5t13.5 -7t14 -9t12 -8.5t12.5 -9t10.5 -8
q39 -25 81.5 -69.5t43.5 -74.5z" />
    <glyph glyph-name="fraction" unicode="&#x2044;" 
d="M412 603q-175 -398 -304 -651q-3 -10 -19 -10q-30 0 -20 35q25 92 137.5 332t158.5 317q8 8 18 8q13 0 23.5 -9t5.5 -22z" />
    <glyph glyph-name="Euro" unicode="&#x20ac;" horiz-adv-x="501" 
d="M360 324q-13 -8 -90 -8q-49 0 -75 -1q-4 -35 -6 -61q75 3 79 3q25 0 42 -1q7 -1 10 -14q4 -11 -0.5 -18.5t-11.5 -8.5q-41 -16 -122 -23q0 -133 78 -133q45 0 94 24.5t76.5 39.5t35.5 0q11 -20 -18.5 -55t-87 -63t-115.5 -28q-49 0 -82.5 29t-47 69.5t-13.5 88.5v25
q-47 0 -82 6q-8 0 -8 8q-3 11 -0.5 24t9.5 17q12 8 85 8q3 17 9 59l-38 -1q-19 0 -55 2q-9 4 -10 16q-5 20 11 26q57 17 102 20q55 288 159 288q59 0 110.5 -65.5t51.5 -129.5q0 -44 -37 -44q-38 0 -38 22q0 46 -27.5 79.5t-63.5 33.5q-53 0 -81 -180q6 0 21.5 1t25.5 1
q57 0 111 -6q10 0 10 -9q8 -29 -11 -41z" />
    <glyph glyph-name="trademark" unicode="&#x2122;" horiz-adv-x="751" 
d="M725 383q0 -9 -11 -11q-6 -1 -15 2q-13 8 -32 56.5t-35 93t-22 44.5q-12 0 -50 -172q-3 -15 -12.5 -26t-24.5 -11q-25 0 -36 28q-3 8 -10 53t-15.5 81t-17.5 36q-13 0 -22.5 -63t-9.5 -125q-1 -20 -2 -30.5t-9 -21.5t-23 -11q-52 7 -44 49q4 17 11 63t14 85t17 80
t24.5 64.5t32.5 21.5q41 -2 67 -86q1 -5 5 -16l2 -8q2 -4 5 -12t4.5 -11t3.5 -7.5t4 -6t5 -1.5q6 0 18 35.5t32.5 69.5t47.5 31q28 0 36 -22q62 -199 62 -252zM332 623q2 -6 -2 -12.5t-12 -7.5q-13 -7 -50 -13.5t-50 -10.5q-8 -48 -8 -85q0 -63 16 -143q0 -23 -34 -23
q-19 0 -26 19q-9 24 -13.5 60.5t-5 63t-0.5 97.5q-58 -13 -78 -13q-19 2 -31 12t-11 29q0 11 7.5 19.5t18.5 10.5q118 19 237 19q39 0 42 -22z" />
    <glyph glyph-name="minus" unicode="&#x2212;" horiz-adv-x="375" 
d="M335 299q0 -29 -45 -42q-10 -2 -100 -15.5t-97 -13.5q-20 0 -36.5 11.5t-16.5 29.5q0 19 14 33.5t35 17.5q48 8 199 8q16 0 23.5 -0.5t15.5 -7.5t8 -21z" />
    <glyph glyph-name="notequal" unicode="&#x2260;" horiz-adv-x="401" 
d="M326 530q0 -17 -38 -107q6 1 20 1q34 0 40 -25q1 -15 -4 -22.5t-20 -14.5q-13 -5 -74 -20l-33 -76q49 4 82 4q37 0 37 -18q0 -21 -29 -30q-42 -16 -123 -37q-19 -44 -54 -115q-8 -9 -21 -9q-24 0 -17 26q5 28 25 86q-18 3 -32 14t-14 27q0 23 30 31q2 1 45 11
q4 12 14 36.5t14 36.5q-45 -9 -67 -9q-21 0 -37.5 9.5t-16.5 28.5q0 26 28 34q55 17 133 24q33 77 65 132q4 10 13 10q14 0 24 -8.5t10 -19.5z" />
    <glyph glyph-name="madslug" unicode="&#xf800;" horiz-adv-x="896" 
d="M650 51q-96 -60 -203 -60q-152 0 -259.5 108t-107.5 262q0 97 43.5 173.5t91.5 76.5t48 -51q0 -33 -29.5 -163t-29.5 -132q0 -11 17 -11q19 0 57.5 9t42.5 17q0 1 6.5 30t15 66.5t17 79.5t14.5 78.5t6 52.5q0 41 -32 61.5t-81 20.5l-19 -2l-2 3q94 60 201 60
q154 0 261.5 -108t107.5 -262q0 -97 -43.5 -173.5t-91.5 -76.5t-48 51q0 33 29.5 163t29.5 131q0 12 -17 12q-19 0 -57.5 -9t-42.5 -17q0 -1 -6.5 -30t-15 -66.5t-17 -79.5t-14.5 -78.5t-6 -52.5q0 -41 32 -61.5t81 -20.5l19 1zM476 234q1 4 16 70.5t28 128t13 69.5
q0 9 -16 9q-19 0 -51.5 -7t-45.5 -17q-1 -4 -16 -70.5t-28 -128t-13 -69.5q0 -10 16 -10q18 0 51 7.5t46 17.5z" />
    <glyph glyph-name="A.Alt" unicode="&#xf801;" horiz-adv-x="426" 
d="M2 -1q91 330 152 630q5 27 44 27q35 0 46 -34q21 -63 71.5 -266.5t107.5 -320.5q9 -17 -3.5 -30.5t-32.5 -13.5q-47 0 -111 206q-10 -2 -25.5 -5.5t-54 -8t-64.5 -1.5q-35 -167 -62 -209q-12 -21 -35 -21q-15 0 -27 14.5t-6 32.5zM147 256q22 -3 50.5 0.5t46.5 8.5l17 5
q-11 40 -25.5 105t-23.5 103t-14 38q-4 0 -11 -36t-19.5 -109t-20.5 -115z" />
    <glyph glyph-name="B.Alt" unicode="&#xf802;" horiz-adv-x="641" 
d="M614 469q0 -27 -16 -51t-37 -40t-58 -31.5t-61 -23.5t-65.5 -19.5t-53.5 -15.5q8 -2 43.5 -9.5t58 -12.5t56.5 -17t54.5 -25t36 -33.5t15.5 -44.5q0 -33 -17 -59t-50.5 -41t-69 -25.5t-87 -14.5t-89.5 -5.5t-90 -1.5q-1 -5 -3.5 -13t-14.5 -21t-29 -13q-46 0 -46 65
l7 218q0 152 -59 290q-11 26 -42.5 59t-31.5 55q0 14 8.5 25t22.5 11t42 -8t49 -16l21 -8q1 4 3 9t11.5 13t21.5 6q10 0 20 -11t16 -22l5 -11q187 -24 207 -28l22 -3q21 -4 32 -6.5t35 -8.5t39 -12t35 -16t31 -21.5t19.5 -28t8.5 -34.5zM523 470q0 63 -331 77q2 -15 2 -45
l-3 -126q0 -29 1 -45q185 39 249 65q82 34 82 74zM502 150q0 24 -62 46t-127.5 33.5t-118.5 15.5q0 -31 1.5 -90.5t1.5 -85.5q67 -1 131 5t119 25.5t55 50.5zM108 560l-39 8q10 -16 17 -35.5t13 -44t10 -35.5z" />
    <glyph glyph-name="C.Alt" unicode="&#xf803;" horiz-adv-x="450" 
d="M444 158q0 -50 -70.5 -104t-141.5 -54q-94 0 -150 67t-56 167q0 42 11 108t32 138.5t60 124t86 51.5q60 0 99.5 -46.5t57.5 -112.5q11 -60 -23 -70q-22 -4 -37 10t-18 43q-3 33 -22 59.5t-54 26.5q-40 0 -67 -72t-35 -139t-8 -112q0 -69 34 -116t90 -47q38 0 78 16.5
t57.5 28.5t49.5 38q5 4 8 6q19 8 19 -11z" />
    <glyph glyph-name="D.Alt" unicode="&#xf804;" horiz-adv-x="568" 
d="M538 238q5 -61 -26 -106t-87 -69t-119 -35t-134 -11q-61 0 -129 9q-32 9 -30 45q2 23 12 30.5t36 6.5q4 0 10 -0.5t11.5 -0.5h10.5t8 1h3q-35 167 -35 355q0 66 2 95q-5 3 -12.5 9t-27.5 23.5t-34.5 34t-26 37t-9.5 36.5q1 15 12 25t27 8q18 -1 37 -16t43.5 -44t26.5 -32
q36 -36 95.5 -73.5t112 -68.5t103.5 -67.5t83 -85t37 -106.5zM459 234q6 44 -32.5 88.5t-83.5 71t-109.5 59.5t-78.5 42q-3 -90 -3 -91q0 -176 46 -299q15 -1 41 -1q205 0 220 130z" />
    <glyph glyph-name="E.Alt" unicode="&#xf805;" horiz-adv-x="546" 
d="M520 162q0 -40 -40 -54q-24 -9 -68.5 -31t-59.5 -29q-78 -40 -118 -40q-50 0 -85 29t-51 76.5t-22.5 91t-6.5 90.5l2 247q-4 1 -10 4.5t-16 17t-10 30.5q0 20 21.5 30t47.5 10l50 -5q127 -11 180 -13q110 -8 135 -14q23 -10 23 -23q0 -27 -31 -31q-77 -11 -137 -11
l-132 5l-44 -4q-1 -134 -1 -166q30 3 81 7.5t88.5 8.5t73.5 12q43 4 43 -23q0 -25 -46 -47q-18 -7 -78.5 -17.5t-109.5 -19.5t-51 -15q2 -1 0 -19t3.5 -46t13 -55t28.5 -46t51 -19q48 0 128 48.5t129 48.5q7 0 13 -8t6 -20z" />
    <glyph glyph-name="F.Alt" unicode="&#xf806;" horiz-adv-x="448" 
d="M488 569q0 -23 -52 -40q-37 -14 -148.5 -31t-152.5 -17l12 -166q156 8 195 8q11 0 24 -5t14 -12q3 -20 -11 -30.5t-47 -23.5q-25 -9 -67.5 -18t-72.5 -14l-30 -4q8 -134 8 -171q0 -68 -47 -68q-29 0 -31 40q-42 411 -42 594q0 15 28 15q55 0 63 -55q81 0 279 25
q78 13 78 -27z" />
    <glyph glyph-name="G.Alt" unicode="&#xf807;" horiz-adv-x="693" 
d="M706 364q5 -16 -34.5 -40t-81.5 -40l-42 -16q6 -21 26 -93t31.5 -119t17.5 -88q2 -15 -10 -29.5t-27 -14.5q-37 0 -49 33l-56 237q-23 -80 -93 -146.5t-160 -66.5q-79 0 -133.5 48.5t-54.5 140.5q0 60 11.5 128.5t38 142t65 132t98 96t131.5 37.5q66 0 120 -41t82 -92
q8 -16 8 -39q0 -20 -14 -33.5t-34 -13.5q-12 0 -17.5 1t-11 5.5t-9.5 13.5q-16 45 -51 78t-79 33q-59 0 -109.5 -47.5t-80.5 -116.5t-46.5 -137.5t-16.5 -118.5q0 -65 23 -96.5t86 -31.5q57 0 105.5 46t63.5 107q-7 -2 -27 -10.5t-37.5 -13.5t-30.5 -5q-23 0 -33 18t1 38
q12 23 52.5 42.5t75.5 27.5l35 8q14 33 36 45q6 3 18 -3t21 -14l8 -7q94 28 147 28q34 0 37 -13z" />
    <glyph glyph-name="H.Alt" unicode="&#xf808;" horiz-adv-x="476" 
d="M400 576q21 -260 21 -403v-63q0 -94 -6 -117q-4 -18 -32 -18q-32 0 -40 34q-5 30 -7.5 90t-3.5 105v45q-51 -5 -106 -5l-72 5q14 -145 14 -201q0 -19 -12 -32.5t-27 -13.5q-21 0 -37 13.5t-17 31.5q-22 317 -22 502q0 93 12 113q11 11 37 7q40 -6 40 -67l4 -276
q56 -8 92 -8l94 8q-6 97 -12 141q-10 82 -10 124q0 20 13.5 34t35.5 14q18 0 29 -20.5t12 -42.5z" />
    <glyph glyph-name="I.Alt" unicode="&#xf809;" horiz-adv-x="519" 
d="M116 534q-6 0 -27.5 -2t-30.5 -2q-20 0 -32 11.5t-12 30.5q0 43 53 43l57 -1h70q2 14 13.5 26.5t21.5 12.5q9 0 21 -12t16 -26q235 2 238 -28q1 -21 -26 -27q-66 -12 -201 -18v-48l3 -284q0 -67 -3 -139q124 8 146 11q16 1 27.5 1.5t25 -1.5t20 -8.5t5.5 -17.5
q-3 -25 -57 -37q-38 -12 -189 -26t-190 -10q-24 2 -35.5 11t-8.5 34q2 37 61 37q35 2 109 4q7 102 7 209q0 140 -13 258q-14 0 -37.5 -1t-31.5 -1z" />
    <glyph glyph-name="J.Alt" unicode="&#xf80a;" horiz-adv-x="488" 
d="M459 587q-8 -11 -45 -11q-19 0 -53.5 3t-51.5 4t-33 -2q13 -33 47 -103t55 -118t36.5 -115.5t9.5 -125.5q-9 -95 -87 -154t-175 -50q-53 4 -104 44t-44 90q6 52 59 94.5t109 42.5q23 0 34 -12t2 -30q-6 -13 -34.5 -27t-53.5 -30.5t-25 -37.5q0 -28 25 -42t54 -16
q69 -7 109 31.5t47 107.5q7 68 -15.5 141t-75 175.5t-64.5 131.5q-19 -2 -39.5 -6.5t-34 -9t-38 -12.5t-35.5 -12h-12q-16 4 -24 18.5t-6 29.5q0 8 5 16q20 16 63.5 26.5t76.5 13.5l33 2q4 15 12 26t16 11q12 0 48 -34q8 -1 55 -6t85 -11.5t59 -14.5q7 -3 10.5 -13t-0.5 -15
z" />
    <glyph glyph-name="K.Alt" unicode="&#xf80b;" horiz-adv-x="502" 
d="M172 292q113 -46 209 -116t110 -98q9 -15 -2.5 -27t-26.5 -12q-40 0 -72 25q-2 2 -16.5 13.5t-21.5 17t-24.5 18.5t-30 21.5t-32.5 20.5t-37.5 21t-39.5 19t-44 18q7 -116 15 -172q1 -10 -6.5 -22t-27.5 -17q-19 -3 -30.5 5.5t-12.5 18.5q-29 190 -29 621q0 37 48 37
q16 0 24.5 -9.5t9.5 -21.5q3 -23 3 -52q0 -16 -1.5 -59.5t-1.5 -70.5q0 -50 6 -107q147 86 249 191q14 13 31 11.5t26 -14.5q7 -7 5.5 -21.5t-9.5 -25.5q-81 -107 -271 -213z" />
    <glyph glyph-name="L.Alt" unicode="&#xf80c;" horiz-adv-x="384" 
d="M397 122q3 -14 -10 -27t-28 -20q-47 -22 -127.5 -50.5t-118.5 -32.5q-46 -6 -51 34q-6 54 -6 143l6 294q0 87 -6 145q-2 14 11 24t30 10q39 0 45 -40q8 -72 8 -153l-6 -270q0 -28 2 -84q157 30 185 37q59 14 66 -10z" />
    <glyph glyph-name="M.Alt" unicode="&#xf80d;" horiz-adv-x="729" 
d="M683 177q0 -109 -6 -194q-1 -8 -12 -14.5t-21 -6.5q-28 0 -40 30q2 258 -33 491q-29 -158 -152 -420q-6 -15 -19.5 -24t-28.5 -9q-33 0 -35 37q-7 184 -42 439q-80 -199 -102 -350q-5 -33 -15 -169q-10 -27 -39 -24q-25 4 -36 11.5t-13 27.5q-25 265 -36 580
q0 22 6.5 42.5t21.5 20.5q41 0 43 -29q2 -30 4 -80t3 -80t5 -77t10 -95q29 105 68 205.5t70 126.5q18 15 42 15q32 0 43 -74q3 -24 22.5 -144t23.5 -181q38 73 83 216.5t48 148.5q7 13 12.5 17t23.5 4q30 0 51.5 -57.5t31.5 -140.5t14 -144.5t4 -98.5z" />
    <glyph glyph-name="N.Alt" unicode="&#xf80e;" horiz-adv-x="501" 
d="M433 592q14 -186 14 -318q0 -259 -51 -262q-16 -4 -34 10q-39 31 -73 69.5t-65.5 88.5t-45 74t-40.5 75q4 -107 4 -192q-10 -103 -34 -149q-5 -18 -33 -18q-14 -4 -25 10t-9 33q12 124 12 271l-3 261q2 25 35 28q19 0 31 -23q64 -125 90.5 -174t66.5 -114t83 -118
q12 104 12 164q0 152 -31 371q-2 21 9 38.5t31 18.5q24 1 37 -35.5t19 -108.5z" />
    <glyph glyph-name="O.Alt" unicode="&#xf80f;" horiz-adv-x="470" 
d="M444 251q0 -99 -77 -169t-178 -70q-163 0 -163 235q0 40 8 122t31.5 172.5t56.5 90.5q89 0 164.5 -59t116.5 -146t41 -176zM360 257q0 55 -24.5 122.5t-68.5 118.5t-91 51q-29 0 -46 -91.5t-17 -178.5q0 -47 7.5 -86.5t30.5 -70.5t59 -31q59 0 104.5 51.5t45.5 114.5z
" />
    <glyph glyph-name="P.Alt" unicode="&#xf810;" horiz-adv-x="576" 
d="M549 326q0 -33 -25.5 -57t-60 -36t-83.5 -19t-80 -8.5t-66 -1.5q0 -13 1.5 -59t1.5 -69q0 -75 -7 -152q-1 -20 -10 -33t-30 -9q-27 3 -32 31q-11 54 -13 149t-10 141q-68 8 -97 12q-17 3 -28 13t-9 27q2 23 82 23l49 -2q1 27 -1 54t-9.5 56.5t-13 50t-19.5 54t-20 48
t-23.5 53l-22.5 49.5q-10 19 -8 43q5 20 24 8q26 -14 88.5 -48t99.5 -55t93.5 -54t91 -57.5t69.5 -52.5t51.5 -53t16.5 -46zM462 344q0 14 -16.5 32t-47 38t-58.5 36.5t-67.5 38t-57.5 32.5q0 -39 5.5 -120.5t5.5 -123.5q69 -6 152.5 10.5t83.5 56.5zM196 532
q-13 8 -38 21.5t-35 19.5q1 -22 12.5 -61t13.5 -56q0 29 1 41q9 35 46 35z" />
    <glyph glyph-name="Q.Alt" unicode="&#xf811;" horiz-adv-x="610" 
d="M449 78q-30 -34 -72.5 -57.5t-81.5 -23.5q-108 0 -185.5 74.5t-77.5 182.5q0 86 43 178.5t115.5 156t146.5 63.5q52 0 93.5 -31t65.5 -79t36.5 -99.5t12.5 -99.5q0 -95 -43 -193q7 -10 25 -30t34.5 -36t37.5 -36.5t24 -23.5q7 -7 10 -16.5t2.5 -18.5t-4 -16.5t-9.5 -11.5
t-14 -2q-7 1 -17 6t-23 14.5t-24.5 18t-28 22.5t-25.5 21.5t-24 21t-17 15.5zM440 221q22 36 22 117q0 91 -32.5 162t-93.5 71q-59 0 -111 -48t-82 -121.5t-30 -147.5q0 -73 49 -124.5t114 -51.5q51 0 116 63q-13 18 -50.5 60.5t-54.5 73t-17 63.5q0 17 10 35.5t28 18.5
q9 0 16 -1.5t13 -7t10 -8t9 -12t6 -12l6 -15t6 -13.5q22 -58 66 -102z" />
    <glyph glyph-name="R.Alt" unicode="&#xf812;" horiz-adv-x="487" 
d="M519 61q7 -5 8 -16t-5 -19.5t-17 -8.5q-17 0 -57 11q-92 38 -178 90t-139 99q0 -17 1.5 -68.5t0.5 -77.5q0 -3 -0.5 -12.5t-1 -14t-1.5 -12t-3.5 -11t-6.5 -8t-10 -6t-14 -0.5q-25 2 -28 21q-9 47 -16 139t-7 155l-2 209q0 60 2 79q2 16 12 26.5t24 10.5q11 0 22 -8
t17 -16l5 -8q12 -3 32 -8.5t70.5 -23.5t89 -38t70.5 -52t32 -65q0 -21 -11 -39t-33 -31.5t-43.5 -23t-55 -18t-53 -12.5t-51.5 -10q114 -108 347 -233zM124 356q2 0 6.5 1t17.5 3.5t25.5 5.5t29.5 7.5t32 8.5t30 10t25.5 11.5t17 12t6.5 12.5q0 24 -46.5 50.5t-93.5 41.5
l-46 14q-5 -22 -5 -113q0 -57 1 -65z" />
    <glyph glyph-name="S.Alt" unicode="&#xf813;" horiz-adv-x="391" 
d="M364 563q0 -30 -30 -30l-136 16q-30 0 -59.5 -16.5t-29.5 -47.5q0 -29 34 -70.5t74.5 -80t74.5 -96.5t34 -116q0 -53 -45 -86.5t-100 -33.5q-38 0 -72.5 23.5t-34.5 56.5q0 11 10 26t17 15q10 0 30.5 -18t36.5 -22q25 -7 50.5 7.5t25.5 56.5q0 27 -22.5 60t-54.5 65.5
t-64 67t-54.5 74t-22.5 75.5q0 70 51 108t125 38q51 0 106.5 -20t55.5 -52z" />
    <glyph glyph-name="T.Alt" unicode="&#xf814;" horiz-adv-x="440" 
d="M481 574q0 -16 -14 -20q-31 -10 -137.5 -20t-113.5 -11q3 -31 21 -174t18 -224q0 -101 -51 -101q-25 0 -28 16q-4 27 -14 158q-13 207 -33 324q-26 1 -62 -1t-48 -2q-25 -2 -42 8.5t-17 33.5q0 11 2.5 20t9.5 14t11 8t16 4.5l16 2t18.5 0t15.5 -0.5l74 -1q21 37 37 37
q13 0 23 -10.5t14 -20.5l4 -11q181 -4 210 -4q17 0 43.5 -6.5t26.5 -18.5z" />
    <glyph glyph-name="U.Alt" unicode="&#xf815;" horiz-adv-x="498" 
d="M444 326q0 -153 -57.5 -238t-118.5 -85q-215 0 -215 478q0 127 36 127q18 0 33 -8t15 -26q0 -8 -1.5 -54t-1.5 -79q0 -346 134 -346q44 0 69 74t25 145l-22 312q0 12 11 24.5t23 14.5q26 8 36 -2t12 -41t12 -136t10 -160z" />
    <glyph glyph-name="V.Alt" unicode="&#xf816;" horiz-adv-x="448" 
d="M419 668q30 0 39 -24t-9 -34q-22 -16 -25 -23q-27 -54 -60.5 -169t-61.5 -229t-34 -132q-12 -48 -58 -48q-16 0 -26.5 15t-14.5 32q-83 287 -188 543q-4 11 9.5 21t30.5 10q27 0 38 -19q19 -34 42.5 -95.5t39.5 -111t41 -128.5t34 -106q5 13 26.5 100.5t51 184
t58.5 150.5q36 63 67 63z" />
    <glyph glyph-name="W.Alt" unicode="&#xf817;" horiz-adv-x="723" 
d="M198 12q-48 0 -74 99q-74 295 -97 484q-1 14 11.5 25t28.5 11q7 0 12.5 -1t10 -3.5t8 -4.5t6 -7.5t4 -8.5t3.5 -11.5t3 -12.5t3 -15.5t3 -16.5q73 -394 88 -394q12 0 53 163t54 231q12 75 50 75q21 0 35 -9.5t18.5 -20t8.5 -27.5q13 -42 56.5 -199.5t63.5 -214.5
q23 44 36.5 186t13.5 223q0 63 47 63q19 0 29 -16.5t10 -36.5q0 -112 -21.5 -267t-60.5 -257q-19 -47 -40 -47q-35 0 -50 25q-28 60 -59.5 165.5t-51 178.5t-24.5 73q-6 0 -21 -61t-39 -154t-47 -148q-7 -18 -10.5 -26t-12 -20.5t-20.5 -17.5t-28 -5z" />
    <glyph glyph-name="X.Alt" unicode="&#xf818;" horiz-adv-x="482" 
d="M456 149q0 -47 -15.5 -96.5t-50.5 -49.5q-34 0 -63.5 26t-45.5 56.5t-37.5 76.5t-33.5 65q-10 -18 -34.5 -56.5t-40 -69.5t-22.5 -62q29 5 29 -22q0 -21 -25 -35t-47 -14q-49 0 -49 53q0 25 16 63t33 67t47.5 77t41.5 66q-8 18 -45 88t-64.5 129.5t-27.5 82.5q0 34 19 43
q17 7 30.5 -0.5t21.5 -22.5q18 -34 55.5 -112t61.5 -120q5 7 23 37.5t34.5 55.5t37.5 53.5t41.5 45t36.5 16.5q31 0 42 -27q6 -11 12.5 -47.5t6.5 -65.5q0 -39 -17 -40q-17 -3 -24 11.5t-6.5 34t-2 36.5t-11.5 17q-19 0 -128 -201q9 -15 41.5 -77.5t55.5 -97.5t37 -35
q10 0 13.5 62t21.5 62q16 0 24 -23.5t8 -49.5z" />
    <glyph glyph-name="Y.Alt" unicode="&#xf819;" horiz-adv-x="404" 
d="M397 583q-34 -51 -58.5 -95.5t-42 -80t-28 -80t-17 -74t-9 -84t-3 -88.5t-0.5 -108q0 -44 -35 -44q-40 0 -44 45q-4 32 -5 114.5t-5 113.5q-6 55 -37.5 121t-75 138.5t-59.5 112.5q-4 16 3 29t26 13q25 0 42 -24q18 -26 68.5 -123t73.5 -129q16 66 48 133t73.5 114.5
t77.5 47.5q16 0 17.5 -17.5t-10.5 -34.5z" />
    <glyph glyph-name="Z.Alt" unicode="&#xf81a;" horiz-adv-x="532" 
d="M516 109q10 -6 9 -16t-9 -17q-77 -57 -371 -57h-65q-19 0 -29 16.5t-1 40.5q23 52 74 117t98.5 116t91.5 117t58 123q-121 -43 -227 -43q-31 0 -57 4.5t-50 22t-24 46.5q0 27 23 36q7 4 14.5 3.5t11.5 -2t12.5 -6t12.5 -6.5q39 -18 84 -18q46 0 132 22t113 24
q23 4 34 -6.5t10 -36.5q-2 -60 -37 -129t-78 -120t-99.5 -119.5t-84.5 -111.5q32 -3 67 -3q43 0 123.5 6t108.5 6q41 0 55 -9z" />
    <glyph glyph-name="a.Alt" unicode="&#xf81b;" horiz-adv-x="454" 
d="M453 97q5 -35 -21 -54.5t-55 -19.5q-37 -1 -59 18.5t-50 67.5q-2 -1 -6 -4.5l-8 -7t-7 -5.5q-27 -21 -40.5 -31t-37.5 -21.5t-46 -12.5q-39 0 -66.5 35t-29.5 83q-2 72 36.5 148.5t110.5 96.5q18 6 40 6q19 0 39 -5t31 -11l11 -5q2 1 6 2.5t14.5 5t19.5 5.5t17.5 1.5
t12.5 -5.5l4 -8t2.5 -9t1 -9.5t-0.5 -12t-2 -12.5t-3 -14.5t-3 -15t-3.5 -17t-4.5 -18.5q-15 -82 -14 -96q0 -34 12.5 -55t35.5 -21q14 0 25 6q30 8 35 1q2 -2 3 -6zM270 301l-1 2q-29 23 -65 23q-50 -3 -76.5 -51t-26.5 -98q2 -22 18 -37t31 -15q42 0 78 46t42 130z" />
    <glyph glyph-name="b.Alt" unicode="&#xf81c;" horiz-adv-x="425" 
d="M386 201q0 -54 -46 -93t-103 -54.5t-112 -15.5q-2 -4 -5 -10.5t-15 -17t-25 -10.5q-14 0 -26.5 10t-10.5 22q10 65 10 90q0 337 -23 577q-2 20 12 28.5t36 8.5q28 0 29 -22q18 -200 18 -367q28 42 72 43q71 4 130 -56t59 -133zM314 203q0 44 -39.5 81t-88.5 30
q-28 -5 -42.5 -44.5t-14.5 -68.5q0 -3 -0.5 -17t0 -19.5t1.5 -17t3.5 -16.5t7 -12t12 -9.5t17.5 -2.5q50 0 97 25.5t47 70.5z" />
    <glyph glyph-name="c.Alt" unicode="&#xf81d;" horiz-adv-x="423" 
d="M402 106q0 -80 -197 -80q-76 0 -127.5 43.5t-51.5 106.5q0 93 84.5 159t196.5 66q27 0 47.5 -12t20.5 -37q0 -20 -15 -30t-37 -10l-49 6q-68 0 -115.5 -36t-47.5 -92q0 -40 27.5 -69t89.5 -29q40 0 91.5 18t63.5 18q19 0 19 -22z" />
    <glyph glyph-name="d.Alt" unicode="&#xf81e;" horiz-adv-x="475" 
d="M447 41q0 -15 -8.5 -28t-23.5 -13q-17 0 -30 6t-22 20t-13 23t-10.5 31.5t-8.5 28.5q-76 -85 -165 -85q-58 0 -99 39.5t-41 96.5q0 75 59 151t130 76q34 0 56.5 -17t42.5 -50q4 24 4 56l-10 238q0 22 0.5 31.5t4.5 27t14.5 25.5t27.5 8q18 0 31 -10t13 -28l-3 -242
q0 -218 17 -308q3 -17 18.5 -40.5t15.5 -36.5zM307 258q-2 0 -13.5 -2t-16.5 -2q-13 0 -21.5 10t-12 21.5t-9.5 21.5t-16 10q-50 0 -79.5 -51.5t-29.5 -104.5q0 -65 57 -65q58 0 96 50.5t45 111.5z" />
    <glyph glyph-name="e.Alt" unicode="&#xf81f;" horiz-adv-x="401" 
d="M413 102q0 -26 -25 -47t-61.5 -32.5t-69.5 -17t-56 -5.5q-106 0 -142 74q-5 10 -10.5 31.5t-8.5 38.5l-3 16q-45 22 -45 41q0 11 12 20.5t24 13.5l13 4q3 9 8.5 23.5t24 52t39 66.5t52.5 52.5t64 23.5q47 0 76.5 -43t29.5 -96q0 -28 -9 -51q-33 -82 -209 -106
q6 -87 106 -87q36 0 76 12t67 24.5t31 12.5q5 0 10.5 -7.5t5.5 -13.5zM258 314q5 22 -6.5 45t-30.5 23q-22 0 -47 -36.5t-38 -73.5l-14 -37q125 18 136 79z" />
    <glyph glyph-name="f.Alt" unicode="&#xf820;" horiz-adv-x="337" 
d="M432 573q0 -19 -11.5 -30t-29.5 -11q-25 0 -33 11t-9 38q-20 113 -35 142q-13 26 -32 26q-24 0 -41.5 -78t-23.5 -156l-6 -78q33 1 84 1q28 0 28 -21q0 -12 -28 -22q-1 -1 -15 -6q-11 -5 -30 -10.5t-32 -8.5l-14 -2q-1 -45 3 -99t26.5 -139t22.5 -95q1 -17 -12 -32
t-29 -15q-5 0 -19 9q-58 95 -66 293q-1 25 1 72q-12 0 -32 -1.5t-35 -1.5q-71 0 -71 51q0 12 10 22.5t23 11.5q5 0 37 -5l75 -3q1 7 4 42t4 47t5 45t7 49.5t9 45.5t12.5 48t16 42t20.5 42q35 56 68 56q32 0 57 -22.5t40 -60.5t24 -73t16.5 -74t10.5 -50z" />
    <glyph glyph-name="g.Alt" unicode="&#xf821;" horiz-adv-x="378" 
d="M338 147q0 -42 -13.5 -111.5t-37.5 -144.5t-66.5 -128.5t-91.5 -53.5q-36 0 -63 37.5t-27 63.5q0 10 3.5 17.5t13.5 6.5q6 -1 20.5 -21.5t20.5 -20.5q51 0 91 62t57.5 134.5t17.5 129.5q0 37 -5 56q-75 -96 -140 -96q-37 0 -64.5 28.5t-27.5 64.5q0 41 30.5 105
t79.5 115.5t93 51.5q27 0 45.5 -14.5t18.5 -38.5v-8q27 -8 29 -22q16 -110 16 -213zM123 159q7 -4 11 -4q34 0 79 64.5t45 104.5q0 13 -4.5 30.5t-10.5 17.5q-36 0 -84.5 -69t-48.5 -117q0 -18 13 -27z" />
    <glyph glyph-name="h.Alt" unicode="&#xf822;" horiz-adv-x="484" 
d="M62 58q0 215 -35 654q-1 10 9 23t27 13q16 0 30 -11.5t16 -24.5q17 -190 24 -490q3 6 18.5 35.5t23.5 43.5t25.5 39.5t32 38.5t35.5 23.5t42 10.5q30 0 51.5 -24.5t33.5 -69.5t20 -92t19 -107.5t23 -100.5q4 -14 -6 -24.5t-23 -10.5q-16 0 -27 12q-15 15 -25.5 42t-15 48
t-11.5 66q-4 15 -10.5 64.5t-15 78.5t-21.5 29q-73 0 -147 -261q-12 -37 -53 -37q-14 0 -27 9t-13 23z" />
    <glyph glyph-name="i.Alt" unicode="&#xf823;" horiz-adv-x="190" 
d="M149 65q0 -28 -18 -44.5t-48 -16.5q-40 0 -40 80q0 35 7 113t7 114q0 57 32 57q19 0 29.5 -11t11.5 -28q1 -23 1 -77v-42q0 -85 2 -118q16 -12 16 -27zM132 531q0 -49 -34 -49q-22 0 -40 16.5t-18 38.5q0 18 12.5 33.5t30.5 15.5q22 0 35.5 -17t13.5 -38z" />
    <glyph glyph-name="j.Alt" unicode="&#xf824;" horiz-adv-x="232" 
d="M154 536q0 -14 -17 -31.5t-32 -19.5q-16 0 -31 13.5t-15 26.5q-1 24 12.5 36t34.5 13q15 0 31 -10.5t17 -27.5zM201 71q0 -13 -10.5 -24t-21.5 -17l-11 -5q27 -121 28 -163q3 -55 -23.5 -102t-79.5 -48q-60 3 -102 56t-42 114q1 43 22 79t42.5 54.5t60.5 45.5
q-1 10 -2 27t-3 64t-1 86v20t0.5 25.5t2 25.5t5 26.5t9 20.5t14 16t20.5 5q15 -1 28 -8.5t12 -20.5q0 -17 -2 -38t-6 -53.5t-6 -55.5q-3 -87 9 -119h6q6 1 14 1.5t16.5 0t14.5 -3.5t6 -9zM109 -144q0 22 -4 44t-11.5 52t-9.5 39q-29 -18 -52 -48t-23 -60q2 -36 25 -68
t53 -29q25 1 22 70z" />
    <glyph glyph-name="k.Alt" unicode="&#xf825;" horiz-adv-x="410" 
d="M387 122q21 0 29 -9t6 -18t-7 -14q-23 -30 -73 -30q-22 0 -52.5 10t-49 19t-61.5 32.5t-55 29.5q6 -101 6 -118q0 -18 -12.5 -33.5t-24.5 -15.5q-49 0 -49 40q0 91 -9 322t-9 307q0 16 8.5 27.5t24.5 11.5q21 0 33 -13t12 -36q0 -211 9 -389q28 19 87.5 73t98.5 83
q19 15 39 15.5t31 -14.5q15 -22 -27 -55q-129 -113 -173 -145q50 -31 114 -55.5t104 -24.5z" />
    <glyph glyph-name="l.Alt" unicode="&#xf826;" horiz-adv-x="226" 
d="M162 49q0 -27 -40 -27q-17 0 -27 12t-13 29q-13 84 -13 324l5 289q0 14 10.5 24t24.5 10q23 0 28 -21q12 -74 12 -270z" />
    <glyph glyph-name="m.Alt" unicode="&#xf827;" horiz-adv-x="552" 
d="M552 64q0 -5 -13 -15t-19 -10q-17 0 -36 17q-30 29 -44 92t-17.5 111t-11.5 48q-5 0 -25 -65.5t-48 -131.5t-54 -66q-25 0 -41 62t-23.5 124t-12.5 62q-6 0 -14.5 -72t-27.5 -144t-48 -72q-35 0 -54 89q-23 102 -23 272q0 13 11 24t25 11q20 0 28 -11t6 -27
q-4 -54 -4 -93q0 -92 19 -152q20 51 32.5 149.5t19.5 129.5q10 32 48 32t38 -55q0 -134 31 -228q12 18 27 58t31.5 91.5t19.5 60.5q5 22 19 37.5t34 15.5q25 0 41.5 -69t35.5 -155.5t47 -114.5q3 -3 3 -5z" />
    <glyph glyph-name="n.Alt" unicode="&#xf828;" horiz-adv-x="445" 
d="M445 135q0 -21 -31 -38t-55 -17q-35 0 -56 24q-26 25 -35.5 82t-13 100t-16.5 43q-11 0 -24 -48t-31 -117.5t-36 -104.5q-1 -2 -5 -8.5t-5.5 -8t-5 -5.5t-6 -5t-7 -2.5t-9.5 -1.5q-24 0 -33 28q-14 41 -20.5 89.5t-10 124t-4.5 88.5q-4 52 41 52q19 0 28.5 -16t9.5 -35
l-1 -80q0 -51 5 -87q13 28 34.5 96t39.5 102q9 14 15.5 22t18 14.5t25.5 6.5q16 0 31.5 -9.5t19.5 -24.5q3 -9 9 -76.5t20 -118t40 -50.5q6 0 19 3t21 3q28 0 28 -25z" />
    <glyph glyph-name="o.Alt" unicode="&#xf829;" horiz-adv-x="377" 
d="M348 176q0 -71 -53.5 -130.5t-124.5 -59.5q-69 0 -100.5 45t-31.5 116q0 27 4 66.5t14.5 91.5t34 87t56.5 34q95 -2 148 -74t53 -176zM152 65q63 0 94.5 44t31.5 102t-36.5 101.5t-77.5 43.5q-19 0 -31.5 -23t-17.5 -59.5t-6.5 -61t-1.5 -46.5q0 -20 0.5 -31t4.5 -31
t14 -29.5t26 -9.5z" />
    <glyph glyph-name="p.Alt" unicode="&#xf82a;" horiz-adv-x="397" 
d="M371 255q0 -49 -21 -85.5t-56 -56t-70 -28.5t-74 -11q0 -20 2 -52t2 -48l1 -93q0 -31 -1 -42q-10 -44 -41 -44q-20 0 -29.5 16t-9.5 37l-4 277q0 144 -20 259q0 9 6 18.5t18 9.5q13 0 22.5 -11t11.5 -21l3 -11q11 23 40.5 39.5t62.5 16.5q72 0 114.5 -48t42.5 -122z
M298 222q8 56 -18 97t-82 41q-13 0 -25.5 -8t-16.5 -20q-11 -25 -11 -75l3 -127q5 0 14.5 0.5t33.5 6t43 14t37 27.5t22 44z" />
    <glyph glyph-name="q.Alt" unicode="&#xf82b;" horiz-adv-x="400" 
d="M334 399q24 -5 24 -59q0 -21 -12 -133.5t-12 -199.5q0 -96 34 -166q14 -30 9 -42q-3 -10 -16.5 -19t-24.5 -9q-16 0 -28.5 7.5t-21 24.5t-15 31.5t-10 41.5t-5.5 41.5t-3 44t-1 35.5v30l-1 75q0 -4 -21 -16t-54 -23.5t-59 -11.5q-44 0 -67.5 29t-23.5 75q0 80 46.5 147.5
t117.5 96.5q24 12 66 12q23 0 78 -12zM134 134q16 0 31 2.5t26.5 6.5t21.5 9t17.5 10t12.5 9t9 7l4 4q5 25 9.5 54.5t6.5 47.5l2 17q0 22 -13.5 31.5t-28 9t-28.5 -5.5q-36 -13 -69 -55.5t-33 -99.5q0 -17 10.5 -32t21.5 -15z" />
    <glyph glyph-name="r.Alt" unicode="&#xf82c;" horiz-adv-x="352" 
d="M359 354q0 -10 -6 -16t-12 -6l-6 -1q-40 0 -62.5 -1.5t-55 -15t-46.5 -40.5q-12 -22 -18.5 -43t-8 -33t-3.5 -35.5t-3 -34.5q0 -6 0.5 -26.5t0 -31.5t-7 -24t-18.5 -18q-3 -2 -9 -2q-28 0 -39 32q-25 85 -25 212q0 108 21 138q4 6 20 6q36 0 36 -37v-47l2 -32
q15 43 60 68t87 25q93 0 93 -37z" />
    <glyph glyph-name="s.Alt" unicode="&#xf82d;" horiz-adv-x="358" 
d="M330 111q4 -58 -45 -93t-112 -40q-27 -1 -52 2t-49.5 18t-26.5 41q-1 17 18 43.5t40 44.5t27 14q3 -4 -13 -35q-12 -17 -11 -23q1 -16 30 -26t48 -9q25 1 49 12t23 27q-2 23 -26 42t-57.5 33t-67 30t-56.5 40.5t-23 56.5q0 46 35 83t81 55.5t92 21.5q90 4 95 -34
q1 -15 -6 -29.5t-21 -14.5q-7 0 -33.5 5.5t-51.5 5.5q-38 0 -75 -20.5t-40 -53.5q-2 -11 4.5 -20.5t22.5 -20t27.5 -16t35.5 -16.5q33 -16 49 -25t40.5 -25.5t36 -34.5t12.5 -39z" />
    <glyph glyph-name="t.Alt" unicode="&#xf82e;" horiz-adv-x="390" 
d="M401 380q-1 -16 -27 -25q-21 -4 -75 -10t-76 -10q11 -146 12 -244q3 -36 3 -72q0 -11 -11.5 -17t-23.5 -6q-31 0 -34 27q-5 40 -5 86q0 21 1 57t1 50l-7 115q-25 -3 -53 -3q-78 0 -106 30q-14 12 -14 34q0 16 9.5 20.5t28.5 4.5q42 0 130 -6q1 8 0.5 38t-0.5 39
q0 85 12 106q3 8 16 8q42 0 36 -56l-1 -142q65 0 138 -5h8t9.5 -0.5t8.5 -1t8 -2t6 -3.5t4.5 -5t1.5 -7z" />
    <glyph glyph-name="u.Alt" unicode="&#xf82f;" horiz-adv-x="398" 
d="M356 386q0 -4 -3.5 -52t-6.5 -81t-14.5 -84.5t-27 -84t-44 -57t-65.5 -24.5q-30 0 -54 15t-40 38t-28 56t-18 64.5t-9.5 69t-4.5 63t-1 52.5q0 43 30 43q50 0 50 -73q0 -155 26 -207q18 -37 49 -37q18 0 32 12t22.5 35.5t14 49.5t8 63.5t3.5 67.5t1 71q0 19 12 30.5
t32 11.5q19 0 29 -13.5t7 -28.5z" />
    <glyph glyph-name="v.Alt" unicode="&#xf830;" horiz-adv-x="336" 
d="M335 421q-11 -43 -42.5 -126.5t-65 -166t-38.5 -96.5q-16 -40 -48 -40q-31 0 -37 40q-13 69 -39 155.5t-45.5 142t-19.5 61.5q0 9 9.5 14.5t20.5 5.5t21 -6t19 -19t16.5 -26t15 -35t12.5 -37.5t11 -42t9.5 -40t8.5 -40t7 -33.5q48 99 100 279q11 45 48 45q15 0 27.5 -10
t9.5 -25z" />
    <glyph glyph-name="w.Alt" unicode="&#xf831;" horiz-adv-x="538" 
d="M481 438q44 0 44 -46q0 -21 -9 -55t-10 -44q-10 -42 -23.5 -86t-32.5 -96t-41.5 -85t-43.5 -33q-10 0 -20.5 11t-19.5 32t-16.5 42t-15 52t-12 51t-10 49t-7.5 36q-12 -36 -33 -114t-34 -114q-10 -31 -52 -31q-27 0 -44 44q-87 232 -87 324q0 13 1 19t6 12.5t16 8.5
q13 4 23 -7.5t16 -32.5q50 -198 76 -241q16 36 35 110t35 120.5t34 46.5q24 0 43 -48.5t39.5 -129t34.5 -114.5q31 60 47 143.5t26.5 129.5t34.5 46z" />
    <glyph glyph-name="x.Alt" unicode="&#xf832;" horiz-adv-x="318" 
d="M338 56q0 -16 -13.5 -24.5t-25.5 -8.5q-34 0 -87 43t-81 84q-22 -37 -38 -96t-22 -68q-11 -16 -28 -16q-29 0 -29 42q0 35 18 87.5t36 87.5l19 35q-63 104 -63 162q0 43 35 43q15 0 25 -29q4 -9 10.5 -29t15 -42t19.5 -43q21 40 56 77.5t57 37.5q28 0 28 -38
q0 -10 -19 -31.5t-45 -52t-38 -55.5q20 -34 51.5 -63t56.5 -44t43.5 -31t18.5 -28z" />
    <glyph glyph-name="y.Alt" unicode="&#xf833;" horiz-adv-x="408" 
d="M26 376q3 16 14.5 25t24.5 7q37 -10 42 -30q15 -53 15 -161q0 -62 18.5 -89t60.5 -27q35 0 61.5 47t26.5 96q0 34 -4.5 69t-4.5 67q0 12 21 23q17 7 32.5 0.5t16.5 -23.5q18 -189 18 -263t-10 -162q-25 -191 -182 -222q-41 -3 -76 20.5t-38 76.5q-4 47 17 54q16 5 26 -23
l1 -5q6 -24 17.5 -35.5t24 -11t25.5 0.5q49 6 82.5 62t33.5 149q0 20 -3 47q-36 -44 -97 -44q-37 0 -64 14.5t-42.5 36.5t-24.5 55t-12 63t-3 68q0 34 -8.5 66.5t-8.5 48.5z" />
    <glyph glyph-name="z.Alt" unicode="&#xf834;" horiz-adv-x="415" 
d="M410 91q0 -27 -23.5 -48.5t-57.5 -21.5q-206 0 -244 54q-10 14 -2 44q5 15 82.5 89t89.5 108q-23 2 -63 2q-27 0 -65 -2.5t-52 -2.5t-39 3q-11 2 -20 10.5t-9 17.5q0 24 62 34.5t121 10.5t102 -14.5t43 -46.5q0 -19 -21 -49.5t-44 -55t-57.5 -58.5t-43.5 -43
q10 -14 39 -21.5t53 -8.5t68 -1q12 0 34.5 6t34.5 6t12 -12z" />
    <glyph glyph-name="zero.Alt" unicode="&#xf835;" horiz-adv-x="497" 
d="M386 324q0 50 -29 86t-80 52q-59 -43 -108 -116t-49 -143q0 -26 20 -48.5t51 -22.5q89 0 142 64.5t53 127.5zM314 589q18 0 29.5 -10t11.5 -25q0 -6 -2.5 -11.5t-6.5 -9.5t-7.5 -7t-5.5 -5l-2 -2q50 -27 88 -82.5t38 -131.5q0 -65 -42 -123.5t-109.5 -90t-136.5 -22.5
q-56 8 -92.5 48.5t-36.5 89.5q0 56 25.5 115t62.5 105t76.5 83.5t69.5 58t40 20.5z" />
    <glyph glyph-name="one.Alt" unicode="&#xf836;" horiz-adv-x="289" 
d="M207 547q-1 -27 -5 -146.5t-4 -183.5q0 -34 7 -209q2 -8 -9 -17.5t-23 -9.5q-43 6 -44 55q0 11 -2 52.5t-2 65.5l6 326l-1 69l-42 -20q-60 -39 -72 -4q-5 25 31 56q46 35 70 48.5t43 12.5q25 0 36.5 -16.5t11 -37.5t-0.5 -41z" />
    <glyph glyph-name="two.Alt" unicode="&#xf837;" horiz-adv-x="439" 
d="M372 542q0 -36 -25 -82t-60 -89t-70.5 -85t-60.5 -80.5t-25 -64.5q0 -19 119 -19l104 2q126 0 126 -32q0 -16 -10.5 -23.5t-36.5 -15.5q-52 -13 -165 -13q-107 0 -167.5 16t-60.5 60q0 38 26 86t62.5 93t73 88t62.5 82t26 63t-15 37.5t-40 13.5q-23 0 -61 -13.5
t-55 -13.5q-51 0 -51 37q0 23 49.5 39.5t126.5 16.5q57 0 92.5 -29t35.5 -74z" />
    <glyph glyph-name="three.Alt" unicode="&#xf838;" horiz-adv-x="563" 
d="M21 40q0 26 37 30q40 6 89.5 19t113 36.5t105.5 61.5t42 83q0 88 -116 88q-17 0 -53 -4q-29 -3 -47 7.5t-18 25.5q0 11 1 17.5t9 18t23 25.5q6 5 34.5 24.5t59.5 45t51 52.5q-59 -5 -130 -5q-83 0 -131 7q-54 10 -54 50q0 18 20 23t44 -2q61 -14 133 -14q51 0 153 12
q74 6 74 -47q0 -21 -18 -39q-11 -10 -30 -29t-29 -28t-26 -23t-32 -25.5t-36 -23.5q79 11 143 -39t64 -124q0 -49 -36 -94t-89.5 -76t-115 -55t-114 -35.5t-84.5 -11.5q-11 0 -24 15.5t-13 33.5z" />
    <glyph glyph-name="four.Alt" unicode="&#xf839;" horiz-adv-x="482" 
d="M332 387q6 62 6 149q0 2 -0.5 16t0 19t1.5 17.5t4.5 18.5t8 13.5t12.5 10.5t19 3q15 0 29.5 -14t14.5 -35q0 -59 -14.5 -208t-14.5 -218q0 -62 3 -110q0 -14 -9.5 -25.5t-27.5 -11.5q-28 0 -40 29q-12 34 -12 113q0 23 5.5 74.5t4.5 77.5q-39 -13 -92 -13q-51 0 -95 11.5
t-55 30.5q-11 18 -19.5 41t-14 52.5t-8.5 48.5t-6.5 53t-4.5 42q-2 22 9 44t34 22q39 0 39 -53q0 -32 8.5 -101.5t20.5 -85.5q21 -25 84 -25q24 0 51.5 3.5t42.5 7.5z" />
    <glyph glyph-name="five.Alt" unicode="&#xf83a;" horiz-adv-x="463" 
d="M203 563q-34 -56 -75 -234q49 29 112 29q73 0 129 -43.5t56 -119.5q0 -45 -24 -79.5t-62 -54t-78 -29t-79 -9.5q-44 0 -89 19.5t-46 55.5q0 15 7.5 20t15.5 -1q43 -29 115 -29q25 0 41 4q110 26 110 109q0 34 -28 57t-68 23q-39 0 -93 -22.5t-64 -20.5q-11 2 -27 19.5
t-16 31.5q0 42 39 155t66 169q3 9 14 15t18 6t39.5 0.5t54.5 0.5q139 0 156 -22q13 -13 9 -27q-7 -23 -37 -23q-3 0 -20 1.5t-42 3t-49 1.5q-54 0 -85 -6z" />
    <glyph glyph-name="six.Alt" unicode="&#xf83b;" horiz-adv-x="499" 
d="M399 192q0 42 -30.5 71t-86.5 29q-63 0 -106 -37.5t-43 -86.5q0 -47 33.5 -76.5t85.5 -29.5q65 0 106 37.5t41 92.5zM307 617q-87 -77 -133 -147t-52 -167q8 7 22 17t58.5 27t88.5 17q79 0 136.5 -50t57.5 -119q0 -90 -71.5 -151t-163.5 -61q-109 0 -159.5 69t-50.5 206
q0 219 191 391q5 4 7 6q29 27 63 22q19 -5 21 -24t-15 -36z" />
    <glyph glyph-name="seven.Alt" unicode="&#xf83c;" horiz-adv-x="467" 
d="M335 529q0 28 -24 28l-200 -14q-54 0 -74 15q-26 17 -35 38q-7 26 14 36q8 5 22.5 6t26 0t29.5 -3.5t22 -2.5q50 -2 67 -2q24 0 75.5 2.5t81.5 2.5q50 2 68 -21t18 -62q0 -38 -62 -227.5t-66 -259.5q-2 -21 -3.5 -30t-9 -18.5t-21.5 -9.5q-29 0 -43 14.5t-14 62.5
q0 62 64 229.5t64 215.5z" />
    <glyph glyph-name="eight.Alt" unicode="&#xf83d;" horiz-adv-x="458" 
d="M352 113q-3 72 -130 165q-26 -25 -45 -63.5t-21 -64.5q0 -34 33.5 -57t84.5 -23q31 0 55 11.5t23 31.5zM210 369q50 43 94.5 109.5t44.5 104.5q0 21 -38.5 30t-75.5 3q-125 -18 -125 -133q0 -31 31.5 -63t68.5 -51zM291 -2q-207 0 -207 164q0 63 76 156q-72 46 -93 69
q-41 43 -41 96q0 92 60.5 143t151.5 58q36 4 78 -4t76.5 -31t34.5 -57q0 -54 -38.5 -119.5t-76.5 -104.5l-38 -39q126 -92 150 -179q4 -16 4 -37q0 -47 -34 -81t-103 -34z" />
    <glyph glyph-name="nine.Alt" unicode="&#xf83e;" horiz-adv-x="495" 
d="M359 528q0 31 -31 45.5t-64 9.5q-54 -5 -106 -61t-50 -114q1 -20 16 -35t38 -15q82 0 139.5 57.5t57.5 112.5zM462 569q5 -7 5.5 -17t-3.5 -23t-8.5 -23.5t-12 -26t-10.5 -21.5q-64 -141 -64 -282q0 -68 17 -126q7 -11 1 -29.5t-27 -21.5q-30 -5 -48 34.5t-21 88.5
q-4 98 17 214q-75 -48 -138 -54q-62 -2 -100.5 30.5t-42.5 84.5q-3 82 72.5 163.5t154.5 84.5q30 2 58 -3t46 -14t32 -18.5t20 -15.5l6 -7q33 -2 46 -18z" />
    <glyph glyph-name="exclam.Alt" unicode="&#xf83f;" horiz-adv-x="257" 
d="M171 441q0 -49 -8.5 -125t-21.5 -109q-8 -12 -21 -12t-18 12q-10 23 -10 79l3 337q0 24 6.5 35t29.5 11q33 0 39 -35q2 -11 2 -66q0 -25 -0.5 -70.5t-0.5 -56.5zM177 39q0 -17 -13 -28t-30 -11q-20 0 -33 15t-13 35q0 15 7.5 26.5t22.5 11.5q23 0 41 -13.5t18 -35.5z" />
    <glyph glyph-name="question.Alt" unicode="&#xf840;" horiz-adv-x="282" 
d="M229 545q0 -36 -36 -114t-33 -117q2 -22 22 -42t20 -29q0 -12 -10.5 -19.5t-30.5 -5.5q-24 6 -47 33.5t-25 59.5q-3 38 34 112.5t37 104.5q0 45 -28 45q-20 0 -47.5 -17.5t-37.5 -17.5q-18 0 -32.5 14.5t-14.5 33.5q0 34 46.5 52.5t86.5 18.5q45 0 70.5 -35.5t25.5 -76.5
zM197 56q0 -20 -11 -38t-28 -18q-20 0 -32.5 19t-12.5 39t12 35.5t33 15.5q18 0 28.5 -16.5t10.5 -36.5z" />
    <glyph glyph-name="apple" unicode="&#xf8ff;" horiz-adv-x="898" 
d="M455 539q20 0 65 15t78 15q54 0 97 -29q24 -17 47 -45q-35 -29 -52 -54q-29 -39 -29 -92q0 -58 30 -101q31 -45 72 -57q-20 -59 -56 -112q-57 -89 -116 -89q-23 0 -63 15q-36 14 -67 14q-29 0 -65 -15t-60 -15q-68 0 -135 117q-66 114 -66 226q0 104 50 169q51 65 129 65
q31 0 79 -14q46 -13 62 -13zM593 720q0 -69 -55 -124q-25 -25 -48 -32q-19 -6 -47 -7q2 148 147 182q3 -8 3 -19z" />
    <glyph glyph-name="DEL" horiz-adv-x="260" 
 />
    </font>
</defs>
</svg>
